{
.appVersion = "1295";
DisplayStrings = (
"TIBURON\012HOH/Placeholder HOH/space OHO/Placeholder OHO"
);
customParameters = (
{
name = "Enforce Compatibility Check";
value = 1;
},
{
name = Axes;
value = (
{
Name = Fun;
Tag = funn;
}
);
},
{
name = "Variable Font Family Name";
value = "Snarkles Variable v0.3";
}
);
date = "2020-01-24 20:05:52 +0000";
familyName = "Snarkles v0.3";
fontMaster = (
{
ascender = 800;
capHeight = 700;
custom = Clean;
customParameters = (
{
name = "Master Icon Glyph Name";
value = N;
}
);
descender = -200;
iconName = Light_Condensed;
id = "B4EA0C51-6804-4423-9CCC-BF57B26265D1";
weight = Bold;
weightValue = 1;
widthValue = 1;
xHeight = 500;
},
{
ascender = 800;
capHeight = 700;
custom = Fun;
customParameters = (
{
name = "Master Icon Glyph Name";
value = N;
}
);
descender = -200;
iconName = Light_Extended;
id = "7390BA8A-CD54-46A0-980C-73781B2212BF";
weight = Bold;
weightValue = 1000;
widthValue = 1000;
xHeight = 500;
}
);
glyphs = (
{
glyphname = A;
lastChange = "2020-02-11 03:04:01 +0000";
layers = (
{
layerId = "B4EA0C51-6804-4423-9CCC-BF57B26265D1";
paths = (
{
closed = 1;
nodes = (
"385 432 LINE SMOOTH",
"379 456 OFFCURVE",
"367 469 OFFCURVE",
"351 469 CURVE SMOOTH",
"335 469 OFFCURVE",
"322 459 OFFCURVE",
"317 439 CURVE SMOOTH",
"214 45 LINE SMOOTH",
"185 -65 OFFCURVE",
"-18 -33 OFFCURVE",
"20 105 CURVE SMOOTH",
"167 635 LINE SMOOTH",
"182 689 OFFCURVE",
"233 717 OFFCURVE",
"284 716 CURVE SMOOTH",
"333 715 OFFCURVE",
"383 686 OFFCURVE",
"399 627 CURVE SMOOTH",
"559 30 LINE SMOOTH",
"571 -14 OFFCURVE",
"508 -31 OFFCURVE",
"495 19 CURVE SMOOTH"
);
},
{
closed = 1;
nodes = (
"520 52 LINE SMOOTH",
"497 52 OFFCURVE",
"496 104 OFFCURVE",
"521 104 CURVE SMOOTH",
"529 104 LINE",
"543 52 LINE"
);
},
{
closed = 1;
nodes = (
"162 173 LINE",
"178 225 LINE",
"466 226 LINE",
"486 173 LINE"
);
},
{
closed = 1;
nodes = (
"173 239 LINE",
"192 293 LINE",
"216 294 LINE SMOOTH",
"255 296 OFFCURVE",
"262 241 OFFCURVE",
"222 240 CURVE SMOOTH"
);
},
{
closed = 1;
nodes = (
"443 337 LINE SMOOTH",
"422 337 OFFCURVE",
"415 389 OFFCURVE",
"437 389 CURVE SMOOTH",
"451 389 LINE",
"468 337 LINE"
);
},
{
closed = 1;
nodes = (
"120 464 LINE",
"126 485 OFFCURVE",
"132 507 OFFCURVE",
"138 528 CURVE",
"138 528 LINE",
"120 464 LINE"
);
},
{
closed = 1;
nodes = (
"87 345 LINE",
"93 366 OFFCURVE",
"99 388 OFFCURVE",
"105 409 CURVE",
"105 409 LINE",
"87 345 LINE"
);
},
{
closed = 1;
nodes = (
"144 543 LINE",
"150 563 OFFCURVE",
"156 584 OFFCURVE",
"162 604 CURVE",
"162 604 LINE",
"144 543 LINE"
);
},
{
closed = 1;
nodes = (
"119 456 LINE",
"125 476 OFFCURVE",
"131 497 OFFCURVE",
"137 517 CURVE",
"137 517 LINE",
"119 456 LINE"
);
},
{
closed = 1;
nodes = (
"387 548 OFFCURVE",
"387 548 OFFCURVE",
"387 548 CURVE SMOOTH",
"387 548 OFFCURVE",
"387 548 OFFCURVE",
"387 548 CURVE SMOOTH",
"387 548 OFFCURVE",
"387 548 OFFCURVE",
"387 548 CURVE SMOOTH",
"387 548 OFFCURVE",
"387 548 OFFCURVE",
"387 548 CURVE SMOOTH"
);
}
);
width = 575;
},
{
associatedMasterId = "B4EA0C51-6804-4423-9CCC-BF57B26265D1";
layerId = "2E07C9A4-81C5-4AAC-8649-544E431A0129";
name = "Jan 26 20, 17:13";
paths = (
{
closed = 1;
nodes = (
"231 637 LINE SMOOTH",
"269 742 OFFCURVE",
"477 749 OFFCURVE",
"504 634 CURVE SMOOTH",
"644 29 LINE SMOOTH",
"654 -13 OFFCURVE",
"584 -34 OFFCURVE",
"571 17 CURVE SMOOTH",
"537 150 LINE",
"161 136 LINE",
"79 4 LINE SMOOTH",
"58 -29 OFFCURVE",
"-4 -19 OFFCURVE",
"13 28 CURVE SMOOTH"
);
},
{
closed = 1;
nodes = (
"206 221 OFFCURVE",
"216 208 OFFCURVE",
"237 209 CURVE SMOOTH",
"498 218 LINE SMOOTH",
"512 219 OFFCURVE",
"518 232 OFFCURVE",
"515 247 CURVE SMOOTH",
"454 521 LINE SMOOTH",
"450 537 OFFCURVE",
"442 544 OFFCURVE",
"427 544 CURVE SMOOTH",
"411 544 OFFCURVE",
"392 530 OFFCURVE",
"378 507 CURVE SMOOTH",
"218 241 LINE SMOOTH"
);
}
);
width = 673;
},
{
associatedMasterId = "B4EA0C51-6804-4423-9CCC-BF57B26265D1";
layerId = "E355F57D-7864-462D-9ED1-E3A6FC41CED2";
name = "Jan 26 20, 17:14";
paths = (
{
closed = 1;
nodes = (
"235 634 LINE SMOOTH",
"272 735 OFFCURVE",
"435 747 OFFCURVE",
"472 619 CURVE SMOOTH",
"644 29 LINE SMOOTH",
"656 -13 OFFCURVE",
"586 -33 OFFCURVE",
"571 17 CURVE SMOOTH",
"530 150 LINE",
"176 145 LINE",
"79 4 LINE SMOOTH",
"57 -27 OFFCURVE",
"-4 -18 OFFCURVE",
"13 28 CURVE SMOOTH"
);
},
{
closed = 1;
nodes = (
"221 226 OFFCURVE",
"230 213 OFFCURVE",
"249 213 CURVE SMOOTH",
"491 218 LINE SMOOTH",
"505 218 OFFCURVE",
"513 232 OFFCURVE",
"508 247 CURVE SMOOTH",
"446 455 LINE SMOOTH",
"441 473 OFFCURVE",
"423 492 OFFCURVE",
"408 492 CURVE SMOOTH",
"391 492 OFFCURVE",
"374 483 OFFCURVE",
"361 462 CURVE SMOOTH",
"232 245 LINE SMOOTH"
);
}
);
width = 673;
},
{
associatedMasterId = "7390BA8A-CD54-46A0-980C-73781B2212BF";
layerId = "C7FFA424-AE16-4802-8870-2C12E909AD19";
name = "Feb 7 20, 14:07";
paths = (
{
closed = 1;
nodes = (
"454 427 LINE SMOOTH",
"448 445 OFFCURVE",
"431 464 OFFCURVE",
"416 464 CURVE SMOOTH",
"399 464 OFFCURVE",
"383 454 OFFCURVE",
"369 434 CURVE SMOOTH",
"81 4 LINE SMOOTH",
"60 -27 OFFCURVE",
"7 -18 OFFCURVE",
"23 28 CURVE SMOOTH",
"235 634 LINE SMOOTH",
"271 736 OFFCURVE",
"433 746 OFFCURVE",
"472 619 CURVE SMOOTH",
"654 29 LINE SMOOTH",
"667 -13 OFFCURVE",
"596 -33 OFFCURVE",
"581 17 CURVE SMOOTH"
);
},
{
closed = 1;
nodes = (
"97 103 LINE",
"142 162 LINE",
"555 180 LINE",
"574 118 LINE"
);
},
{
closed = 1;
nodes = (
"118 201 LINE",
"163 264 LINE",
"536 303 LINE",
"555 246 LINE"
);
},
{
closed = 1;
nodes = (
"244 424 LINE SMOOTH",
"266 415 OFFCURVE",
"287 462 OFFCURVE",
"265 471 CURVE SMOOTH",
"189 502 LINE",
"172 453 LINE"
);
},
{
closed = 1;
nodes = (
"289 514 LINE SMOOTH",
"311 505 OFFCURVE",
"332 553 OFFCURVE",
"310 562 CURVE SMOOTH",
"222 597 LINE",
"206 550 LINE"
);
}
);
width = 676;
},
{
layerId = "7390BA8A-CD54-46A0-980C-73781B2212BF";
paths = (
{
closed = 1;
nodes = (
"382 404 LINE SMOOTH",
"375 433 OFFCURVE",
"360 451 OFFCURVE",
"336 451 CURVE SMOOTH",
"315 451 OFFCURVE",
"295 434 OFFCURVE",
"285 411 CURVE SMOOTH",
"114 21 LINE SMOOTH",
"83 -49 OFFCURVE",
"-17 -22 OFFCURVE",
"9 64 CURVE SMOOTH",
"180 635 LINE SMOOTH",
"196 689 OFFCURVE",
"246 717 OFFCURVE",
"297 716 CURVE SMOOTH",
"346 715 OFFCURVE",
"390 686 OFFCURVE",
"404 627 CURVE SMOOTH",
"555 -29 LINE SMOOTH",
"565 -73 OFFCURVE",
"501 -88 OFFCURVE",
"489 -38 CURVE SMOOTH"
);
},
{
closed = 1;
nodes = (
"505 -6 LINE SMOOTH",
"482 -6 OFFCURVE",
"481 46 OFFCURVE",
"506 46 CURVE SMOOTH",
"514 46 LINE",
"528 -6 LINE"
);
},
{
closed = 1;
nodes = (
"142 136 LINE",
"158 188 LINE",
"476 189 LINE",
"496 136 LINE"
);
},
{
closed = 1;
nodes = (
"163 244 LINE",
"182 292 LINE",
"432 321 LINE SMOOTH",
"471 326 OFFCURVE",
"478 265 OFFCURVE",
"438 262 CURVE SMOOTH"
);
},
{
closed = 1;
nodes = (
"436 337 LINE SMOOTH",
"415 337 OFFCURVE",
"408 389 OFFCURVE",
"430 389 CURVE SMOOTH",
"444 389 LINE",
"461 337 LINE"
);
},
{
closed = 1;
nodes = (
"190 448 LINE SMOOTH",
"239 430 OFFCURVE",
"253 504 OFFCURVE",
"212 513 CURVE SMOOTH",
"147 527 LINE",
"131 469 LINE"
);
},
{
closed = 1;
nodes = (
"154 336 LINE SMOOTH",
"191 325 OFFCURVE",
"211 379 OFFCURVE",
"176 395 CURVE SMOOTH",
"116 423 LINE",
"96 353 LINE"
);
},
{
closed = 1;
nodes = (
"153 543 LINE",
"159 563 OFFCURVE",
"165 584 OFFCURVE",
"171 604 CURVE",
"171 604 LINE",
"153 543 LINE"
);
},
{
closed = 1;
nodes = (
"127 456 LINE",
"133 476 OFFCURVE",
"139 497 OFFCURVE",
"145 517 CURVE",
"145 517 LINE",
"127 456 LINE"
);
},
{
closed = 1;
nodes = (
"340 568 OFFCURVE",
"340 568 OFFCURVE",
"340 568 CURVE SMOOTH",
"340 568 OFFCURVE",
"340 568 OFFCURVE",
"340 568 CURVE SMOOTH",
"340 568 OFFCURVE",
"340 568 OFFCURVE",
"340 568 CURVE SMOOTH",
"340 568 OFFCURVE",
"340 568 OFFCURVE",
"340 568 CURVE SMOOTH"
);
}
);
width = 563;
},
{
associatedMasterId = "7390BA8A-CD54-46A0-980C-73781B2212BF";
layerId = "883311AA-C2DB-4EE5-8BFB-1600F1619F8E";
name = "Feb 7 20, 14:11";
paths = (
{
closed = 1;
nodes = (
"385 432 LINE SMOOTH",
"379 456 OFFCURVE",
"366 469 OFFCURVE",
"351 469 CURVE SMOOTH",
"337 469 OFFCURVE",
"322 459 OFFCURVE",
"317 439 CURVE SMOOTH",
"214 45 LINE SMOOTH",
"185 -65 OFFCURVE",
"-18 -33 OFFCURVE",
"20 105 CURVE SMOOTH",
"169 641 LINE SMOOTH",
"195 735 OFFCURVE",
"367 747 OFFCURVE",
"399 629 CURVE SMOOTH",
"559 29 LINE SMOOTH",
"570 -13 OFFCURVE",
"509 -33 OFFCURVE",
"496 17 CURVE SMOOTH"
);
},
{
closed = 1;
nodes = (
"152 131 LINE",
"188 180 LINE",
"477 182 LINE",
"497 133 LINE"
);
},
{
closed = 1;
nodes = (
"158 205 LINE",
"203 262 LINE",
"437 307 LINE SMOOTH",
"478 315 OFFCURVE",
"482 261 OFFCURVE",
"440 254 CURVE SMOOTH"
);
},
{
closed = 1;
nodes = (
"222 524 LINE SMOOTH",
"250 515 OFFCURVE",
"264 563 OFFCURVE",
"236 572 CURVE SMOOTH",
"157 597 LINE",
"144 550 LINE"
);
},
{
closed = 1;
nodes = (
"193 420 LINE SMOOTH",
"221 411 OFFCURVE",
"235 459 OFFCURVE",
"207 468 CURVE SMOOTH",
"128 493 LINE",
"115 446 LINE"
);
},
{
closed = 1;
nodes = (
"71 130 OFFCURVE",
"96 141 OFFCURVE",
"103 171 CURVE SMOOTH",
"113 208 OFFCURVE",
"99 236 OFFCURVE",
"59 245 CURVE",
"30 140 LINE"
);
},
{
closed = 1;
nodes = (
"471 608 LINE SMOOTH",
"510 619 OFFCURVE",
"526 559 OFFCURVE",
"487 549 CURVE SMOOTH",
"409 529 LINE",
"394 587 LINE"
);
},
{
closed = 1;
nodes = (
"502 495 LINE SMOOTH",
"540 505 OFFCURVE",
"556 446 OFFCURVE",
"518 436 CURVE SMOOTH",
"440 416 LINE",
"424 474 LINE"
);
}
);
width = 676;
},
{
associatedMasterId = "7390BA8A-CD54-46A0-980C-73781B2212BF";
layerId = "749E5A18-426B-429F-8156-C2698E3A5ED8";
name = "Feb 7 20, 14:17";
paths = (
{
closed = 1;
nodes = (
"491 275 OFFCURVE",
"485 262 OFFCURVE",
"468 259 CURVE SMOOTH",
"430 252 LINE",
"385 432 LINE SMOOTH",
"379 456 OFFCURVE",
"366 469 OFFCURVE",
"351 469 CURVE SMOOTH",
"336 469 OFFCURVE",
"320 453 OFFCURVE",
"310 435 CURVE SMOOTH",
"74 -5 LINE SMOOTH",
"50 -50 OFFCURVE",
"-18 -33 OFFCURVE",
"0 30 CURVE SMOOTH",
"169 641 LINE SMOOTH",
"195 735 OFFCURVE",
"368 748 OFFCURVE",
"399 629 CURVE SMOOTH",
"486 294 LINE SMOOTH"
);
},
{
closed = 1;
nodes = (
"122 131 LINE",
"158 180 LINE",
"477 182 LINE",
"497 133 LINE"
);
},
{
closed = 1;
nodes = (
"128 205 LINE",
"173 262 LINE",
"437 307 LINE SMOOTH",
"478 314 OFFCURVE",
"482 261 OFFCURVE",
"440 254 CURVE SMOOTH"
);
},
{
closed = 1;
nodes = (
"222 524 LINE SMOOTH",
"250 515 OFFCURVE",
"264 563 OFFCURVE",
"236 572 CURVE SMOOTH",
"157 597 LINE",
"144 550 LINE"
);
},
{
closed = 1;
nodes = (
"193 420 LINE SMOOTH",
"221 411 OFFCURVE",
"235 459 OFFCURVE",
"207 468 CURVE SMOOTH",
"128 493 LINE",
"115 446 LINE"
);
},
{
closed = 1;
nodes = (
"487 182 LINE SMOOTH",
"509 182 OFFCURVE",
"521 172 OFFCURVE",
"525 157 CURVE SMOOTH",
"559 29 LINE SMOOTH",
"570 -13 OFFCURVE",
"509 -33 OFFCURVE",
"496 17 CURVE SMOOTH",
"452 182 LINE"
);
}
);
width = 676;
},
{
associatedMasterId = "7390BA8A-CD54-46A0-980C-73781B2212BF";
layerId = "939F8AA7-B647-462A-80E4-6D0066194C9F";
name = "Feb 7 20, 14:17";
paths = (
{
closed = 1;
nodes = (
"385 432 LINE SMOOTH",
"379 456 OFFCURVE",
"366 469 OFFCURVE",
"351 469 CURVE SMOOTH",
"336 469 OFFCURVE",
"320 453 OFFCURVE",
"310 435 CURVE SMOOTH",
"74 -5 LINE SMOOTH",
"50 -50 OFFCURVE",
"-18 -33 OFFCURVE",
"0 30 CURVE SMOOTH",
"169 641 LINE SMOOTH",
"195 735 OFFCURVE",
"367 747 OFFCURVE",
"399 629 CURVE SMOOTH",
"559 29 LINE SMOOTH",
"570 -13 OFFCURVE",
"509 -33 OFFCURVE",
"496 17 CURVE SMOOTH"
);
},
{
closed = 1;
nodes = (
"122 131 LINE",
"158 180 LINE",
"477 182 LINE",
"497 133 LINE"
);
},
{
closed = 1;
nodes = (
"128 205 LINE",
"173 262 LINE",
"437 307 LINE SMOOTH",
"478 314 OFFCURVE",
"482 261 OFFCURVE",
"440 254 CURVE SMOOTH"
);
},
{
closed = 1;
nodes = (
"222 524 LINE SMOOTH",
"250 515 OFFCURVE",
"264 563 OFFCURVE",
"236 572 CURVE SMOOTH",
"157 597 LINE",
"144 550 LINE"
);
},
{
closed = 1;
nodes = (
"193 420 LINE SMOOTH",
"221 411 OFFCURVE",
"235 459 OFFCURVE",
"207 468 CURVE SMOOTH",
"128 493 LINE",
"115 446 LINE"
);
}
);
width = 676;
},
{
associatedMasterId = "7390BA8A-CD54-46A0-980C-73781B2212BF";
layerId = "E4E25FFD-2A2B-47BC-9191-C7CBB4DD4E02";
name = "Feb 7 20, 14:19";
paths = (
{
closed = 1;
nodes = (
"385 432 LINE SMOOTH",
"379 456 OFFCURVE",
"366 469 OFFCURVE",
"351 469 CURVE SMOOTH",
"337 469 OFFCURVE",
"322 459 OFFCURVE",
"317 439 CURVE SMOOTH",
"214 45 LINE SMOOTH",
"185 -65 OFFCURVE",
"-18 -33 OFFCURVE",
"20 105 CURVE SMOOTH",
"169 641 LINE SMOOTH",
"195 735 OFFCURVE",
"367 747 OFFCURVE",
"399 629 CURVE SMOOTH",
"559 29 LINE SMOOTH",
"570 -13 OFFCURVE",
"509 -33 OFFCURVE",
"496 17 CURVE SMOOTH"
);
},
{
closed = 1;
nodes = (
"152 131 LINE",
"188 180 LINE",
"477 182 LINE",
"497 133 LINE"
);
},
{
closed = 1;
nodes = (
"158 205 LINE",
"203 262 LINE",
"437 307 LINE SMOOTH",
"478 315 OFFCURVE",
"482 261 OFFCURVE",
"440 254 CURVE SMOOTH"
);
},
{
closed = 1;
nodes = (
"200 470 LINE SMOOTH",
"234 459 OFFCURVE",
"250 523 OFFCURVE",
"215 535 CURVE SMOOTH",
"146 558 LINE",
"128 494 LINE"
);
},
{
closed = 1;
nodes = (
"167 351 LINE SMOOTH",
"201 340 OFFCURVE",
"217 404 OFFCURVE",
"182 416 CURVE SMOOTH",
"113 439 LINE",
"95 375 LINE"
);
}
);
width = 676;
},
{
associatedMasterId = "7390BA8A-CD54-46A0-980C-73781B2212BF";
layerId = "051F1E9A-F896-4EF8-B92E-9256FF84447E";
name = "Feb 10 20, 16:35";
paths = (
{
closed = 1;
nodes = (
"385 432 LINE SMOOTH",
"379 456 OFFCURVE",
"367 469 OFFCURVE",
"351 469 CURVE SMOOTH",
"335 469 OFFCURVE",
"322 459 OFFCURVE",
"317 439 CURVE SMOOTH",
"214 45 LINE SMOOTH",
"185 -65 OFFCURVE",
"-18 -33 OFFCURVE",
"20 105 CURVE SMOOTH",
"167 635 LINE SMOOTH",
"182 689 OFFCURVE",
"233 717 OFFCURVE",
"284 716 CURVE SMOOTH",
"333 715 OFFCURVE",
"383 686 OFFCURVE",
"399 627 CURVE SMOOTH",
"559 30 LINE SMOOTH",
"571 -14 OFFCURVE",
"508 -31 OFFCURVE",
"495 19 CURVE SMOOTH"
);
},
{
closed = 1;
nodes = (
"520 52 LINE SMOOTH",
"497 52 OFFCURVE",
"496 104 OFFCURVE",
"521 104 CURVE SMOOTH",
"529 104 LINE",
"543 52 LINE"
);
},
{
closed = 1;
nodes = (
"172 131 LINE",
"188 183 LINE",
"476 184 LINE",
"496 131 LINE"
);
},
{
closed = 1;
nodes = (
"193 239 LINE",
"212 293 LINE",
"437 307 LINE SMOOTH",
"476 309 OFFCURVE",
"483 255 OFFCURVE",
"443 253 CURVE SMOOTH"
);
},
{
closed = 1;
nodes = (
"443 337 LINE SMOOTH",
"422 337 OFFCURVE",
"415 389 OFFCURVE",
"437 389 CURVE SMOOTH",
"451 389 LINE",
"468 337 LINE"
);
},
{
closed = 1;
nodes = (
"192 444 LINE SMOOTH",
"226 435 OFFCURVE",
"242 499 OFFCURVE",
"207 509 CURVE SMOOTH",
"138 528 LINE",
"120 464 LINE"
);
},
{
closed = 1;
nodes = (
"157 326 LINE SMOOTH",
"191 317 OFFCURVE",
"211 381 OFFCURVE",
"172 391 CURVE SMOOTH",
"105 409 LINE",
"87 345 LINE"
);
},
{
closed = 1;
nodes = (
"144 543 LINE",
"150 563 OFFCURVE",
"156 584 OFFCURVE",
"162 604 CURVE",
"162 604 LINE",
"144 543 LINE"
);
},
{
closed = 1;
nodes = (
"119 456 LINE",
"125 476 OFFCURVE",
"131 497 OFFCURVE",
"137 517 CURVE",
"137 517 LINE",
"119 456 LINE"
);
},
{
closed = 1;
nodes = (
"387 548 OFFCURVE",
"387 548 OFFCURVE",
"387 548 CURVE SMOOTH",
"387 548 OFFCURVE",
"387 548 OFFCURVE",
"387 548 CURVE SMOOTH",
"387 548 OFFCURVE",
"387 548 OFFCURVE",
"387 548 CURVE SMOOTH",
"387 548 OFFCURVE",
"387 548 OFFCURVE",
"387 548 CURVE SMOOTH"
);
}
);
width = 575;
}
);
unicode = 0041;
},
{
glyphname = B;
lastChange = "2020-02-18 22:35:24 +0000";
layers = (
{
layerId = "B4EA0C51-6804-4423-9CCC-BF57B26265D1";
paths = (
{
closed = 1;
nodes = (
"34 32 OFFCURVE",
"70 0 OFFCURVE",
"136 0 CURVE SMOOTH",
"176 0 OFFCURVE",
"217 0 OFFCURVE",
"257 0 CURVE SMOOTH",
"401 0 OFFCURVE",
"483 72 OFFCURVE",
"483 206 CURVE SMOOTH",
"483 318 OFFCURVE",
"408 372 OFFCURVE",
"344 380 CURVE SMOOTH",
"327 382 OFFCURVE",
"326 396 OFFCURVE",
"344 402 CURVE SMOOTH",
"390 417 OFFCURVE",
"440 466 OFFCURVE",
"440 546 CURVE SMOOTH",
"440 661 OFFCURVE",
"353 705 OFFCURVE",
"267 705 CURVE SMOOTH",
"136 705 LINE SMOOTH",
"80 705 OFFCURVE",
"40 679 OFFCURVE",
"39 613 CURVE SMOOTH",
"35 97 LINE SMOOTH"
);
},
{
closed = 1;
nodes = (
"339 646 OFFCURVE",
"374 610 OFFCURVE",
"374 546 CURVE SMOOTH",
"374 467 OFFCURVE",
"313 406 OFFCURVE",
"245 406 CURVE SMOOTH",
"221 406 OFFCURVE",
"212 420 OFFCURVE",
"212 441 CURVE SMOOTH",
"212 608 LINE SMOOTH",
"212 640 OFFCURVE",
"229 646 OFFCURVE",
"271 646 CURVE SMOOTH"
);
},
{
closed = 1;
nodes = (
"212 318 LINE SMOOTH",
"212 338 OFFCURVE",
"221 351 OFFCURVE",
"245 351 CURVE SMOOTH",
"370 351 OFFCURVE",
"418 304 OFFCURVE",
"418 206 CURVE SMOOTH",
"418 100 OFFCURVE",
"353 63 OFFCURVE",
"271 63 CURVE SMOOTH",
"227 63 OFFCURVE",
"212 72 OFFCURVE",
"212 122 CURVE SMOOTH"
);
},
{
closed = 1;
nodes = (
"451 153 OFFCURVE",
"451 153 OFFCURVE",
"451 153 CURVE SMOOTH",
"451 153 OFFCURVE",
"451 153 OFFCURVE",
"451 153 CURVE SMOOTH",
"451 153 OFFCURVE",
"451 153 OFFCURVE",
"451 153 CURVE SMOOTH",
"451 153 OFFCURVE",
"451 153 OFFCURVE",
"451 153 CURVE SMOOTH"
);
},
{
closed = 1;
nodes = (
"445 250 OFFCURVE",
"445 250 OFFCURVE",
"445 250 CURVE SMOOTH",
"445 250 OFFCURVE",
"445 250 OFFCURVE",
"445 250 CURVE SMOOTH",
"445 250 OFFCURVE",
"445 250 OFFCURVE",
"445 250 CURVE SMOOTH",
"445 250 OFFCURVE",
"445 250 OFFCURVE",
"445 250 CURVE SMOOTH"
);
},
{
closed = 1;
nodes = (
"426 131 OFFCURVE",
"426 131 OFFCURVE",
"426 131 CURVE SMOOTH",
"426 131 OFFCURVE",
"426 131 OFFCURVE",
"426 131 CURVE SMOOTH",
"426 131 OFFCURVE",
"426 131 OFFCURVE",
"426 131 CURVE SMOOTH",
"426 131 OFFCURVE",
"426 131 OFFCURVE",
"426 131 CURVE SMOOTH"
);
},
{
closed = 1;
nodes = (
"178 711 OFFCURVE",
"96 697 OFFCURVE",
"106 660 CURVE SMOOTH",
"114 629 LINE",
"167 640 LINE",
"172 671 LINE SMOOTH"
);
},
{
closed = 1;
nodes = (
"318 702 OFFCURVE",
"243 709 OFFCURVE",
"247 673 CURVE SMOOTH",
"249 656 LINE",
"303 652 LINE",
"307 665 LINE SMOOTH"
);
},
{
closed = 1;
nodes = (
"437 609 OFFCURVE",
"393 671 OFFCURVE",
"367 638 CURVE SMOOTH",
"359 628 LINE",
"390 586 LINE",
"402 592 LINE SMOOTH"
);
},
{
closed = 1;
nodes = (
"405 456 OFFCURVE",
"444 511 OFFCURVE",
"400 524 CURVE SMOOTH",
"390 527 LINE",
"367 473 LINE",
"378 468 LINE SMOOTH"
);
}
);
width = 544;
},
{
layerId = "7390BA8A-CD54-46A0-980C-73781B2212BF";
paths = (
{
closed = 1;
nodes = (
"89 21 OFFCURVE",
"126 -9 OFFCURVE",
"231 -12 CURVE SMOOTH",
"236 -12 OFFCURVE",
"242 -12 OFFCURVE",
"248 -12 CURVE SMOOTH",
"415 -12 OFFCURVE",
"537 66 OFFCURVE",
"537 214 CURVE SMOOTH",
"537 342 OFFCURVE",
"449 390 OFFCURVE",
"365 405 CURVE SMOOTH",
"348 408 OFFCURVE",
"347 417 OFFCURVE",
"361 425 CURVE SMOOTH",
"400 446 OFFCURVE",
"430 471 OFFCURVE",
"430 516 CURVE SMOOTH",
"430 612 OFFCURVE",
"358 659 OFFCURVE",
"267 651 CURVE SMOOTH",
"138 639 LINE SMOOTH",
"80 634 OFFCURVE",
"47 612 OFFCURVE",
"49 545 CURVE SMOOTH",
"85 115 LINE SMOOTH"
);
},
{
closed = 1;
nodes = (
"331 599 OFFCURVE",
"359 576 OFFCURVE",
"359 532 CURVE SMOOTH",
"359 490 OFFCURVE",
"343 451 OFFCURVE",
"277 420 CURVE SMOOTH",
"233 400 OFFCURVE",
"200 410 OFFCURVE",
"205 445 CURVE SMOOTH",
"219 534 LINE SMOOTH",
"224 567 OFFCURVE",
"235 586 OFFCURVE",
"266 590 CURVE SMOOTH"
);
},
{
closed = 1;
nodes = (
"152 166 LINE SMOOTH",
"152 307 OFFCURVE",
"230 357 OFFCURVE",
"301 357 CURVE SMOOTH",
"361 357 OFFCURVE",
"416 295 OFFCURVE",
"335 188 CURVE SMOOTH",
"248 73 OFFCURVE",
"220 56 OFFCURVE",
"187 56 CURVE SMOOTH",
"173 56 OFFCURVE",
"152 66 OFFCURVE",
"152 126 CURVE SMOOTH"
);
},
{
closed = 1;
nodes = (
"435 201 OFFCURVE",
"420 216 OFFCURVE",
"420 233 CURVE SMOOTH",
"420 250 OFFCURVE",
"435 265 OFFCURVE",
"452 265 CURVE SMOOTH",
"469 265 OFFCURVE",
"484 250 OFFCURVE",
"484 233 CURVE SMOOTH",
"484 216 OFFCURVE",
"469 201 OFFCURVE",
"452 201 CURVE SMOOTH"
);
},
{
closed = 1;
nodes = (
"399 109 OFFCURVE",
"383 125 OFFCURVE",
"383 146 CURVE SMOOTH",
"383 166 OFFCURVE",
"399 182 OFFCURVE",
"421 182 CURVE SMOOTH",
"442 182 OFFCURVE",
"458 166 OFFCURVE",
"458 146 CURVE SMOOTH",
"458 125 OFFCURVE",
"442 109 OFFCURVE",
"421 109 CURVE SMOOTH"
);
},
{
closed = 1;
nodes = (
"335 48 OFFCURVE",
"320 63 OFFCURVE",
"320 80 CURVE SMOOTH",
"320 97 OFFCURVE",
"335 112 OFFCURVE",
"352 112 CURVE SMOOTH",
"369 112 OFFCURVE",
"384 97 OFFCURVE",
"384 80 CURVE SMOOTH",
"384 63 OFFCURVE",
"369 48 OFFCURVE",
"352 48 CURVE SMOOTH"
);
},
{
closed = 1;
nodes = (
"161 754 OFFCURVE",
"90 741 OFFCURVE",
"97 703 CURVE SMOOTH",
"114 611 LINE",
"167 622 LINE",
"163 714 LINE SMOOTH"
);
},
{
closed = 1;
nodes = (
"325 750 OFFCURVE",
"253 758 OFFCURVE",
"251 722 CURVE SMOOTH",
"245 633 LINE",
"299 629 LINE",
"317 712 LINE SMOOTH"
);
},
{
closed = 1;
nodes = (
"501 654 OFFCURVE",
"457 712 OFFCURVE",
"425 682 CURVE SMOOTH",
"358 618 LINE",
"389 576 LINE",
"470 632 LINE SMOOTH"
);
},
{
closed = 1;
nodes = (
"501 437 OFFCURVE",
"523 505 OFFCURVE",
"478 513 CURVE SMOOTH",
"416 524 LINE",
"393 470 LINE",
"472 446 LINE SMOOTH"
);
}
);
width = 571;
},
{
associatedMasterId = "B4EA0C51-6804-4423-9CCC-BF57B26265D1";
layerId = "6E180AB7-3A23-4DFE-AB14-F4986EE634AD";
name = "Feb 17 20, 14:50";
paths = (
{
closed = 1;
nodes = (
"34 21 OFFCURVE",
"84 -6 OFFCURVE",
"247 -6 CURVE SMOOTH",
"411 -6 OFFCURVE",
"522 70 OFFCURVE",
"522 214 CURVE SMOOTH",
"522 340 OFFCURVE",
"441 388 OFFCURVE",
"364 402 CURVE SMOOTH",
"347 405 OFFCURVE",
"346 413 OFFCURVE",
"364 424 CURVE SMOOTH",
"410 454 OFFCURVE",
"465 491 OFFCURVE",
"465 562 CURVE SMOOTH",
"465 665 OFFCURVE",
"355 705 OFFCURVE",
"241 705 CURVE SMOOTH",
"173 705 LINE SMOOTH",
"101 705 OFFCURVE",
"39 676 OFFCURVE",
"39 613 CURVE SMOOTH",
"35 115 LINE SMOOTH"
);
},
{
closed = 1;
nodes = (
"360 646 OFFCURVE",
"394 617 OFFCURVE",
"394 566 CURVE SMOOTH",
"394 494 OFFCURVE",
"357 448 OFFCURVE",
"303 431 CURVE SMOOTH",
"255 416 OFFCURVE",
"232 421 OFFCURVE",
"232 467 CURVE SMOOTH",
"232 595 LINE SMOOTH",
"232 635 OFFCURVE",
"250 646 OFFCURVE",
"293 646 CURVE SMOOTH"
);
},
{
closed = 1;
nodes = (
"102 244 LINE SMOOTH",
"102 312 OFFCURVE",
"161 368 OFFCURVE",
"264 368 CURVE SMOOTH",
"312 368 OFFCURVE",
"357 326 OFFCURVE",
"295 197 CURVE SMOOTH",
"238 79 OFFCURVE",
"207 57 OFFCURVE",
"169 57 CURVE SMOOTH",
"127 57 OFFCURVE",
"102 67 OFFCURVE",
"102 126 CURVE SMOOTH"
);
},
{
closed = 1;
nodes = (
"353 227 OFFCURVE",
"353 227 OFFCURVE",
"353 227 CURVE SMOOTH",
"353 227 OFFCURVE",
"353 227 OFFCURVE",
"353 227 CURVE SMOOTH",
"353 227 OFFCURVE",
"353 227 OFFCURVE",
"353 227 CURVE SMOOTH",
"353 227 OFFCURVE",
"353 227 OFFCURVE",
"353 227 CURVE SMOOTH"
);
},
{
closed = 1;
nodes = (
"445 250 OFFCURVE",
"445 250 OFFCURVE",
"445 250 CURVE SMOOTH",
"445 250 OFFCURVE",
"445 250 OFFCURVE",
"445 250 CURVE SMOOTH",
"445 250 OFFCURVE",
"445 250 OFFCURVE",
"445 250 CURVE SMOOTH",
"445 250 OFFCURVE",
"445 250 OFFCURVE",
"445 250 CURVE SMOOTH"
);
},
{
closed = 1;
nodes = (
"426 131 OFFCURVE",
"426 131 OFFCURVE",
"426 131 CURVE SMOOTH",
"426 131 OFFCURVE",
"426 131 OFFCURVE",
"426 131 CURVE SMOOTH",
"426 131 OFFCURVE",
"426 131 OFFCURVE",
"426 131 CURVE SMOOTH",
"426 131 OFFCURVE",
"426 131 OFFCURVE",
"426 131 CURVE SMOOTH"
);
},
{
closed = 1;
nodes = (
"178 693 OFFCURVE",
"96 679 OFFCURVE",
"106 642 CURVE SMOOTH",
"114 611 LINE",
"167 622 LINE",
"172 653 LINE SMOOTH"
);
},
{
closed = 1;
nodes = (
"318 702 OFFCURVE",
"243 709 OFFCURVE",
"247 673 CURVE SMOOTH",
"249 656 LINE",
"303 652 LINE",
"307 665 LINE SMOOTH"
);
},
{
closed = 1;
nodes = (
"455 618 OFFCURVE",
"411 680 OFFCURVE",
"385 647 CURVE SMOOTH",
"377 637 LINE",
"408 595 LINE",
"420 601 LINE SMOOTH"
);
},
{
closed = 1;
nodes = (
"415 453 OFFCURVE",
"454 508 OFFCURVE",
"410 521 CURVE SMOOTH",
"400 524 LINE",
"377 470 LINE",
"388 465 LINE SMOOTH"
);
}
);
width = 544;
},
{
associatedMasterId = "B4EA0C51-6804-4423-9CCC-BF57B26265D1";
layerId = "022F7BDB-080C-4ADF-9E1C-B89D11245EBC";
name = "Feb 18 20, 14:28";
paths = (
{
closed = 1;
nodes = (
"34 21 OFFCURVE",
"84 -6 OFFCURVE",
"247 -6 CURVE SMOOTH",
"411 -6 OFFCURVE",
"522 70 OFFCURVE",
"522 214 CURVE SMOOTH",
"522 340 OFFCURVE",
"441 388 OFFCURVE",
"364 402 CURVE SMOOTH",
"347 405 OFFCURVE",
"346 413 OFFCURVE",
"364 424 CURVE SMOOTH",
"410 454 OFFCURVE",
"465 491 OFFCURVE",
"465 562 CURVE SMOOTH",
"465 665 OFFCURVE",
"355 705 OFFCURVE",
"241 705 CURVE SMOOTH",
"176 705 LINE SMOOTH",
"97 705 OFFCURVE",
"40 676 OFFCURVE",
"39 603 CURVE SMOOTH",
"35 115 LINE SMOOTH"
);
},
{
closed = 1;
nodes = (
"359 646 OFFCURVE",
"394 617 OFFCURVE",
"394 566 CURVE SMOOTH",
"394 485 OFFCURVE",
"339 423 OFFCURVE",
"265 423 CURVE SMOOTH",
"243 423 OFFCURVE",
"232 436 OFFCURVE",
"232 460 CURVE SMOOTH",
"232 608 LINE SMOOTH",
"232 640 OFFCURVE",
"249 646 OFFCURVE",
"291 646 CURVE SMOOTH"
);
},
{
closed = 1;
nodes = (
"102 312 LINE SMOOTH",
"102 343 OFFCURVE",
"120 368 OFFCURVE",
"201 368 CURVE SMOOTH",
"307 368 OFFCURVE",
"327 341 OFFCURVE",
"327 197 CURVE SMOOTH",
"327 84 OFFCURVE",
"294 57 OFFCURVE",
"201 57 CURVE SMOOTH",
"127 57 OFFCURVE",
"102 67 OFFCURVE",
"102 126 CURVE SMOOTH"
);
},
{
closed = 1;
nodes = (
"353 227 OFFCURVE",
"353 227 OFFCURVE",
"353 227 CURVE SMOOTH",
"353 227 OFFCURVE",
"353 227 OFFCURVE",
"353 227 CURVE SMOOTH",
"353 227 OFFCURVE",
"353 227 OFFCURVE",
"353 227 CURVE SMOOTH",
"353 227 OFFCURVE",
"353 227 OFFCURVE",
"353 227 CURVE SMOOTH"
);
},
{
closed = 1;
nodes = (
"445 250 OFFCURVE",
"445 250 OFFCURVE",
"445 250 CURVE SMOOTH",
"445 250 OFFCURVE",
"445 250 OFFCURVE",
"445 250 CURVE SMOOTH",
"445 250 OFFCURVE",
"445 250 OFFCURVE",
"445 250 CURVE SMOOTH",
"445 250 OFFCURVE",
"445 250 OFFCURVE",
"445 250 CURVE SMOOTH"
);
},
{
closed = 1;
nodes = (
"426 131 OFFCURVE",
"426 131 OFFCURVE",
"426 131 CURVE SMOOTH",
"426 131 OFFCURVE",
"426 131 OFFCURVE",
"426 131 CURVE SMOOTH",
"426 131 OFFCURVE",
"426 131 OFFCURVE",
"426 131 CURVE SMOOTH",
"426 131 OFFCURVE",
"426 131 OFFCURVE",
"426 131 CURVE SMOOTH"
);
},
{
closed = 1;
nodes = (
"178 693 OFFCURVE",
"96 679 OFFCURVE",
"106 642 CURVE SMOOTH",
"114 611 LINE",
"167 622 LINE",
"172 653 LINE SMOOTH"
);
},
{
closed = 1;
nodes = (
"318 702 OFFCURVE",
"243 709 OFFCURVE",
"247 673 CURVE SMOOTH",
"249 656 LINE",
"303 652 LINE",
"307 665 LINE SMOOTH"
);
},
{
closed = 1;
nodes = (
"455 618 OFFCURVE",
"411 680 OFFCURVE",
"385 647 CURVE SMOOTH",
"377 637 LINE",
"408 595 LINE",
"420 601 LINE SMOOTH"
);
},
{
closed = 1;
nodes = (
"415 453 OFFCURVE",
"454 508 OFFCURVE",
"410 521 CURVE SMOOTH",
"400 524 LINE",
"377 470 LINE",
"388 465 LINE SMOOTH"
);
}
);
width = 544;
},
{
associatedMasterId = "B4EA0C51-6804-4423-9CCC-BF57B26265D1";
layerId = "6FC2E869-12B5-4851-871B-01BCCFA2DD8D";
name = "Feb 18 20, 14:28";
paths = (
{
closed = 1;
nodes = (
"34 32 OFFCURVE",
"70 0 OFFCURVE",
"136 0 CURVE SMOOTH",
"257 0 LINE SMOOTH",
"401 0 OFFCURVE",
"483 72 OFFCURVE",
"483 206 CURVE SMOOTH",
"483 318 OFFCURVE",
"408 372 OFFCURVE",
"344 380 CURVE SMOOTH",
"327 382 OFFCURVE",
"326 396 OFFCURVE",
"344 402 CURVE SMOOTH",
"390 417 OFFCURVE",
"440 466 OFFCURVE",
"440 546 CURVE SMOOTH",
"440 661 OFFCURVE",
"353 705 OFFCURVE",
"267 705 CURVE SMOOTH",
"136 705 LINE SMOOTH",
"80 705 OFFCURVE",
"40 679 OFFCURVE",
"39 613 CURVE SMOOTH",
"35 97 LINE SMOOTH"
);
},
{
closed = 1;
nodes = (
"339 646 OFFCURVE",
"374 610 OFFCURVE",
"374 546 CURVE SMOOTH",
"374 467 OFFCURVE",
"313 406 OFFCURVE",
"245 406 CURVE SMOOTH",
"221 406 OFFCURVE",
"212 420 OFFCURVE",
"212 441 CURVE SMOOTH",
"212 608 LINE SMOOTH",
"212 640 OFFCURVE",
"229 646 OFFCURVE",
"271 646 CURVE SMOOTH"
);
},
{
closed = 1;
nodes = (
"212 318 LINE SMOOTH",
"212 338 OFFCURVE",
"221 351 OFFCURVE",
"245 351 CURVE SMOOTH",
"370 351 OFFCURVE",
"418 304 OFFCURVE",
"418 206 CURVE SMOOTH",
"418 100 OFFCURVE",
"353 63 OFFCURVE",
"271 63 CURVE SMOOTH",
"227 63 OFFCURVE",
"212 72 OFFCURVE",
"212 122 CURVE SMOOTH"
);
}
);
width = 524;
}
);
unicode = 0042;
},
{
glyphname = C;
lastChange = "2020-02-18 21:59:08 +0000";
layers = (
{
layerId = "B4EA0C51-6804-4423-9CCC-BF57B26265D1";
paths = (
{
closed = 1;
nodes = (
"25 107 OFFCURVE",
"140 -12 OFFCURVE",
"300 -12 CURVE SMOOTH",
"375 -12 OFFCURVE",
"420 4 OFFCURVE",
"445 20 CURVE SMOOTH",
"509 61 OFFCURVE",
"478 197 OFFCURVE",
"416 197 CURVE SMOOTH",
"376 197 OFFCURVE",
"343 177 OFFCURVE",
"270 177 CURVE SMOOTH",
"154 177 OFFCURVE",
"83 229 OFFCURVE",
"83 350 CURVE SMOOTH",
"83 471 OFFCURVE",
"154 523 OFFCURVE",
"270 523 CURVE SMOOTH",
"343 523 OFFCURVE",
"376 503 OFFCURVE",
"416 503 CURVE SMOOTH",
"478 503 OFFCURVE",
"509 639 OFFCURVE",
"445 680 CURVE SMOOTH",
"420 696 OFFCURVE",
"375 712 OFFCURVE",
"300 712 CURVE SMOOTH",
"140 712 OFFCURVE",
"25 593 OFFCURVE",
"25 350 CURVE SMOOTH"
);
},
{
closed = 1;
nodes = (
"95 191 OFFCURVE",
"106 202 OFFCURVE",
"106 218 CURVE SMOOTH",
"106 232 OFFCURVE",
"95 243 OFFCURVE",
"81 243 CURVE SMOOTH",
"65 243 OFFCURVE",
"54 232 OFFCURVE",
"54 218 CURVE SMOOTH",
"54 202 OFFCURVE",
"65 191 OFFCURVE",
"81 191 CURVE SMOOTH"
);
},
{
closed = 1;
nodes = (
"203 183 OFFCURVE",
"189 186 OFFCURVE",
"174 190 CURVE",
"174 190 LINE",
"189 186 OFFCURVE",
"203 183 OFFCURVE",
"218 179 CURVE",
"218 179 LINE"
);
},
{
closed = 1;
nodes = (
"297 177 OFFCURVE",
"279 176 OFFCURVE",
"262 175 CURVE",
"262 175 LINE",
"279 176 OFFCURVE",
"297 177 OFFCURVE",
"314 178 CURVE",
"314 178 LINE"
);
},
{
closed = 1;
nodes = (
"398 203 OFFCURVE",
"359 168 OFFCURVE",
"379 138 CURVE SMOOTH",
"417 80 LINE SMOOTH",
"430 60 OFFCURVE",
"468 85 OFFCURVE",
"456 105 CURVE SMOOTH",
"417 171 LINE SMOOTH"
);
},
{
closed = 1;
nodes = (
"400 115 OFFCURVE",
"375 109 OFFCURVE",
"380 83 CURVE SMOOTH",
"383 68 LINE SMOOTH",
"386 53 OFFCURVE",
"411 60 OFFCURVE",
"407 78 CURVE SMOOTH",
"405 88 LINE SMOOTH"
);
}
);
width = 500;
},
{
layerId = "7390BA8A-CD54-46A0-980C-73781B2212BF";
paths = (
{
closed = 1;
nodes = (
"40 103 OFFCURVE",
"142 -12 OFFCURVE",
"285 -12 CURVE SMOOTH",
"361 -12 OFFCURVE",
"412 13 OFFCURVE",
"443 46 CURVE SMOOTH",
"497 103 OFFCURVE",
"468 217 OFFCURVE",
"401 217 CURVE SMOOTH",
"361 217 OFFCURVE",
"328 197 OFFCURVE",
"255 197 CURVE SMOOTH",
"158 197 OFFCURVE",
"98 238 OFFCURVE",
"98 327 CURVE SMOOTH",
"98 457 OFFCURVE",
"219 584 OFFCURVE",
"347 584 CURVE SMOOTH",
"398 584 OFFCURVE",
"448 563 OFFCURVE",
"475 563 CURVE SMOOTH",
"515 563 OFFCURVE",
"527 619 OFFCURVE",
"503 654 CURVE SMOOTH",
"480 688 OFFCURVE",
"418 711 OFFCURVE",
"361 711 CURVE SMOOTH",
"206 711 OFFCURVE",
"40 540 OFFCURVE",
"40 295 CURVE SMOOTH"
);
},
{
closed = 1;
nodes = (
"313 353 OFFCURVE",
"337 377 OFFCURVE",
"337 408 CURVE SMOOTH",
"337 437 OFFCURVE",
"313 461 OFFCURVE",
"284 461 CURVE SMOOTH",
"253 461 OFFCURVE",
"229 437 OFFCURVE",
"229 408 CURVE SMOOTH",
"229 377 OFFCURVE",
"253 353 OFFCURVE",
"284 353 CURVE SMOOTH"
);
},
{
closed = 1;
nodes = (
"223 89 OFFCURVE",
"167 90 OFFCURVE",
"174 129 CURVE SMOOTH",
"188 205 LINE",
"201 201 OFFCURVE",
"217 198 OFFCURVE",
"235 197 CURVE",
"227 122 LINE SMOOTH"
);
},
{
closed = 1;
nodes = (
"345 51 OFFCURVE",
"304 40 OFFCURVE",
"297 75 CURVE SMOOTH",
"274 197 LINE",
"294 198 OFFCURVE",
"312 200 OFFCURVE",
"328 204 CURVE",
"342 80 LINE SMOOTH"
);
},
{
closed = 1;
nodes = (
"136 738 OFFCURVE",
"67 692 OFFCURVE",
"101 649 CURVE SMOOTH",
"164 568 LINE SMOOTH",
"188 537 OFFCURVE",
"218 571 OFFCURVE",
"204 600 CURVE SMOOTH",
"158 693 LINE SMOOTH"
);
},
{
closed = 1;
nodes = (
"323 817 OFFCURVE",
"262 798 OFFCURVE",
"270 757 CURVE SMOOTH",
"317 528 LINE SMOOTH",
"324 492 OFFCURVE",
"371 505 OFFCURVE",
"366 537 CURVE SMOOTH",
"331 767 LINE SMOOTH"
);
}
);
width = 533;
},
{
associatedMasterId = "7390BA8A-CD54-46A0-980C-73781B2212BF";
layerId = "DF8A5667-B255-43F1-8080-B2D668A9806C";
name = "Feb 10 20, 18:37";
paths = (
{
closed = 1;
nodes = (
"98 487 OFFCURVE",
"208 523 OFFCURVE",
"301 523 CURVE SMOOTH",
"369 523 OFFCURVE",
"421 514 OFFCURVE",
"452 504 CURVE SMOOTH",
"477 496 OFFCURVE",
"495 521 OFFCURVE",
"490 549 CURVE SMOOTH",
"469 661 OFFCURVE",
"388 712 OFFCURVE",
"304 712 CURVE SMOOTH",
"166 712 OFFCURVE",
"40 593 OFFCURVE",
"40 350 CURVE SMOOTH",
"40 107 OFFCURVE",
"166 -12 OFFCURVE",
"304 -12 CURVE SMOOTH",
"392 -12 OFFCURVE",
"479 42 OFFCURVE",
"499 146 CURVE SMOOTH",
"505 180 OFFCURVE",
"488 203 OFFCURVE",
"458 194 CURVE SMOOTH",
"429 185 OFFCURVE",
"376 177 OFFCURVE",
"301 177 CURVE SMOOTH",
"208 177 OFFCURVE",
"98 213 OFFCURVE",
"98 350 CURVE SMOOTH"
);
}
);
width = 525;
},
{
associatedMasterId = "7390BA8A-CD54-46A0-980C-73781B2212BF";
layerId = "C5F50030-8515-4B9A-A179-38544D651691";
name = "Feb 11 20, 13:57";
paths = (
{
closed = 1;
nodes = (
"48 85 OFFCURVE",
"183 -12 OFFCURVE",
"316 -12 CURVE SMOOTH",
"387 -12 OFFCURVE",
"436 12 OFFCURVE",
"464 46 CURVE SMOOTH",
"508 99 OFFCURVE",
"478 197 OFFCURVE",
"422 197 CURVE SMOOTH",
"385 197 OFFCURVE",
"354 177 OFFCURVE",
"286 177 CURVE SMOOTH",
"171 177 OFFCURVE",
"107 210 OFFCURVE",
"107 313 CURVE SMOOTH",
"107 422 OFFCURVE",
"202 523 OFFCURVE",
"319 523 CURVE SMOOTH",
"375 523 OFFCURVE",
"406 503 OFFCURVE",
"444 503 CURVE SMOOTH",
"513 503 OFFCURVE",
"542 601 OFFCURVE",
"493 659 CURVE SMOOTH",
"465 692 OFFCURVE",
"410 712 OFFCURVE",
"361 712 CURVE SMOOTH",
"189 712 OFFCURVE",
"48 545 OFFCURVE",
"48 313 CURVE SMOOTH"
);
},
{
closed = 1;
nodes = (
"283 46 OFFCURVE",
"267 62 OFFCURVE",
"267 82 CURVE SMOOTH",
"267 102 OFFCURVE",
"283 118 OFFCURVE",
"303 118 CURVE SMOOTH",
"323 118 OFFCURVE",
"339 102 OFFCURVE",
"339 82 CURVE SMOOTH",
"339 62 OFFCURVE",
"323 46 OFFCURVE",
"303 46 CURVE SMOOTH"
);
},
{
closed = 1;
nodes = (
"376 79 OFFCURVE",
"364 91 OFFCURVE",
"364 107 CURVE SMOOTH",
"364 123 OFFCURVE",
"376 136 OFFCURVE",
"392 136 CURVE SMOOTH",
"409 136 OFFCURVE",
"421 123 OFFCURVE",
"421 107 CURVE SMOOTH",
"421 91 OFFCURVE",
"409 79 OFFCURVE",
"392 79 CURVE SMOOTH"
);
},
{
closed = 1;
nodes = (
"196 79 OFFCURVE",
"184 91 OFFCURVE",
"184 107 CURVE SMOOTH",
"184 123 OFFCURVE",
"196 136 OFFCURVE",
"213 136 CURVE SMOOTH",
"229 136 OFFCURVE",
"241 123 OFFCURVE",
"241 107 CURVE SMOOTH",
"241 91 OFFCURVE",
"229 79 OFFCURVE",
"213 79 CURVE SMOOTH"
);
},
{
closed = 1;
nodes = (
"342 590 OFFCURVE",
"286 590 OFFCURVE",
"288 632 CURVE SMOOTH",
"291 702 LINE",
"303 705 OFFCURVE",
"320 709 OFFCURVE",
"338 710 CURVE",
"341 625 LINE SMOOTH"
);
},
{
closed = 1;
nodes = (
"424 576 OFFCURVE",
"380 576 OFFCURVE",
"382 615 CURVE SMOOTH",
"386 710 LINE",
"402 708 OFFCURVE",
"426 701 OFFCURVE",
"440 695 CURVE",
"428 608 LINE SMOOTH"
);
}
);
width = 525;
},
{
associatedMasterId = "7390BA8A-CD54-46A0-980C-73781B2212BF";
layerId = "3936F2C9-5849-4278-ABA9-25C17897E92D";
name = "Feb 11 20, 14:07";
paths = (
{
closed = 1;
nodes = (
"40 110 OFFCURVE",
"155 -12 OFFCURVE",
"315 -12 CURVE SMOOTH",
"391 -12 OFFCURVE",
"442 13 OFFCURVE",
"473 46 CURVE SMOOTH",
"527 103 OFFCURVE",
"498 217 OFFCURVE",
"431 217 CURVE SMOOTH",
"391 217 OFFCURVE",
"358 197 OFFCURVE",
"285 197 CURVE SMOOTH",
"169 197 OFFCURVE",
"98 246 OFFCURVE",
"98 360 CURVE SMOOTH",
"98 516 OFFCURVE",
"173 583 OFFCURVE",
"295 583 CURVE SMOOTH",
"373 583 OFFCURVE",
"402 558 OFFCURVE",
"445 558 CURVE SMOOTH",
"485 558 OFFCURVE",
"503 617 OFFCURVE",
"473 654 CURVE SMOOTH",
"445 688 OFFCURVE",
"391 712 OFFCURVE",
"315 712 CURVE SMOOTH",
"155 712 OFFCURVE",
"40 596 OFFCURVE",
"40 360 CURVE SMOOTH"
);
},
{
closed = 1;
nodes = (
"253 89 OFFCURVE",
"197 90 OFFCURVE",
"204 129 CURVE SMOOTH",
"218 203 LINE",
"230 200 OFFCURVE",
"248 197 OFFCURVE",
"265 197 CURVE",
"257 122 LINE SMOOTH"
);
},
{
closed = 1;
nodes = (
"375 51 OFFCURVE",
"334 40 OFFCURVE",
"327 75 CURVE SMOOTH",
"304 197 LINE",
"324 198 OFFCURVE",
"342 200 OFFCURVE",
"358 204 CURVE",
"372 80 LINE SMOOTH"
);
},
{
closed = 1;
nodes = (
"304 361 OFFCURVE",
"328 385 OFFCURVE",
"328 416 CURVE SMOOTH",
"328 445 OFFCURVE",
"304 469 OFFCURVE",
"275 469 CURVE SMOOTH",
"244 469 OFFCURVE",
"220 445 OFFCURVE",
"220 416 CURVE SMOOTH",
"220 385 OFFCURVE",
"244 361 OFFCURVE",
"275 361 CURVE SMOOTH"
);
}
);
width = 525;
},
{
associatedMasterId = "B4EA0C51-6804-4423-9CCC-BF57B26265D1";
layerId = "9982D610-F68C-4A5A-B3C4-39BB6BD8968E";
name = "Feb 18 20, 13:48";
paths = (
{
closed = 1;
nodes = (
"25 107 OFFCURVE",
"136 -12 OFFCURVE",
"300 -12 CURVE SMOOTH",
"350 -12 OFFCURVE",
"388 -7 OFFCURVE",
"418 12 CURVE SMOOTH",
"472 46 OFFCURVE",
"453 187 OFFCURVE",
"380 187 CURVE SMOOTH",
"347 187 OFFCURVE",
"307 177 OFFCURVE",
"260 177 CURVE SMOOTH",
"150 177 OFFCURVE",
"83 229 OFFCURVE",
"83 350 CURVE SMOOTH",
"83 471 OFFCURVE",
"150 523 OFFCURVE",
"260 523 CURVE SMOOTH",
"307 523 OFFCURVE",
"347 513 OFFCURVE",
"380 513 CURVE SMOOTH",
"453 513 OFFCURVE",
"472 654 OFFCURVE",
"418 688 CURVE SMOOTH",
"388 707 OFFCURVE",
"350 712 OFFCURVE",
"300 712 CURVE SMOOTH",
"136 712 OFFCURVE",
"25 593 OFFCURVE",
"25 350 CURVE SMOOTH"
);
}
);
width = 469;
},
{
associatedMasterId = "B4EA0C51-6804-4423-9CCC-BF57B26265D1";
layerId = "CE08E415-E3B0-4138-9ED1-2B3560A949C3";
name = "Feb 18 20, 13:54";
paths = (
{
closed = 1;
nodes = (
"40 107 OFFCURVE",
"155 -12 OFFCURVE",
"315 -12 CURVE SMOOTH",
"390 -12 OFFCURVE",
"435 4 OFFCURVE",
"460 20 CURVE SMOOTH",
"524 61 OFFCURVE",
"493 197 OFFCURVE",
"431 197 CURVE SMOOTH",
"391 197 OFFCURVE",
"358 177 OFFCURVE",
"285 177 CURVE SMOOTH",
"169 177 OFFCURVE",
"98 229 OFFCURVE",
"98 350 CURVE SMOOTH",
"98 471 OFFCURVE",
"169 523 OFFCURVE",
"285 523 CURVE SMOOTH",
"358 523 OFFCURVE",
"391 503 OFFCURVE",
"431 503 CURVE SMOOTH",
"493 503 OFFCURVE",
"524 639 OFFCURVE",
"460 680 CURVE SMOOTH",
"435 696 OFFCURVE",
"390 712 OFFCURVE",
"315 712 CURVE SMOOTH",
"155 712 OFFCURVE",
"40 593 OFFCURVE",
"40 350 CURVE SMOOTH"
);
}
);
width = 525;
}
);
leftMetricsKey = "=O";
unicode = 0043;
},
{
glyphname = D;
lastChange = "2020-02-18 22:17:50 +0000";
layers = (
{
layerId = "B4EA0C51-6804-4423-9CCC-BF57B26265D1";
paths = (
{
closed = 1;
nodes = (
"59 17 OFFCURVE",
"98 0 OFFCURVE",
"233 0 CURVE SMOOTH",
"410 0 OFFCURVE",
"544 92 OFFCURVE",
"544 358 CURVE SMOOTH",
"544 629 OFFCURVE",
"392 705 OFFCURVE",
"243 705 CURVE SMOOTH",
"160 705 LINE SMOOTH",
"108 705 OFFCURVE",
"64 676 OFFCURVE",
"64 623 CURVE SMOOTH",
"60 75 LINE SMOOTH"
);
},
{
closed = 1;
nodes = (
"145 643 OFFCURVE",
"173 643 CURVE SMOOTH",
"319 643 OFFCURVE",
"345 617 OFFCURVE",
"345 358 CURVE SMOOTH",
"345 104 OFFCURVE",
"313 62 OFFCURVE",
"163 62 CURVE SMOOTH",
"139 62 OFFCURVE",
"128 67 OFFCURVE",
"128 88 CURVE SMOOTH",
"130 613 LINE SMOOTH",
"130 636 OFFCURVE"
);
},
{
closed = 1;
nodes = (
"444 259 OFFCURVE",
"444 259 OFFCURVE",
"444 259 CURVE SMOOTH",
"444 259 OFFCURVE",
"444 259 OFFCURVE",
"444 259 CURVE SMOOTH",
"444 259 OFFCURVE",
"444 259 OFFCURVE",
"444 259 CURVE SMOOTH",
"444 259 OFFCURVE",
"444 259 OFFCURVE",
"444 259 CURVE SMOOTH"
);
},
{
closed = 1;
nodes = (
"457 158 OFFCURVE",
"457 158 OFFCURVE",
"457 158 CURVE SMOOTH",
"457 158 OFFCURVE",
"457 158 OFFCURVE",
"457 158 CURVE SMOOTH",
"457 158 OFFCURVE",
"457 158 OFFCURVE",
"457 158 CURVE SMOOTH",
"457 158 OFFCURVE",
"457 158 OFFCURVE",
"457 158 CURVE SMOOTH"
);
},
{
closed = 1;
nodes = (
"484 387 OFFCURVE",
"484 387 OFFCURVE",
"484 387 CURVE SMOOTH",
"484 387 OFFCURVE",
"484 387 OFFCURVE",
"484 387 CURVE SMOOTH",
"484 387 OFFCURVE",
"484 387 OFFCURVE",
"484 387 CURVE SMOOTH",
"484 387 OFFCURVE",
"484 387 OFFCURVE",
"484 387 CURVE SMOOTH"
);
},
{
closed = 1;
nodes = (
"400 520 OFFCURVE",
"400 465 OFFCURVE",
"426 465 CURVE SMOOTH",
"439 465 LINE SMOOTH",
"462 465 OFFCURVE",
"462 520 OFFCURVE",
"439 520 CURVE SMOOTH",
"426 520 LINE SMOOTH"
);
},
{
closed = 1;
nodes = (
"400 446 OFFCURVE",
"400 391 OFFCURVE",
"426 391 CURVE SMOOTH",
"439 391 LINE SMOOTH",
"462 391 OFFCURVE",
"462 446 OFFCURVE",
"439 446 CURVE SMOOTH",
"426 446 LINE SMOOTH"
);
}
);
width = 569;
},
{
layerId = "7390BA8A-CD54-46A0-980C-73781B2212BF";
paths = (
{
closed = 1;
nodes = (
"108 7 OFFCURVE",
"139 -10 OFFCURVE",
"253 -10 CURVE SMOOTH",
"440 -10 OFFCURVE",
"574 158 OFFCURVE",
"574 413 CURVE SMOOTH",
"574 604 OFFCURVE",
"434 679 OFFCURVE",
"259 698 CURVE SMOOTH",
"193 705 LINE SMOOTH",
"108 713 OFFCURVE",
"71 671 OFFCURVE",
"75 603 CURVE SMOOTH",
"104 79 LINE SMOOTH"
);
},
{
closed = 1;
nodes = (
"239 650 OFFCURVE",
"307 625 CURVE SMOOTH",
"391 594 OFFCURVE",
"382 420 OFFCURVE",
"345 182 CURVE SMOOTH",
"330 85 OFFCURVE",
"264 52 OFFCURVE",
"220 52 CURVE SMOOTH",
"193 52 OFFCURVE",
"173 60 OFFCURVE",
"172 87 CURVE SMOOTH",
"163 551 LINE SMOOTH",
"161 642 OFFCURVE"
);
},
{
closed = 1;
nodes = (
"442 297 OFFCURVE",
"421 318 OFFCURVE",
"421 342 CURVE SMOOTH",
"421 366 OFFCURVE",
"442 385 OFFCURVE",
"466 385 CURVE SMOOTH",
"490 385 OFFCURVE",
"509 366 OFFCURVE",
"509 342 CURVE SMOOTH",
"509 318 OFFCURVE",
"490 297 OFFCURVE",
"466 297 CURVE SMOOTH"
);
},
{
closed = 1;
nodes = (
"426 187 OFFCURVE",
"409 204 OFFCURVE",
"409 223 CURVE SMOOTH",
"409 243 OFFCURVE",
"426 258 OFFCURVE",
"445 258 CURVE SMOOTH",
"465 258 OFFCURVE",
"480 243 OFFCURVE",
"480 223 CURVE SMOOTH",
"480 204 OFFCURVE",
"465 187 OFFCURVE",
"445 187 CURVE SMOOTH"
);
},
{
closed = 1;
nodes = (
"443 429 OFFCURVE",
"426 446 OFFCURVE",
"426 465 CURVE SMOOTH",
"426 485 OFFCURVE",
"443 500 OFFCURVE",
"462 500 CURVE SMOOTH",
"482 500 OFFCURVE",
"497 485 OFFCURVE",
"497 465 CURVE SMOOTH",
"497 446 OFFCURVE",
"482 429 OFFCURVE",
"462 429 CURVE SMOOTH"
);
},
{
closed = 1;
nodes = (
"-1 546 OFFCURVE",
"-3 479 OFFCURVE",
"28 478 CURVE SMOOTH",
"230 473 LINE SMOOTH",
"263 472 OFFCURVE",
"265 528 OFFCURVE",
"232 530 CURVE SMOOTH",
"38 543 LINE SMOOTH"
);
},
{
closed = 1;
nodes = (
"-8 408 OFFCURVE",
"-4 354 OFFCURVE",
"30 356 CURVE SMOOTH",
"230 367 LINE SMOOTH",
"259 369 OFFCURVE",
"259 431 OFFCURVE",
"223 428 CURVE SMOOTH",
"27 411 LINE SMOOTH"
);
}
);
width = 620;
},
{
associatedMasterId = "7390BA8A-CD54-46A0-980C-73781B2212BF";
layerId = "8DE619CC-7ACB-460A-B5B1-42C79BFF14ED";
name = "Feb 11 20, 14:37";
paths = (
{
closed = 1;
nodes = (
"64 17 OFFCURVE",
"99 0 OFFCURVE",
"213 0 CURVE SMOOTH",
"426 0 OFFCURVE",
"554 134 OFFCURVE",
"554 328 CURVE SMOOTH",
"554 594 OFFCURVE",
"393 705 OFFCURVE",
"243 705 CURVE SMOOTH",
"165 705 LINE SMOOTH",
"113 705 OFFCURVE",
"69 676 OFFCURVE",
"69 623 CURVE SMOOTH",
"65 75 LINE SMOOTH"
);
},
{
closed = 1;
nodes = (
"271 671 OFFCURVE",
"340 613 CURVE SMOOTH",
"401 561 OFFCURVE",
"402 443 OFFCURVE",
"351 296 CURVE SMOOTH",
"284 101 OFFCURVE",
"217 62 OFFCURVE",
"161 62 CURVE SMOOTH",
"144 62 OFFCURVE",
"133 67 OFFCURVE",
"133 88 CURVE SMOOTH",
"135 521 LINE SMOOTH",
"135 634 OFFCURVE"
);
},
{
closed = 1;
nodes = (
"416 190 OFFCURVE",
"396 210 OFFCURVE",
"396 233 CURVE SMOOTH",
"396 256 OFFCURVE",
"416 275 OFFCURVE",
"439 275 CURVE SMOOTH",
"462 275 OFFCURVE",
"481 256 OFFCURVE",
"481 233 CURVE SMOOTH",
"481 210 OFFCURVE",
"462 190 OFFCURVE",
"439 190 CURVE SMOOTH"
);
},
{
closed = 1;
nodes = (
"363 102 OFFCURVE",
"346 119 OFFCURVE",
"346 138 CURVE SMOOTH",
"346 158 OFFCURVE",
"363 173 OFFCURVE",
"382 173 CURVE SMOOTH",
"402 173 OFFCURVE",
"417 158 OFFCURVE",
"417 138 CURVE SMOOTH",
"417 119 OFFCURVE",
"402 102 OFFCURVE",
"382 102 CURVE SMOOTH"
);
},
{
closed = 1;
nodes = (
"443 309 OFFCURVE",
"426 326 OFFCURVE",
"426 345 CURVE SMOOTH",
"426 365 OFFCURVE",
"443 380 OFFCURVE",
"462 380 CURVE SMOOTH",
"482 380 OFFCURVE",
"497 365 OFFCURVE",
"497 345 CURVE SMOOTH",
"497 326 OFFCURVE",
"482 309 OFFCURVE",
"462 309 CURVE SMOOTH"
);
},
{
closed = 1;
nodes = (
"-10 533 OFFCURVE",
"-10 478 OFFCURVE",
"16 478 CURVE SMOOTH",
"209 478 LINE SMOOTH",
"232 478 OFFCURVE",
"232 533 OFFCURVE",
"209 533 CURVE SMOOTH",
"16 533 LINE SMOOTH"
);
},
{
closed = 1;
nodes = (
"-10 426 OFFCURVE",
"-10 371 OFFCURVE",
"16 371 CURVE SMOOTH",
"209 371 LINE SMOOTH",
"232 371 OFFCURVE",
"232 426 OFFCURVE",
"209 426 CURVE SMOOTH",
"16 426 LINE SMOOTH"
);
}
);
width = 600;
},
{
associatedMasterId = "B4EA0C51-6804-4423-9CCC-BF57B26265D1";
layerId = "0315EF65-6A9B-4D14-8A56-056C39C0E18F";
name = "Feb 17 20, 14:52";
paths = (
{
closed = 1;
nodes = (
"64 17 OFFCURVE",
"102 0 OFFCURVE",
"233 0 CURVE SMOOTH",
"428 0 OFFCURVE",
"549 134 OFFCURVE",
"549 328 CURVE SMOOTH",
"549 594 OFFCURVE",
"391 705 OFFCURVE",
"243 705 CURVE SMOOTH",
"165 705 LINE SMOOTH",
"113 705 OFFCURVE",
"69 676 OFFCURVE",
"69 623 CURVE SMOOTH",
"65 75 LINE SMOOTH"
);
},
{
closed = 1;
nodes = (
"271 671 OFFCURVE",
"340 613 CURVE SMOOTH",
"401 561 OFFCURVE",
"402 443 OFFCURVE",
"351 296 CURVE SMOOTH",
"284 101 OFFCURVE",
"217 62 OFFCURVE",
"161 62 CURVE SMOOTH",
"144 62 OFFCURVE",
"133 67 OFFCURVE",
"133 88 CURVE SMOOTH",
"135 521 LINE SMOOTH",
"135 634 OFFCURVE"
);
},
{
closed = 1;
nodes = (
"381 220 OFFCURVE",
"381 220 OFFCURVE",
"381 220 CURVE SMOOTH",
"381 220 OFFCURVE",
"381 220 OFFCURVE",
"381 220 CURVE SMOOTH",
"381 220 OFFCURVE",
"381 220 OFFCURVE",
"381 220 CURVE SMOOTH",
"381 220 OFFCURVE",
"381 220 OFFCURVE",
"381 220 CURVE SMOOTH"
);
},
{
closed = 1;
nodes = (
"462 158 OFFCURVE",
"462 158 OFFCURVE",
"462 158 CURVE SMOOTH",
"462 158 OFFCURVE",
"462 158 OFFCURVE",
"462 158 CURVE SMOOTH",
"462 158 OFFCURVE",
"462 158 OFFCURVE",
"462 158 CURVE SMOOTH",
"462 158 OFFCURVE",
"462 158 OFFCURVE",
"462 158 CURVE SMOOTH"
);
},
{
closed = 1;
nodes = (
"489 387 OFFCURVE",
"489 387 OFFCURVE",
"489 387 CURVE SMOOTH",
"489 387 OFFCURVE",
"489 387 OFFCURVE",
"489 387 CURVE SMOOTH",
"489 387 OFFCURVE",
"489 387 OFFCURVE",
"489 387 CURVE SMOOTH",
"489 387 OFFCURVE",
"489 387 OFFCURVE",
"489 387 CURVE SMOOTH"
);
},
{
closed = 1;
nodes = (
"405 520 OFFCURVE",
"405 465 OFFCURVE",
"431 465 CURVE SMOOTH",
"444 465 LINE SMOOTH",
"467 465 OFFCURVE",
"467 520 OFFCURVE",
"444 520 CURVE SMOOTH",
"431 520 LINE SMOOTH"
);
},
{
closed = 1;
nodes = (
"405 446 OFFCURVE",
"405 391 OFFCURVE",
"431 391 CURVE SMOOTH",
"444 391 LINE SMOOTH",
"467 391 OFFCURVE",
"467 446 OFFCURVE",
"444 446 CURVE SMOOTH",
"431 446 LINE SMOOTH"
);
}
);
width = 600;
}
);
leftMetricsKey = "=H";
rightMetricsKey = "=O";
unicode = 0044;
},
{
glyphname = E;
lastChange = "2020-02-18 02:08:10 +0000";
layers = (
{
layerId = "B4EA0C51-6804-4423-9CCC-BF57B26265D1";
paths = (
{
closed = 1;
nodes = (
"225 402 OFFCURVE",
"225 402 OFFCURVE",
"225 402 CURVE SMOOTH",
"225 402 OFFCURVE",
"225 402 OFFCURVE",
"225 402 CURVE SMOOTH",
"225 402 OFFCURVE",
"225 402 OFFCURVE",
"225 402 CURVE SMOOTH",
"225 402 OFFCURVE",
"225 402 OFFCURVE",
"225 402 CURVE SMOOTH"
);
},
{
closed = 1;
nodes = (
"283 498 LINE",
"298 498 OFFCURVE",
"314 498 OFFCURVE",
"329 498 CURVE",
"329 498 LINE",
"283 498 LINE"
);
},
{
closed = 1;
nodes = (
"196 498 LINE",
"212 498 OFFCURVE",
"228 498 OFFCURVE",
"244 498 CURVE",
"244 498 LINE",
"196 498 LINE"
);
},
{
closed = 1;
nodes = (
"65 26 OFFCURVE",
"90 -4 OFFCURVE",
"126 -4 CURVE SMOOTH",
"410 -5 LINE SMOOTH",
"449 -5 OFFCURVE",
"449 60 OFFCURVE",
"412 60 CURVE SMOOTH",
"171 60 LINE SMOOTH",
"146 60 OFFCURVE",
"133 69 OFFCURVE",
"133 97 CURVE SMOOTH",
"134 240 LINE SMOOTH",
"134 256 OFFCURVE",
"141 264 OFFCURVE",
"155 264 CURVE SMOOTH",
"350 265 LINE SMOOTH",
"388 265 OFFCURVE",
"392 325 OFFCURVE",
"350 325 CURVE SMOOTH",
"156 325 LINE SMOOTH",
"142 325 OFFCURVE",
"134 332 OFFCURVE",
"134 348 CURVE SMOOTH",
"135 460 LINE SMOOTH",
"135 483 OFFCURVE",
"147 498 OFFCURVE",
"173 498 CURVE SMOOTH",
"358 497 LINE SMOOTH",
"482 496 OFFCURVE",
"475 702 OFFCURVE",
"362 702 CURVE SMOOTH",
"126 702 LINE SMOOTH",
"93 702 OFFCURVE",
"68 671 OFFCURVE",
"68 638 CURVE SMOOTH",
"65 60 LINE SMOOTH"
);
}
);
width = 479;
},
{
layerId = "7390BA8A-CD54-46A0-980C-73781B2212BF";
paths = (
{
closed = 1;
nodes = (
"255 346 OFFCURVE",
"275 366 OFFCURVE",
"275 392 CURVE SMOOTH",
"275 417 OFFCURVE",
"255 437 OFFCURVE",
"230 437 CURVE SMOOTH",
"204 437 OFFCURVE",
"184 417 OFFCURVE",
"184 392 CURVE SMOOTH",
"184 366 OFFCURVE",
"204 346 OFFCURVE",
"230 346 CURVE SMOOTH"
);
},
{
closed = 1;
nodes = (
"326 574 LINE SMOOTH",
"332 618 OFFCURVE",
"397 607 OFFCURVE",
"386 565 CURVE SMOOTH",
"363 479 LINE",
"315 494 LINE"
);
},
{
closed = 1;
nodes = (
"228 566 LINE SMOOTH",
"227 608 OFFCURVE",
"285 605 OFFCURVE",
"282 569 CURVE SMOOTH",
"276 506 LINE",
"229 521 LINE"
);
},
{
closed = 1;
nodes = (
"44 19 OFFCURVE",
"69 -14 OFFCURVE",
"126 -11 CURVE SMOOTH",
"422 5 LINE SMOOTH",
"465 7 OFFCURVE",
"461 83 OFFCURVE",
"416 79 CURVE SMOOTH",
"146 53 LINE SMOOTH",
"121 51 OFFCURVE",
"106 62 OFFCURVE",
"108 90 CURVE SMOOTH",
"113 165 LINE SMOOTH",
"114 179 OFFCURVE",
"120 187 OFFCURVE",
"133 190 CURVE SMOOTH",
"324 227 LINE SMOOTH",
"363 235 OFFCURVE",
"347 303 OFFCURVE",
"306 292 CURVE SMOOTH",
"137 246 LINE SMOOTH",
"125 243 OFFCURVE",
"118 249 OFFCURVE",
"119 261 CURVE SMOOTH",
"136 504 LINE SMOOTH",
"138 532 OFFCURVE",
"152 545 OFFCURVE",
"173 538 CURVE SMOOTH",
"369 477 LINE SMOOTH",
"485 441 OFFCURVE",
"510 726 OFFCURVE",
"361 706 CURVE SMOOTH",
"139 676 LINE SMOOTH",
"95 670 OFFCURVE",
"69 637 OFFCURVE",
"67 591 CURVE SMOOTH",
"45 52 LINE SMOOTH"
);
}
);
width = 499;
},
{
associatedMasterId = "B4EA0C51-6804-4423-9CCC-BF57B26265D1";
layerId = "155992FE-D6D7-4B66-A566-B9352E9844D2";
name = "Feb 17 20, 14:59";
paths = (
{
closed = 1;
nodes = (
"350 265 LINE SMOOTH",
"382 270 OFFCURVE",
"379 332 OFFCURVE",
"338 325 CURVE SMOOTH",
"117 290 LINE",
"114 226 LINE"
);
},
{
closed = 1;
nodes = (
"65 27 OFFCURVE",
"97 -4 OFFCURVE",
"126 -4 CURVE SMOOTH",
"418 -5 LINE SMOOTH",
"447 -5 OFFCURVE",
"447 60 OFFCURVE",
"420 60 CURVE SMOOTH",
"171 60 LINE SMOOTH",
"146 60 OFFCURVE",
"133 69 OFFCURVE",
"133 97 CURVE SMOOTH",
"135 460 LINE SMOOTH",
"135 483 OFFCURVE",
"147 498 OFFCURVE",
"173 498 CURVE SMOOTH",
"358 497 LINE SMOOTH",
"482 496 OFFCURVE",
"475 702 OFFCURVE",
"362 702 CURVE SMOOTH",
"126 702 LINE SMOOTH",
"93 702 OFFCURVE",
"68 671 OFFCURVE",
"68 638 CURVE SMOOTH",
"65 60 LINE SMOOTH"
);
},
{
closed = 1;
nodes = (
"225 402 OFFCURVE",
"225 402 OFFCURVE",
"225 402 CURVE SMOOTH",
"225 402 OFFCURVE",
"225 402 OFFCURVE",
"225 402 CURVE SMOOTH",
"225 402 OFFCURVE",
"225 402 OFFCURVE",
"225 402 CURVE SMOOTH",
"225 402 OFFCURVE",
"225 402 OFFCURVE",
"225 402 CURVE SMOOTH"
);
},
{
closed = 1;
nodes = (
"283 498 LINE",
"298 498 OFFCURVE",
"314 498 OFFCURVE",
"329 498 CURVE",
"329 498 LINE",
"283 498 LINE"
);
},
{
closed = 1;
nodes = (
"196 498 LINE",
"212 498 OFFCURVE",
"228 498 OFFCURVE",
"244 498 CURVE",
"244 498 LINE",
"196 498 LINE"
);
}
);
width = 479;
}
);
unicode = 0045;
},
{
glyphname = F;
lastChange = "2020-02-17 23:02:47 +0000";
layers = (
{
layerId = "B4EA0C51-6804-4423-9CCC-BF57B26265D1";
paths = (
{
closed = 1;
nodes = (
"65 -18 OFFCURVE",
"133 -20 OFFCURVE",
"133 22 CURVE SMOOTH",
"134 191 LINE SMOOTH",
"134 215 OFFCURVE",
"145 234 OFFCURVE",
"169 234 CURVE SMOOTH",
"305 235 LINE SMOOTH",
"440 236 OFFCURVE",
"429 428 OFFCURVE",
"305 428 CURVE SMOOTH",
"184 428 LINE SMOOTH",
"153 428 OFFCURVE",
"134 426 OFFCURVE",
"134 460 CURVE SMOOTH",
"135 593 LINE SMOOTH",
"135 616 OFFCURVE",
"147 631 OFFCURVE",
"173 631 CURVE SMOOTH",
"392 630 LINE SMOOTH",
"436 630 OFFCURVE",
"436 702 OFFCURVE",
"392 702 CURVE SMOOTH",
"136 702 LINE SMOOTH",
"95 702 OFFCURVE",
"68 676 OFFCURVE",
"68 634 CURVE SMOOTH",
"65 23 LINE SMOOTH"
);
},
{
closed = 1;
nodes = (
"66 254 LINE",
"66 231 OFFCURVE",
"66 208 OFFCURVE",
"66 185 CURVE",
"66 185 LINE",
"66 254 LINE"
);
},
{
closed = 1;
nodes = (
"66 154 LINE",
"66 136 OFFCURVE",
"66 117 OFFCURVE",
"66 99 CURVE",
"66 99 LINE",
"66 154 LINE"
);
},
{
closed = 1;
nodes = (
"92 317 LINE",
"136 311 LINE SMOOTH",
"173 306 OFFCURVE",
"180 371 OFFCURVE",
"140 374 CURVE SMOOTH",
"98 377 LINE"
);
}
);
width = 449;
},
{
layerId = "7390BA8A-CD54-46A0-980C-73781B2212BF";
paths = (
{
closed = 1;
nodes = (
"28 -76 OFFCURVE",
"282 -50 OFFCURVE",
"240 87 CURVE SMOOTH",
"168 319 LINE SMOOTH",
"157 353 OFFCURVE",
"167 386 OFFCURVE",
"192 389 CURVE SMOOTH",
"378 409 LINE SMOOTH",
"421 414 OFFCURVE",
"415 480 OFFCURVE",
"371 474 CURVE SMOOTH",
"225 454 LINE SMOOTH",
"204 451 OFFCURVE",
"198 465 OFFCURVE",
"197 486 CURVE SMOOTH",
"191 578 LINE SMOOTH",
"189 602 OFFCURVE",
"211 616 OFFCURVE",
"238 618 CURVE SMOOTH",
"449 633 LINE SMOOTH",
"496 636 OFFCURVE",
"491 714 OFFCURVE",
"447 710 CURVE SMOOTH",
"139 679 LINE SMOOTH",
"97 675 OFFCURVE",
"80 646 OFFCURVE",
"77 606 CURVE SMOOTH",
"37 54 LINE SMOOTH"
);
},
{
closed = 1;
nodes = (
"104 265 LINE SMOOTH",
"144 273 OFFCURVE",
"162 196 OFFCURVE",
"111 191 CURVE SMOOTH",
"47 185 LINE",
"52 254 LINE"
);
},
{
closed = 1;
nodes = (
"141 150 LINE SMOOTH",
"182 153 OFFCURVE",
"187 81 OFFCURVE",
"141 83 CURVE SMOOTH",
"39 87 LINE",
"43 142 LINE"
);
},
{
closed = 1;
nodes = (
"134 300 LINE",
"340 283 LINE SMOOTH",
"378 280 OFFCURVE",
"384 348 OFFCURVE",
"344 350 CURVE SMOOTH",
"140 360 LINE"
);
}
);
width = 502;
},
{
associatedMasterId = "B4EA0C51-6804-4423-9CCC-BF57B26265D1";
layerId = "121B53D0-6A9E-47F1-B674-A6EE4A7FC64C";
name = "Feb 17 20, 15:01";
paths = (
{
closed = 1;
nodes = (
"65 -26 OFFCURVE",
"133 -19 OFFCURVE",
"133 14 CURVE SMOOTH",
"134 165 LINE SMOOTH",
"134 189 OFFCURVE",
"145 204 OFFCURVE",
"169 208 CURVE SMOOTH",
"315 235 LINE SMOOTH",
"438 258 OFFCURVE",
"407 451 OFFCURVE",
"285 428 CURVE SMOOTH",
"184 409 LINE SMOOTH",
"153 403 OFFCURVE",
"134 407 OFFCURVE",
"134 441 CURVE SMOOTH",
"135 593 LINE SMOOTH",
"135 616 OFFCURVE",
"147 631 OFFCURVE",
"173 631 CURVE SMOOTH",
"402 630 LINE SMOOTH",
"442 630 OFFCURVE",
"440 702 OFFCURVE",
"408 702 CURVE SMOOTH",
"136 702 LINE SMOOTH",
"95 702 OFFCURVE",
"68 676 OFFCURVE",
"68 634 CURVE SMOOTH",
"65 15 LINE SMOOTH"
);
},
{
closed = 1;
nodes = (
"66 254 LINE",
"66 231 OFFCURVE",
"66 208 OFFCURVE",
"66 185 CURVE",
"66 185 LINE",
"66 254 LINE"
);
},
{
closed = 1;
nodes = (
"66 154 LINE",
"66 136 OFFCURVE",
"66 117 OFFCURVE",
"66 99 CURVE",
"66 99 LINE",
"66 154 LINE"
);
},
{
closed = 1;
nodes = (
"92 317 LINE",
"136 311 LINE SMOOTH",
"173 306 OFFCURVE",
"180 371 OFFCURVE",
"140 374 CURVE SMOOTH",
"98 377 LINE"
);
}
);
width = 449;
}
);
unicode = 0046;
},
{
glyphname = G;
lastChange = "2020-02-17 23:17:40 +0000";
layers = (
{
layerId = "7390BA8A-CD54-46A0-980C-73781B2212BF";
paths = (
{
closed = 1;
nodes = (
"40 92 OFFCURVE",
"164 29 OFFCURVE",
"276 29 CURVE SMOOTH",
"332 29 OFFCURVE",
"387 46 OFFCURVE",
"413 63 CURVE SMOOTH",
"431 75 OFFCURVE",
"440 58 OFFCURVE",
"436 42 CURVE SMOOTH",
"421 -20 LINE SMOOTH",
"399 -112 OFFCURVE",
"568 -116 OFFCURVE",
"559 -26 CURVE SMOOTH",
"529 265 LINE SMOOTH",
"525 306 OFFCURVE",
"513 328 OFFCURVE",
"484 332 CURVE SMOOTH",
"357 351 LINE SMOOTH",
"313 358 OFFCURVE",
"298 286 OFFCURVE",
"355 285 CURVE SMOOTH",
"435 284 LINE SMOOTH",
"468 284 OFFCURVE",
"476 268 OFFCURVE",
"476 223 CURVE SMOOTH",
"476 139 OFFCURVE",
"382 92 OFFCURVE",
"280 92 CURVE SMOOTH",
"169 92 OFFCURVE",
"114 179 OFFCURVE",
"114 254 CURVE SMOOTH",
"114 302 OFFCURVE",
"133 339 OFFCURVE",
"179 361 CURVE SMOOTH",
"274 408 OFFCURVE",
"370 455 OFFCURVE",
"465 502 CURVE SMOOTH",
"526 532 OFFCURVE",
"539 596 OFFCURVE",
"513 645 CURVE SMOOTH",
"493 683 OFFCURVE",
"450 712 OFFCURVE",
"388 712 CURVE SMOOTH",
"190 712 OFFCURVE",
"40 550 OFFCURVE",
"40 326 CURVE SMOOTH"
);
},
{
closed = 1;
nodes = (
"376 558 OFFCURVE",
"360 574 OFFCURVE",
"360 594 CURVE SMOOTH",
"360 612 OFFCURVE",
"376 629 OFFCURVE",
"396 629 CURVE SMOOTH",
"414 629 OFFCURVE",
"431 612 OFFCURVE",
"431 594 CURVE SMOOTH",
"431 574 OFFCURVE",
"414 558 OFFCURVE",
"396 558 CURVE SMOOTH"
);
},
{
closed = 1;
nodes = (
"262 505 OFFCURVE",
"241 526 OFFCURVE",
"241 551 CURVE SMOOTH",
"241 575 OFFCURVE",
"262 596 OFFCURVE",
"287 596 CURVE SMOOTH",
"311 596 OFFCURVE",
"332 575 OFFCURVE",
"332 551 CURVE SMOOTH",
"332 526 OFFCURVE",
"311 505 OFFCURVE",
"287 505 CURVE SMOOTH"
);
},
{
closed = 1;
nodes = (
"169 451 OFFCURVE",
"153 467 OFFCURVE",
"153 487 CURVE SMOOTH",
"153 505 OFFCURVE",
"169 522 OFFCURVE",
"189 522 CURVE SMOOTH",
"207 522 OFFCURVE",
"224 505 OFFCURVE",
"224 487 CURVE SMOOTH",
"224 467 OFFCURVE",
"207 451 OFFCURVE",
"189 451 CURVE SMOOTH"
);
},
{
closed = 1;
nodes = (
"432 191 OFFCURVE",
"432 242 OFFCURVE",
"397 239 CURVE SMOOTH",
"278 229 LINE SMOOTH",
"244 226 OFFCURVE",
"249 171 OFFCURVE",
"284 175 CURVE SMOOTH",
"401 188 LINE SMOOTH"
);
}
);
width = 600;
},
{
associatedMasterId = "B4EA0C51-6804-4423-9CCC-BF57B26265D1";
layerId = "26C565C5-083D-4075-BBF7-10571524C1E7";
name = "Feb 14 20, 11:41";
paths = (
{
closed = 1;
nodes = (
"40 81 OFFCURVE",
"160 -12 OFFCURVE",
"271 -12 CURVE SMOOTH",
"360 -12 OFFCURVE",
"426 34 OFFCURVE",
"470 75 CURVE SMOOTH",
"485 88 OFFCURVE",
"493 76 OFFCURVE",
"493 59 CURVE SMOOTH",
"493 1 LINE SMOOTH",
"493 -36 OFFCURVE",
"550 -36 OFFCURVE",
"550 -2 CURVE SMOOTH",
"549 255 LINE SMOOTH",
"549 312 OFFCURVE",
"531 333 OFFCURVE",
"497 335 CURVE SMOOTH",
"358 343 LINE SMOOTH",
"328 345 OFFCURVE",
"330 289 OFFCURVE",
"358 289 CURVE SMOOTH",
"406 289 LINE SMOOTH",
"507 290 OFFCURVE",
"502 193 OFFCURVE",
"455 140 CURVE SMOOTH",
"400 80 OFFCURVE",
"345 51 OFFCURVE",
"275 51 CURVE SMOOTH",
"234 51 OFFCURVE",
"187 63 OFFCURVE",
"161 96 CURVE SMOOTH",
"101 174 OFFCURVE",
"138 366 OFFCURVE",
"463 584 CURVE SMOOTH",
"520 622 OFFCURVE",
"503 706 OFFCURVE",
"364 706 CURVE SMOOTH",
"219 706 OFFCURVE",
"40 580 OFFCURVE",
"40 278 CURVE SMOOTH"
);
}
);
width = 600;
},
{
associatedMasterId = "B4EA0C51-6804-4423-9CCC-BF57B26265D1";
layerId = "E2EDF158-E9B0-42F3-8357-C2BBDCA33BB0";
name = "Feb 14 20, 11:47";
paths = (
{
closed = 1;
nodes = (
"40 75 OFFCURVE",
"158 -12 OFFCURVE",
"271 -12 CURVE SMOOTH",
"360 -12 OFFCURVE",
"426 34 OFFCURVE",
"470 75 CURVE SMOOTH",
"485 88 OFFCURVE",
"493 76 OFFCURVE",
"493 59 CURVE SMOOTH",
"493 1 LINE SMOOTH",
"493 -36 OFFCURVE",
"550 -36 OFFCURVE",
"550 -2 CURVE SMOOTH",
"549 255 LINE SMOOTH",
"549 312 OFFCURVE",
"531 333 OFFCURVE",
"497 335 CURVE SMOOTH",
"358 343 LINE SMOOTH",
"328 345 OFFCURVE",
"330 289 OFFCURVE",
"358 289 CURVE SMOOTH",
"406 289 LINE SMOOTH",
"507 290 OFFCURVE",
"502 193 OFFCURVE",
"455 140 CURVE SMOOTH",
"400 80 OFFCURVE",
"345 51 OFFCURVE",
"275 51 CURVE SMOOTH",
"227 51 OFFCURVE",
"186 65 OFFCURVE",
"145 116 CURVE SMOOTH",
"93 181 OFFCURVE",
"94 443 OFFCURVE",
"201 470 CURVE SMOOTH",
"485 542 LINE SMOOTH",
"582 567 OFFCURVE",
"576 730 OFFCURVE",
"459 712 CURVE SMOOTH",
"186 669 LINE SMOOTH",
"126 660 OFFCURVE",
"40 429 OFFCURVE",
"40 269 CURVE SMOOTH"
);
}
);
width = 600;
},
{
layerId = "B4EA0C51-6804-4423-9CCC-BF57B26265D1";
paths = (
{
closed = 1;
nodes = (
"30 82 OFFCURVE",
"149 -11 OFFCURVE",
"265 -11 CURVE SMOOTH",
"342 -11 OFFCURVE",
"384 31 OFFCURVE",
"420 75 CURVE SMOOTH",
"432 90 OFFCURVE",
"443 76 OFFCURVE",
"443 59 CURVE SMOOTH",
"443 1 LINE SMOOTH",
"443 -59 OFFCURVE",
"540 -59 OFFCURVE",
"540 -2 CURVE SMOOTH",
"539 273 LINE SMOOTH",
"539 317 OFFCURVE",
"525 334 OFFCURVE",
"491 335 CURVE SMOOTH",
"300 343 LINE SMOOTH",
"252 345 OFFCURVE",
"251 277 OFFCURVE",
"296 276 CURVE SMOOTH",
"366 275 LINE SMOOTH",
"397 275 OFFCURVE",
"413 249 OFFCURVE",
"413 215 CURVE SMOOTH",
"413 121 OFFCURVE",
"358 50 OFFCURVE",
"274 50 CURVE SMOOTH",
"167 50 OFFCURVE",
"93 125 OFFCURVE",
"93 315 CURVE SMOOTH",
"93 478 OFFCURVE",
"187 516 OFFCURVE",
"305 516 CURVE SMOOTH",
"369 516 OFFCURVE",
"432 500 OFFCURVE",
"471 500 CURVE SMOOTH",
"520 500 OFFCURVE",
"555 591 OFFCURVE",
"506 650 CURVE SMOOTH",
"467 696 OFFCURVE",
"390 712 OFFCURVE",
"329 712 CURVE SMOOTH",
"190 712 OFFCURVE",
"30 654 OFFCURVE",
"30 313 CURVE SMOOTH"
);
},
{
closed = 1;
nodes = (
"193 620 OFFCURVE",
"193 620 OFFCURVE",
"193 620 CURVE SMOOTH",
"193 620 OFFCURVE",
"193 620 OFFCURVE",
"193 620 CURVE SMOOTH",
"193 620 OFFCURVE",
"193 620 OFFCURVE",
"193 620 CURVE SMOOTH",
"193 620 OFFCURVE",
"193 620 OFFCURVE",
"193 620 CURVE SMOOTH"
);
},
{
closed = 1;
nodes = (
"155 527 OFFCURVE",
"155 527 OFFCURVE",
"155 527 CURVE SMOOTH",
"155 527 OFFCURVE",
"155 527 OFFCURVE",
"155 527 CURVE SMOOTH",
"155 527 OFFCURVE",
"155 527 OFFCURVE",
"155 527 CURVE SMOOTH",
"155 527 OFFCURVE",
"155 527 OFFCURVE",
"155 527 CURVE SMOOTH"
);
},
{
closed = 1;
nodes = (
"174 579 OFFCURVE",
"174 579 OFFCURVE",
"174 579 CURVE SMOOTH",
"174 579 OFFCURVE",
"174 579 OFFCURVE",
"174 579 CURVE SMOOTH",
"174 579 OFFCURVE",
"174 579 OFFCURVE",
"174 579 CURVE SMOOTH",
"174 579 OFFCURVE",
"174 579 OFFCURVE",
"174 579 CURVE SMOOTH"
);
},
{
closed = 1;
nodes = (
"527 209 OFFCURVE",
"528 258 OFFCURVE",
"493 256 CURVE SMOOTH",
"475 255 LINE SMOOTH",
"441 253 OFFCURVE",
"446 199 OFFCURVE",
"481 203 CURVE SMOOTH",
"497 205 LINE SMOOTH"
);
}
);
width = 600;
},
{
associatedMasterId = "B4EA0C51-6804-4423-9CCC-BF57B26265D1";
layerId = "EA965221-9AF3-4152-9BF7-2F16D099628B";
name = "Feb 14 20, 12:09";
paths = (
{
closed = 1;
nodes = (
"40 77 OFFCURVE",
"155 -12 OFFCURVE",
"258 -12 CURVE SMOOTH",
"341 -12 OFFCURVE",
"415 25 OFFCURVE",
"460 75 CURVE SMOOTH",
"473 90 OFFCURVE",
"483 76 OFFCURVE",
"483 59 CURVE SMOOTH",
"483 1 LINE SMOOTH",
"483 -36 OFFCURVE",
"540 -36 OFFCURVE",
"540 -2 CURVE SMOOTH",
"539 255 LINE SMOOTH",
"539 312 OFFCURVE",
"521 333 OFFCURVE",
"487 335 CURVE SMOOTH",
"348 343 LINE SMOOTH",
"318 345 OFFCURVE",
"320 289 OFFCURVE",
"348 289 CURVE SMOOTH",
"429 290 LINE SMOOTH",
"497 290 OFFCURVE",
"508 218 OFFCURVE",
"445 140 CURVE SMOOTH",
"393 76 OFFCURVE",
"331 51 OFFCURVE",
"266 51 CURVE SMOOTH",
"223 51 OFFCURVE",
"182 63 OFFCURVE",
"145 116 CURVE SMOOTH",
"99 182 OFFCURVE",
"121 251 OFFCURVE",
"174 302 CURVE SMOOTH",
"434 555 LINE SMOOTH",
"505 623 OFFCURVE",
"470 712 OFFCURVE",
"354 712 CURVE SMOOTH",
"185 712 OFFCURVE",
"40 523 OFFCURVE",
"40 280 CURVE SMOOTH"
);
}
);
width = 600;
},
{
associatedMasterId = "B4EA0C51-6804-4423-9CCC-BF57B26265D1";
layerId = "04329DA1-3568-4431-80FD-69511510CDF8";
name = "Feb 17 20, 15:03";
paths = (
{
closed = 1;
nodes = (
"40 77 OFFCURVE",
"155 -12 OFFCURVE",
"258 -12 CURVE SMOOTH",
"350 -12 OFFCURVE",
"401 25 OFFCURVE",
"440 75 CURVE SMOOTH",
"452 90 OFFCURVE",
"463 76 OFFCURVE",
"463 59 CURVE SMOOTH",
"463 1 LINE SMOOTH",
"463 -48 OFFCURVE",
"540 -48 OFFCURVE",
"540 -2 CURVE SMOOTH",
"539 263 LINE SMOOTH",
"539 314 OFFCURVE",
"525 333 OFFCURVE",
"491 335 CURVE SMOOTH",
"360 343 LINE SMOOTH",
"312 346 OFFCURVE",
"311 279 OFFCURVE",
"356 277 CURVE SMOOTH",
"386 276 LINE SMOOTH",
"417 275 OFFCURVE",
"433 250 OFFCURVE",
"433 215 CURVE SMOOTH",
"433 122 OFFCURVE",
"368 51 OFFCURVE",
"266 51 CURVE SMOOTH",
"176 51 OFFCURVE",
"122 120 OFFCURVE",
"122 190 CURVE SMOOTH",
"122 232 OFFCURVE",
"140 270 OFFCURVE",
"174 302 CURVE SMOOTH",
"434 555 LINE SMOOTH",
"505 623 OFFCURVE",
"470 712 OFFCURVE",
"354 712 CURVE SMOOTH",
"185 712 OFFCURVE",
"40 523 OFFCURVE",
"40 280 CURVE SMOOTH"
);
},
{
closed = 1;
nodes = (
"337 639 OFFCURVE",
"337 639 OFFCURVE",
"337 639 CURVE SMOOTH",
"337 639 OFFCURVE",
"337 639 OFFCURVE",
"337 639 CURVE SMOOTH",
"337 639 OFFCURVE",
"337 639 OFFCURVE",
"337 639 CURVE SMOOTH",
"337 639 OFFCURVE",
"337 639 OFFCURVE",
"337 639 CURVE SMOOTH"
);
},
{
closed = 1;
nodes = (
"187 364 OFFCURVE",
"187 364 OFFCURVE",
"187 364 CURVE SMOOTH",
"187 364 OFFCURVE",
"187 364 OFFCURVE",
"187 364 CURVE SMOOTH",
"187 364 OFFCURVE",
"187 364 OFFCURVE",
"187 364 CURVE SMOOTH",
"187 364 OFFCURVE",
"187 364 OFFCURVE",
"187 364 CURVE SMOOTH"
);
},
{
closed = 1;
nodes = (
"174 579 OFFCURVE",
"174 579 OFFCURVE",
"174 579 CURVE SMOOTH",
"174 579 OFFCURVE",
"174 579 OFFCURVE",
"174 579 CURVE SMOOTH",
"174 579 OFFCURVE",
"174 579 OFFCURVE",
"174 579 CURVE SMOOTH",
"174 579 OFFCURVE",
"174 579 OFFCURVE",
"174 579 CURVE SMOOTH"
);
},
{
closed = 1;
nodes = (
"527 209 OFFCURVE",
"528 258 OFFCURVE",
"493 256 CURVE SMOOTH",
"475 255 LINE SMOOTH",
"441 253 OFFCURVE",
"446 199 OFFCURVE",
"481 203 CURVE SMOOTH",
"497 205 LINE SMOOTH"
);
}
);
width = 600;
},
{
associatedMasterId = "B4EA0C51-6804-4423-9CCC-BF57B26265D1";
layerId = "E5A0F234-3D66-4C41-808C-94E4DB23F6B0";
name = "Feb 17 20, 15:10";
paths = (
{
closed = 1;
nodes = (
"20 74 OFFCURVE",
"148 -11 OFFCURVE",
"285 -11 CURVE SMOOTH",
"363 -11 OFFCURVE",
"403 28 OFFCURVE",
"440 75 CURVE SMOOTH",
"452 90 OFFCURVE",
"463 76 OFFCURVE",
"463 59 CURVE SMOOTH",
"463 1 LINE SMOOTH",
"463 -48 OFFCURVE",
"540 -48 OFFCURVE",
"540 -2 CURVE SMOOTH",
"539 263 LINE SMOOTH",
"539 314 OFFCURVE",
"525 333 OFFCURVE",
"491 335 CURVE SMOOTH",
"360 343 LINE SMOOTH",
"312 346 OFFCURVE",
"311 279 OFFCURVE",
"356 277 CURVE SMOOTH",
"386 276 LINE SMOOTH",
"417 275 OFFCURVE",
"433 250 OFFCURVE",
"433 215 CURVE SMOOTH",
"433 122 OFFCURVE",
"382 51 OFFCURVE",
"303 51 CURVE SMOOTH",
"236 51 OFFCURVE",
"196 90 OFFCURVE",
"196 325 CURVE SMOOTH",
"196 615 OFFCURVE",
"251 661 OFFCURVE",
"360 661 CURVE SMOOTH",
"417 661 OFFCURVE",
"466 613 OFFCURVE",
"482 601 CURVE SMOOTH",
"496 591 OFFCURVE",
"517 624 OFFCURVE",
"512 634 CURVE SMOOTH",
"500 658 OFFCURVE",
"431 712 OFFCURVE",
"360 712 CURVE SMOOTH",
"208 712 OFFCURVE",
"20 666 OFFCURVE",
"20 333 CURVE SMOOTH"
);
},
{
closed = 1;
nodes = (
"193 620 OFFCURVE",
"193 620 OFFCURVE",
"193 620 CURVE SMOOTH",
"193 620 OFFCURVE",
"193 620 OFFCURVE",
"193 620 CURVE SMOOTH",
"193 620 OFFCURVE",
"193 620 OFFCURVE",
"193 620 CURVE SMOOTH",
"193 620 OFFCURVE",
"193 620 OFFCURVE",
"193 620 CURVE SMOOTH"
);
},
{
closed = 1;
nodes = (
"155 527 OFFCURVE",
"155 527 OFFCURVE",
"155 527 CURVE SMOOTH",
"155 527 OFFCURVE",
"155 527 OFFCURVE",
"155 527 CURVE SMOOTH",
"155 527 OFFCURVE",
"155 527 OFFCURVE",
"155 527 CURVE SMOOTH",
"155 527 OFFCURVE",
"155 527 OFFCURVE",
"155 527 CURVE SMOOTH"
);
},
{
closed = 1;
nodes = (
"174 579 OFFCURVE",
"174 579 OFFCURVE",
"174 579 CURVE SMOOTH",
"174 579 OFFCURVE",
"174 579 OFFCURVE",
"174 579 CURVE SMOOTH",
"174 579 OFFCURVE",
"174 579 OFFCURVE",
"174 579 CURVE SMOOTH",
"174 579 OFFCURVE",
"174 579 OFFCURVE",
"174 579 CURVE SMOOTH"
);
},
{
closed = 1;
nodes = (
"527 209 OFFCURVE",
"528 258 OFFCURVE",
"493 256 CURVE SMOOTH",
"475 255 LINE SMOOTH",
"441 253 OFFCURVE",
"446 199 OFFCURVE",
"481 203 CURVE SMOOTH",
"497 205 LINE SMOOTH"
);
}
);
width = 600;
}
);
unicode = 0047;
},
{
glyphname = H;
lastChange = "2020-02-18 21:39:23 +0000";
layers = (
{
layerId = "B4EA0C51-6804-4423-9CCC-BF57B26265D1";
paths = (
{
closed = 1;
nodes = (
"424 245 OFFCURVE",
"430 238 OFFCURVE",
"430 221 CURVE SMOOTH",
"429 20 LINE SMOOTH",
"429 -20 OFFCURVE",
"501 -23 OFFCURVE",
"501 19 CURVE SMOOTH",
"502 677 LINE SMOOTH",
"502 721 OFFCURVE",
"432 719 OFFCURVE",
"432 677 CURVE SMOOTH",
"431 461 LINE SMOOTH",
"431 445 OFFCURVE",
"424 433 OFFCURVE",
"407 433 CURVE SMOOTH",
"155 433 LINE SMOOTH",
"138 433 OFFCURVE",
"131 445 OFFCURVE",
"131 461 CURVE SMOOTH",
"130 677 LINE SMOOTH",
"130 719 OFFCURVE",
"60 721 OFFCURVE",
"60 677 CURVE SMOOTH",
"61 19 LINE SMOOTH",
"61 -23 OFFCURVE",
"133 -20 OFFCURVE",
"133 20 CURVE SMOOTH",
"132 221 LINE SMOOTH",
"132 238 OFFCURVE",
"138 245 OFFCURVE",
"155 245 CURVE SMOOTH",
"407 245 LINE SMOOTH"
);
},
{
closed = 1;
nodes = (
"285 566 OFFCURVE",
"285 566 OFFCURVE",
"285 566 CURVE SMOOTH",
"285 566 OFFCURVE",
"285 566 OFFCURVE",
"285 566 CURVE SMOOTH",
"285 566 OFFCURVE",
"285 566 OFFCURVE",
"285 566 CURVE SMOOTH",
"285 566 OFFCURVE",
"285 566 OFFCURVE",
"285 566 CURVE SMOOTH"
);
},
{
closed = 1;
nodes = (
"306 245 LINE",
"328 245 OFFCURVE",
"349 245 OFFCURVE",
"371 245 CURVE",
"371 245 LINE",
"306 245 LINE"
);
},
{
closed = 1;
nodes = (
"190 245 LINE",
"210 245 OFFCURVE",
"230 245 OFFCURVE",
"250 245 CURVE",
"250 245 LINE",
"190 245 LINE"
);
}
);
width = 562;
},
{
layerId = "7390BA8A-CD54-46A0-980C-73781B2212BF";
paths = (
{
closed = 1;
nodes = (
"396 192 OFFCURVE",
"402 186 OFFCURVE",
"402 169 CURVE SMOOTH",
"399 12 LINE SMOOTH",
"398 -50 OFFCURVE",
"506 -53 OFFCURVE",
"504 4 CURVE SMOOTH",
"486 655 LINE SMOOTH",
"485 699 OFFCURVE",
"406 697 OFFCURVE",
"410 655 CURVE SMOOTH",
"431 431 LINE SMOOTH",
"432 415 OFFCURVE",
"424 407 OFFCURVE",
"407 403 CURVE SMOOTH",
"157 351 LINE SMOOTH",
"140 347 OFFCURVE",
"132 363 OFFCURVE",
"133 379 CURVE SMOOTH",
"150 682 LINE SMOOTH",
"152 724 OFFCURVE",
"74 726 OFFCURVE",
"72 682 CURVE SMOOTH",
"47 45 LINE SMOOTH",
"45 -1 OFFCURVE",
"131 3 OFFCURVE",
"131 46 CURVE SMOOTH",
"132 179 LINE SMOOTH",
"132 196 OFFCURVE",
"138 204 OFFCURVE",
"155 203 CURVE SMOOTH",
"379 193 LINE SMOOTH"
);
},
{
closed = 1;
nodes = (
"319 463 OFFCURVE",
"348 492 OFFCURVE",
"348 526 CURVE SMOOTH",
"348 560 OFFCURVE",
"319 589 OFFCURVE",
"285 589 CURVE SMOOTH",
"251 589 OFFCURVE",
"222 560 OFFCURVE",
"222 526 CURVE SMOOTH",
"222 492 OFFCURVE",
"251 463 OFFCURVE",
"285 463 CURVE SMOOTH"
);
},
{
closed = 1;
nodes = (
"306 289 LINE SMOOTH",
"306 325 OFFCURVE",
"353 326 OFFCURVE",
"358 291 CURVE SMOOTH",
"371 193 LINE",
"306 196 LINE"
);
},
{
closed = 1;
nodes = (
"190 255 LINE SMOOTH",
"190 303 OFFCURVE",
"260 298 OFFCURVE",
"256 256 CURVE SMOOTH",
"250 199 LINE",
"190 202 LINE"
);
}
);
width = 551;
}
);
rightMetricsKey = "=|H";
unicode = 0048;
},
{
glyphname = I;
lastChange = "2020-02-18 22:27:47 +0000";
layers = (
{
layerId = "B4EA0C51-6804-4423-9CCC-BF57B26265D1";
paths = (
{
closed = 1;
nodes = (
"116 688 OFFCURVE",
"120 637 OFFCURVE",
"155 636 CURVE SMOOTH",
"274 634 LINE SMOOTH",
"316 633 OFFCURVE",
"312 694 OFFCURVE",
"274 693 CURVE SMOOTH",
"148 689 LINE SMOOTH"
);
},
{
closed = 1;
nodes = (
"113 160 OFFCURVE",
"113 105 OFFCURVE",
"143 105 CURVE SMOOTH",
"264 103 LINE SMOOTH",
"296 102 OFFCURVE",
"296 159 OFFCURVE",
"266 159 CURVE SMOOTH",
"146 160 LINE SMOOTH"
);
},
{
closed = 1;
nodes = (
"263 700 LINE",
"263 700 LINE",
"244 700 OFFCURVE",
"226 700 OFFCURVE",
"207 700 CURVE",
"207 700 LINE"
);
},
{
closed = 1;
nodes = (
"161 700 LINE",
"161 700 LINE",
"146 700 OFFCURVE",
"130 700 OFFCURVE",
"115 700 CURVE",
"115 700 LINE"
);
},
{
closed = 1;
nodes = (
"320 0 LINE SMOOTH",
"449 -1 OFFCURVE",
"448 200 OFFCURVE",
"320 200 CURVE SMOOTH",
"268 200 LINE SMOOTH",
"251 200 OFFCURVE",
"246 209 OFFCURVE",
"246 225 CURVE SMOOTH",
"247 610 LINE SMOOTH",
"247 625 OFFCURVE",
"253 630 OFFCURVE",
"268 630 CURVE SMOOTH",
"355 630 LINE SMOOTH",
"399 630 OFFCURVE",
"396 700 OFFCURVE",
"355 700 CURVE SMOOTH",
"71 700 LINE SMOOTH",
"31 700 OFFCURVE",
"33 631 OFFCURVE",
"70 631 CURVE SMOOTH",
"161 631 LINE SMOOTH",
"177 631 OFFCURVE",
"184 626 OFFCURVE",
"184 610 CURVE SMOOTH",
"182 225 LINE SMOOTH",
"182 209 OFFCURVE",
"177 202 OFFCURVE",
"161 202 CURVE SMOOTH",
"135 202 LINE SMOOTH",
"-17 202 OFFCURVE",
"-12 2 OFFCURVE",
"134 1 CURVE SMOOTH"
);
}
);
width = 439;
},
{
layerId = "7390BA8A-CD54-46A0-980C-73781B2212BF";
paths = (
{
closed = 1;
nodes = (
"74 240 OFFCURVE",
"84 168 OFFCURVE",
"133 182 CURVE SMOOTH",
"303 230 LINE SMOOTH",
"338 240 OFFCURVE",
"327 294 OFFCURVE",
"289 286 CURVE SMOOTH",
"113 248 LINE SMOOTH"
);
},
{
closed = 1;
nodes = (
"113 397 OFFCURVE",
"109 347 OFFCURVE",
"149 343 CURVE SMOOTH",
"350 325 LINE SMOOTH",
"389 322 OFFCURVE",
"392 392 OFFCURVE",
"352 393 CURVE SMOOTH",
"153 396 LINE SMOOTH"
);
},
{
closed = 1;
nodes = (
"263 696 LINE",
"267 637 LINE SMOOTH",
"270 594 OFFCURVE",
"207 584 OFFCURVE",
"207 628 CURVE SMOOTH",
"207 700 LINE"
);
},
{
closed = 1;
nodes = (
"171 703 LINE",
"163 614 LINE SMOOTH",
"160 583 OFFCURVE",
"102 581 OFFCURVE",
"106 617 CURVE SMOOTH",
"116 708 LINE"
);
},
{
closed = 1;
nodes = (
"390 10 LINE SMOOTH",
"430 16 OFFCURVE",
"429 82 OFFCURVE",
"383 80 CURVE SMOOTH",
"289 75 LINE SMOOTH",
"269 74 OFFCURVE",
"262 82 OFFCURVE",
"261 103 CURVE SMOOTH",
"235 506 LINE SMOOTH",
"234 516 OFFCURVE",
"237 522 OFFCURVE",
"248 523 CURVE SMOOTH",
"329 530 LINE SMOOTH",
"441 540 OFFCURVE",
"444 681 OFFCURVE",
"335 690 CURVE SMOOTH",
"100 709 LINE SMOOTH",
"-18 719 OFFCURVE",
"-16 502 OFFCURVE",
"106 512 CURVE SMOOTH",
"157 516 LINE SMOOTH",
"166 517 OFFCURVE",
"172 513 OFFCURVE",
"173 504 CURVE SMOOTH",
"209 98 LINE SMOOTH",
"211 79 OFFCURVE",
"207 70 OFFCURVE",
"189 69 CURVE SMOOTH",
"65 62 LINE SMOOTH",
"2 58 OFFCURVE",
"8 -36 OFFCURVE",
"73 -28 CURVE SMOOTH"
);
}
);
width = 439;
},
{
associatedMasterId = "B4EA0C51-6804-4423-9CCC-BF57B26265D1";
layerId = "C93D4677-1E4E-41AC-8E6D-B1CC62657D83";
name = "Feb 18 20, 14:25";
paths = (
{
closed = 1;
nodes = (
"246 39 LINE",
"247 664 LINE",
"184 664 LINE",
"181 40 LINE"
);
},
{
closed = 1;
nodes = (
"-17 203 OFFCURVE",
"-12 2 OFFCURVE",
"134 1 CURVE SMOOTH",
"320 0 LINE SMOOTH",
"449 -1 OFFCURVE",
"448 199 OFFCURVE",
"320 200 CURVE SMOOTH",
"135 202 LINE SMOOTH"
);
},
{
closed = 1;
nodes = (
"31 700 OFFCURVE",
"33 631 OFFCURVE",
"70 631 CURVE SMOOTH",
"355 630 LINE SMOOTH",
"399 630 OFFCURVE",
"396 700 OFFCURVE",
"355 700 CURVE SMOOTH",
"71 700 LINE SMOOTH"
);
},
{
closed = 1;
nodes = (
"116 688 OFFCURVE",
"120 637 OFFCURVE",
"155 636 CURVE SMOOTH",
"274 634 LINE SMOOTH",
"316 633 OFFCURVE",
"312 694 OFFCURVE",
"274 693 CURVE SMOOTH",
"148 689 LINE SMOOTH"
);
},
{
closed = 1;
nodes = (
"113 160 OFFCURVE",
"113 105 OFFCURVE",
"143 105 CURVE SMOOTH",
"264 103 LINE SMOOTH",
"296 102 OFFCURVE",
"296 159 OFFCURVE",
"266 159 CURVE SMOOTH",
"146 160 LINE SMOOTH"
);
},
{
closed = 1;
nodes = (
"263 700 LINE",
"263 700 LINE",
"244 700 OFFCURVE",
"226 700 OFFCURVE",
"207 700 CURVE",
"207 700 LINE"
);
},
{
closed = 1;
nodes = (
"161 700 LINE",
"161 700 LINE",
"146 700 OFFCURVE",
"130 700 OFFCURVE",
"115 700 CURVE",
"115 700 LINE"
);
}
);
width = 439;
},
{
associatedMasterId = "7390BA8A-CD54-46A0-980C-73781B2212BF";
layerId = "D79F8B7D-C51C-4AA7-B008-6F48DECFD9C9";
name = "Feb 18 20, 14:26";
paths = (
{
closed = 1;
nodes = (
"266 29 LINE",
"231 570 LINE",
"167 570 LINE",
"215 30 LINE"
);
},
{
closed = 1;
nodes = (
"2 58 OFFCURVE",
"8 -36 OFFCURVE",
"73 -28 CURVE SMOOTH",
"390 10 LINE SMOOTH",
"430 16 OFFCURVE",
"429 83 OFFCURVE",
"383 80 CURVE SMOOTH",
"65 62 LINE SMOOTH"
);
},
{
closed = 1;
nodes = (
"-18 719 OFFCURVE",
"-16 502 OFFCURVE",
"106 512 CURVE SMOOTH",
"329 530 LINE SMOOTH",
"441 539 OFFCURVE",
"444 681 OFFCURVE",
"335 690 CURVE SMOOTH",
"100 709 LINE SMOOTH"
);
},
{
closed = 1;
nodes = (
"74 240 OFFCURVE",
"84 168 OFFCURVE",
"133 182 CURVE SMOOTH",
"303 230 LINE SMOOTH",
"338 240 OFFCURVE",
"327 294 OFFCURVE",
"289 286 CURVE SMOOTH",
"113 248 LINE SMOOTH"
);
},
{
closed = 1;
nodes = (
"113 397 OFFCURVE",
"109 347 OFFCURVE",
"149 343 CURVE SMOOTH",
"350 325 LINE SMOOTH",
"389 322 OFFCURVE",
"392 392 OFFCURVE",
"352 393 CURVE SMOOTH",
"153 396 LINE SMOOTH"
);
},
{
closed = 1;
nodes = (
"263 696 LINE",
"267 637 LINE SMOOTH",
"270 594 OFFCURVE",
"207 584 OFFCURVE",
"207 628 CURVE SMOOTH",
"207 700 LINE"
);
},
{
closed = 1;
nodes = (
"171 703 LINE",
"163 614 LINE SMOOTH",
"160 583 OFFCURVE",
"102 581 OFFCURVE",
"106 617 CURVE SMOOTH",
"116 708 LINE"
);
}
);
width = 439;
}
);
unicode = 0049;
},
{
glyphname = J;
lastChange = "2020-02-18 22:22:27 +0000";
layers = (
{
layerId = "B4EA0C51-6804-4423-9CCC-BF57B26265D1";
paths = (
{
closed = 1;
nodes = (
"339 643 OFFCURVE",
"348 623 OFFCURVE",
"348 587 CURVE SMOOTH",
"346 324 LINE SMOOTH",
"345 253 OFFCURVE",
"298 201 OFFCURVE",
"203 201 CURVE SMOOTH",
"153 201 OFFCURVE",
"134 212 OFFCURVE",
"100 212 CURVE SMOOTH",
"55 212 OFFCURVE",
"24 174 OFFCURVE",
"24 114 CURVE SMOOTH",
"24 27 OFFCURVE",
"90 -10 OFFCURVE",
"182 -10 CURVE SMOOTH",
"327 -10 OFFCURVE",
"412 64 OFFCURVE",
"410 259 CURVE SMOOTH",
"406 613 LINE SMOOTH",
"405 669 OFFCURVE",
"392 700 OFFCURVE",
"334 700 CURVE SMOOTH",
"81 700 LINE SMOOTH",
"39 700 OFFCURVE",
"41 643 OFFCURVE",
"80 643 CURVE SMOOTH",
"302 643 LINE SMOOTH"
);
},
{
closed = 1;
nodes = (
"409 539 OFFCURVE",
"403 592 OFFCURVE",
"383 592 CURVE SMOOTH",
"373 592 LINE SMOOTH",
"351 592 OFFCURVE",
"351 530 OFFCURVE",
"376 534 CURVE SMOOTH",
"388 536 LINE SMOOTH"
);
},
{
closed = 1;
nodes = (
"371 466 LINE",
"382 466 LINE SMOOTH",
"405 466 OFFCURVE",
"405 521 OFFCURVE",
"382 521 CURVE SMOOTH",
"371 521 LINE"
);
},
{
closed = 1;
nodes = (
"374 224 OFFCURVE",
"385 235 OFFCURVE",
"385 249 CURVE SMOOTH",
"385 262 OFFCURVE",
"374 273 OFFCURVE",
"361 273 CURVE SMOOTH",
"347 273 OFFCURVE",
"336 262 OFFCURVE",
"336 249 CURVE SMOOTH",
"336 235 OFFCURVE",
"347 224 OFFCURVE",
"361 224 CURVE SMOOTH"
);
},
{
closed = 1;
nodes = (
"173 158 OFFCURVE",
"173 158 OFFCURVE",
"173 158 CURVE SMOOTH",
"173 158 OFFCURVE",
"173 158 OFFCURVE",
"173 158 CURVE SMOOTH",
"173 158 OFFCURVE",
"173 158 OFFCURVE",
"173 158 CURVE SMOOTH",
"173 158 OFFCURVE",
"173 158 OFFCURVE",
"173 158 CURVE SMOOTH"
);
},
{
closed = 1;
nodes = (
"89 52 OFFCURVE",
"89 52 OFFCURVE",
"89 52 CURVE SMOOTH",
"89 52 OFFCURVE",
"89 52 OFFCURVE",
"89 52 CURVE SMOOTH",
"89 52 OFFCURVE",
"89 52 OFFCURVE",
"89 52 CURVE SMOOTH",
"89 52 OFFCURVE",
"89 52 OFFCURVE",
"89 52 CURVE SMOOTH"
);
},
{
closed = 1;
nodes = (
"345 197 OFFCURVE",
"345 197 OFFCURVE",
"345 197 CURVE SMOOTH",
"345 197 OFFCURVE",
"345 197 OFFCURVE",
"345 197 CURVE SMOOTH",
"345 197 OFFCURVE",
"345 197 OFFCURVE",
"345 197 CURVE SMOOTH",
"345 197 OFFCURVE",
"345 197 OFFCURVE",
"345 197 CURVE SMOOTH"
);
}
);
width = 465;
},
{
layerId = "7390BA8A-CD54-46A0-980C-73781B2212BF";
paths = (
{
closed = 1;
nodes = (
"351 654 OFFCURVE",
"363 644 OFFCURVE",
"367 603 CURVE SMOOTH",
"394 338 LINE SMOOTH",
"403 248 OFFCURVE",
"348 194 OFFCURVE",
"253 194 CURVE SMOOTH",
"187 194 OFFCURVE",
"170 206 OFFCURVE",
"135 206 CURVE SMOOTH",
"50 206 OFFCURVE",
"32 98 OFFCURVE",
"76 45 CURVE SMOOTH",
"113 0 OFFCURVE",
"169 -17 OFFCURVE",
"241 -17 CURVE SMOOTH",
"371 -17 OFFCURVE",
"483 63 OFFCURVE",
"459 281 CURVE SMOOTH",
"423 607 LINE SMOOTH",
"417 666 OFFCURVE",
"412 705 OFFCURVE",
"354 708 CURVE SMOOTH",
"135 719 LINE SMOOTH",
"81 722 OFFCURVE",
"80 642 OFFCURVE",
"131 644 CURVE SMOOTH",
"322 653 LINE SMOOTH"
);
},
{
closed = 1;
nodes = (
"534 588 OFFCURVE",
"528 636 OFFCURVE",
"492 631 CURVE SMOOTH",
"113 578 LINE SMOOTH",
"49 569 OFFCURVE",
"71 493 OFFCURVE",
"125 504 CURVE SMOOTH",
"497 580 LINE SMOOTH"
);
},
{
closed = 1;
nodes = (
"421 450 LINE",
"494 445 LINE SMOOTH",
"541 442 OFFCURVE",
"543 522 OFFCURVE",
"494 518 CURVE SMOOTH",
"421 511 LINE"
);
},
{
closed = 1;
nodes = (
"266 312 OFFCURVE",
"293 339 OFFCURVE",
"293 372 CURVE SMOOTH",
"293 404 OFFCURVE",
"266 431 OFFCURVE",
"234 431 CURVE SMOOTH",
"201 431 OFFCURVE",
"174 404 OFFCURVE",
"174 372 CURVE SMOOTH",
"174 339 OFFCURVE",
"201 312 OFFCURVE",
"234 312 CURVE SMOOTH"
);
},
{
closed = 1;
nodes = (
"135 72 OFFCURVE",
"121 86 OFFCURVE",
"121 103 CURVE SMOOTH",
"121 121 OFFCURVE",
"135 134 OFFCURVE",
"152 134 CURVE SMOOTH",
"170 134 OFFCURVE",
"183 121 OFFCURVE",
"183 103 CURVE SMOOTH",
"183 86 OFFCURVE",
"170 72 OFFCURVE",
"152 72 CURVE SMOOTH"
);
},
{
closed = 1;
nodes = (
"224 45 OFFCURVE",
"207 62 OFFCURVE",
"207 84 CURVE SMOOTH",
"207 106 OFFCURVE",
"224 122 OFFCURVE",
"246 122 CURVE SMOOTH",
"268 122 OFFCURVE",
"284 106 OFFCURVE",
"284 84 CURVE SMOOTH",
"284 62 OFFCURVE",
"268 45 OFFCURVE",
"246 45 CURVE SMOOTH"
);
},
{
closed = 1;
nodes = (
"321 77 OFFCURVE",
"306 92 OFFCURVE",
"306 111 CURVE SMOOTH",
"306 130 OFFCURVE",
"321 144 OFFCURVE",
"340 144 CURVE SMOOTH",
"359 144 OFFCURVE",
"373 130 OFFCURVE",
"373 111 CURVE SMOOTH",
"373 92 OFFCURVE",
"359 77 OFFCURVE",
"340 77 CURVE SMOOTH"
);
}
);
width = 535;
},
{
associatedMasterId = "B4EA0C51-6804-4423-9CCC-BF57B26265D1";
layerId = "431A5F85-14EB-4984-8705-BF4F204E5F49";
name = "Feb 14 20, 12:29";
paths = (
{
closed = 1;
nodes = (
"241 357 OFFCURVE",
"241 357 OFFCURVE",
"241 357 CURVE SMOOTH",
"241 357 OFFCURVE",
"241 357 OFFCURVE",
"241 357 CURVE SMOOTH",
"241 357 OFFCURVE",
"241 357 OFFCURVE",
"241 357 CURVE SMOOTH",
"241 357 OFFCURVE",
"241 357 OFFCURVE",
"241 357 CURVE SMOOTH"
);
},
{
closed = 1;
nodes = (
"439 583 LINE",
"450 583 LINE SMOOTH",
"473 583 OFFCURVE",
"473 638 OFFCURVE",
"450 638 CURVE SMOOTH",
"439 638 LINE"
);
},
{
closed = 1;
nodes = (
"439 476 LINE",
"450 476 LINE SMOOTH",
"473 476 OFFCURVE",
"473 531 OFFCURVE",
"450 531 CURVE SMOOTH",
"439 531 LINE"
);
},
{
closed = 1;
nodes = (
"182 107 OFFCURVE",
"182 107 OFFCURVE",
"182 107 CURVE SMOOTH",
"182 107 OFFCURVE",
"182 107 OFFCURVE",
"182 107 CURVE SMOOTH",
"182 107 OFFCURVE",
"182 107 OFFCURVE",
"182 107 CURVE SMOOTH",
"182 107 OFFCURVE",
"182 107 OFFCURVE",
"182 107 CURVE SMOOTH"
);
},
{
closed = 1;
nodes = (
"253 86 OFFCURVE",
"253 86 OFFCURVE",
"253 86 CURVE SMOOTH",
"253 86 OFFCURVE",
"253 86 OFFCURVE",
"253 86 CURVE SMOOTH",
"253 86 OFFCURVE",
"253 86 OFFCURVE",
"253 86 CURVE SMOOTH",
"253 86 OFFCURVE",
"253 86 OFFCURVE",
"253 86 CURVE SMOOTH"
);
},
{
closed = 1;
nodes = (
"361 122 OFFCURVE",
"361 122 OFFCURVE",
"361 122 CURVE SMOOTH",
"361 122 OFFCURVE",
"361 122 OFFCURVE",
"361 122 CURVE SMOOTH",
"361 122 OFFCURVE",
"361 122 OFFCURVE",
"361 122 CURVE SMOOTH",
"361 122 OFFCURVE",
"361 122 OFFCURVE",
"361 122 CURVE SMOOTH"
);
},
{
closed = 1;
nodes = (
"413 578 OFFCURVE",
"415 461 OFFCURVE",
"415 470 CURVE SMOOTH",
"414 321 LINE SMOOTH",
"413 248 OFFCURVE",
"366 194 OFFCURVE",
"271 194 CURVE SMOOTH",
"192 194 OFFCURVE",
"188 206 OFFCURVE",
"153 206 CURVE SMOOTH",
"68 206 OFFCURVE",
"50 98 OFFCURVE",
"94 45 CURVE SMOOTH",
"128 4 OFFCURVE",
"187 -17 OFFCURVE",
"248 -17 CURVE SMOOTH",
"389 -17 OFFCURVE",
"480 61 OFFCURVE",
"478 256 CURVE SMOOTH",
"477 399 OFFCURVE",
"473 605 OFFCURVE",
"473 671 CURVE SMOOTH",
"473 718 OFFCURVE",
"400 716 OFFCURVE",
"405 665 CURVE SMOOTH"
);
}
);
width = 536;
},
{
associatedMasterId = "B4EA0C51-6804-4423-9CCC-BF57B26265D1";
layerId = "DF418906-D5FC-46BF-8D4D-67243F74F1F5";
name = "Feb 14 20, 12:29";
paths = (
{
closed = 1;
nodes = (
"388 816 OFFCURVE",
"382 871 OFFCURVE",
"346 870 CURVE SMOOTH",
"104 862 LINE SMOOTH",
"64 861 OFFCURVE",
"63 802 OFFCURVE",
"107 804 CURVE SMOOTH",
"351 814 LINE SMOOTH"
);
},
{
closed = 1;
nodes = (
"241 357 OFFCURVE",
"241 357 OFFCURVE",
"241 357 CURVE SMOOTH",
"241 357 OFFCURVE",
"241 357 OFFCURVE",
"241 357 CURVE SMOOTH",
"241 357 OFFCURVE",
"241 357 OFFCURVE",
"241 357 CURVE SMOOTH",
"241 357 OFFCURVE",
"241 357 OFFCURVE",
"241 357 CURVE SMOOTH"
);
},
{
closed = 1;
nodes = (
"439 583 LINE",
"450 583 LINE SMOOTH",
"473 583 OFFCURVE",
"473 638 OFFCURVE",
"450 638 CURVE SMOOTH",
"439 638 LINE"
);
},
{
closed = 1;
nodes = (
"439 476 LINE",
"450 476 LINE SMOOTH",
"473 476 OFFCURVE",
"473 531 OFFCURVE",
"450 531 CURVE SMOOTH",
"439 531 LINE"
);
},
{
closed = 1;
nodes = (
"182 107 OFFCURVE",
"182 107 OFFCURVE",
"182 107 CURVE SMOOTH",
"182 107 OFFCURVE",
"182 107 OFFCURVE",
"182 107 CURVE SMOOTH",
"182 107 OFFCURVE",
"182 107 OFFCURVE",
"182 107 CURVE SMOOTH",
"182 107 OFFCURVE",
"182 107 OFFCURVE",
"182 107 CURVE SMOOTH"
);
},
{
closed = 1;
nodes = (
"253 86 OFFCURVE",
"253 86 OFFCURVE",
"253 86 CURVE SMOOTH",
"253 86 OFFCURVE",
"253 86 OFFCURVE",
"253 86 CURVE SMOOTH",
"253 86 OFFCURVE",
"253 86 OFFCURVE",
"253 86 CURVE SMOOTH",
"253 86 OFFCURVE",
"253 86 OFFCURVE",
"253 86 CURVE SMOOTH"
);
},
{
closed = 1;
nodes = (
"361 122 OFFCURVE",
"361 122 OFFCURVE",
"361 122 CURVE SMOOTH",
"361 122 OFFCURVE",
"361 122 OFFCURVE",
"361 122 CURVE SMOOTH",
"361 122 OFFCURVE",
"361 122 OFFCURVE",
"361 122 CURVE SMOOTH",
"361 122 OFFCURVE",
"361 122 OFFCURVE",
"361 122 CURVE SMOOTH"
);
},
{
closed = 1;
nodes = (
"412 653 OFFCURVE",
"416 605 OFFCURVE",
"415 470 CURVE SMOOTH",
"414 321 LINE SMOOTH",
"413 248 OFFCURVE",
"366 194 OFFCURVE",
"271 194 CURVE SMOOTH",
"192 194 OFFCURVE",
"188 206 OFFCURVE",
"153 206 CURVE SMOOTH",
"68 206 OFFCURVE",
"50 98 OFFCURVE",
"94 45 CURVE SMOOTH",
"128 4 OFFCURVE",
"187 -17 OFFCURVE",
"248 -17 CURVE SMOOTH",
"389 -17 OFFCURVE",
"480 61 OFFCURVE",
"478 256 CURVE SMOOTH",
"477 377 OFFCURVE",
"476 550 OFFCURVE",
"474 591 CURVE SMOOTH",
"471 650 OFFCURVE",
"460 707 OFFCURVE",
"402 708 CURVE SMOOTH",
"147 713 LINE SMOOTH",
"105 714 OFFCURVE",
"104 650 OFFCURVE",
"143 650 CURVE SMOOTH",
"370 653 LINE SMOOTH"
);
}
);
width = 536;
}
);
rightMetricsKey = "=H-5";
unicode = 004A;
},
{
glyphname = K;
lastChange = "2020-02-11 22:56:10 +0000";
layers = (
{
layerId = "B4EA0C51-6804-4423-9CCC-BF57B26265D1";
paths = (
{
closed = 1;
nodes = (
"60 -18 OFFCURVE",
"134 -18 OFFCURVE",
"134 20 CURVE SMOOTH",
"135 173 LINE SMOOTH",
"135 199 OFFCURVE",
"148 199 OFFCURVE",
"169 183 CURVE SMOOTH",
"399 7 LINE SMOOTH",
"483 -57 OFFCURVE",
"562 12 OFFCURVE",
"562 86 CURVE SMOOTH",
"562 117 OFFCURVE",
"547 148 OFFCURVE",
"512 171 CURVE SMOOTH",
"286 318 LINE SMOOTH",
"268 330 OFFCURVE",
"264 344 OFFCURVE",
"281 365 CURVE SMOOTH",
"504 646 LINE SMOOTH",
"534 683 OFFCURVE",
"474 737 OFFCURVE",
"444 698 CURVE SMOOTH",
"169 333 LINE SMOOTH",
"153 312 OFFCURVE",
"135 316 OFFCURVE",
"135 338 CURVE SMOOTH",
"137 683 LINE SMOOTH",
"137 720 OFFCURVE",
"62 720 OFFCURVE",
"62 685 CURVE SMOOTH",
"60 21 LINE SMOOTH"
);
},
{
closed = 1;
nodes = (
"461 204 LINE SMOOTH",
"461 204 OFFCURVE",
"415 235 OFFCURVE",
"415 235 CURVE SMOOTH",
"415 235 LINE",
"461 204 LINE"
);
},
{
closed = 1;
nodes = (
"383 255 LINE",
"383 255 OFFCURVE",
"331 289 OFFCURVE",
"331 289 CURVE",
"331 289 LINE",
"383 255 LINE"
);
},
{
closed = 1;
nodes = (
"241 285 OFFCURVE",
"253 297 OFFCURVE",
"253 313 CURVE SMOOTH",
"253 328 OFFCURVE",
"241 340 OFFCURVE",
"226 340 CURVE SMOOTH",
"210 340 OFFCURVE",
"198 328 OFFCURVE",
"198 313 CURVE SMOOTH",
"198 297 OFFCURVE",
"210 285 OFFCURVE",
"226 285 CURVE SMOOTH"
);
},
{
closed = 1;
nodes = (
"384 626 OFFCURVE",
"350 573 OFFCURVE",
"375 558 CURVE SMOOTH",
"398 544 LINE SMOOTH",
"419 531 OFFCURVE",
"456 581 OFFCURVE",
"427 599 CURVE SMOOTH",
"406 612 LINE SMOOTH"
);
},
{
closed = 1;
nodes = (
"325 550 OFFCURVE",
"291 497 OFFCURVE",
"316 482 CURVE SMOOTH",
"339 468 LINE SMOOTH",
"360 455 OFFCURVE",
"397 505 OFFCURVE",
"368 523 CURVE SMOOTH",
"347 536 LINE SMOOTH"
);
}
);
width = 574;
},
{
associatedMasterId = "B4EA0C51-6804-4423-9CCC-BF57B26265D1";
layerId = "26C05B68-22BE-469B-A80A-4E2A8B51FCCC";
name = "Jan 26 20, 14:07";
paths = (
{
closed = 1;
nodes = (
"325 332 LINE",
"547 -3 LINE SMOOTH",
"566 -32 OFFCURVE",
"625 7 OFFCURVE",
"605 37 CURVE SMOOTH",
"377 376 LINE"
);
},
{
closed = 1;
nodes = (
"158 676 LINE SMOOTH",
"158 713 OFFCURVE",
"83 713 OFFCURVE",
"83 678 CURVE SMOOTH",
"81 23 LINE SMOOTH",
"81 -15 OFFCURVE",
"155 -18 OFFCURVE",
"155 20 CURVE SMOOTH"
);
},
{
closed = 1;
nodes = (
"131 126 LINE",
"604 538 LINE SMOOTH",
"659 586 OFFCURVE",
"514 754 OFFCURVE",
"467 709 CURVE SMOOTH",
"297 547 LINE",
"301 368 LINE",
"148 229 LINE"
);
}
);
width = 667;
},
{
associatedMasterId = "B4EA0C51-6804-4423-9CCC-BF57B26265D1";
layerId = "D5C486D0-F9B2-47A8-A491-9397996C432C";
name = "Jan 26 20, 14:36";
paths = (
{
closed = 1;
nodes = (
"122 309 LINE",
"196 150 OFFCURVE",
"334 -10 OFFCURVE",
"445 -10 CURVE SMOOTH",
"545 -10 OFFCURVE",
"606 103 OFFCURVE",
"573 272 CURVE",
"455 233 OFFCURVE",
"273 259 OFFCURVE",
"136 344 CURVE"
);
},
{
closed = 1;
nodes = (
"150 676 LINE SMOOTH",
"150 713 OFFCURVE",
"75 713 OFFCURVE",
"75 678 CURVE SMOOTH",
"73 23 LINE SMOOTH",
"73 -15 OFFCURVE",
"147 -18 OFFCURVE",
"147 20 CURVE SMOOTH"
);
},
{
closed = 1;
nodes = (
"170 315 LINE",
"526 650 LINE SMOOTH",
"561 683 OFFCURVE",
"501 737 OFFCURVE",
"466 702 CURVE SMOOTH",
"116 351 LINE"
);
}
);
width = 639;
},
{
layerId = "7390BA8A-CD54-46A0-980C-73781B2212BF";
paths = (
{
closed = 1;
nodes = (
"87 -27 OFFCURVE",
"157 -20 OFFCURVE",
"154 24 CURVE SMOOTH",
"140 223 LINE SMOOTH",
"138 249 OFFCURVE",
"154 251 OFFCURVE",
"174 233 CURVE SMOOTH",
"408 22 LINE SMOOTH",
"487 -50 OFFCURVE",
"582 3 OFFCURVE",
"582 96 CURVE SMOOTH",
"582 181 OFFCURVE",
"567 220 OFFCURVE",
"514 233 CURVE SMOOTH",
"225 302 LINE SMOOTH",
"205 307 OFFCURVE",
"200 330 OFFCURVE",
"220 349 CURVE SMOOTH",
"540 647 LINE SMOOTH",
"581 685 OFFCURVE",
"522 746 OFFCURVE",
"484 708 CURVE SMOOTH",
"166 383 LINE SMOOTH",
"147 364 OFFCURVE",
"133 366 OFFCURVE",
"132 388 CURVE SMOOTH",
"117 663 LINE SMOOTH",
"114 716 OFFCURVE",
"29 713 OFFCURVE",
"33 657 CURVE SMOOTH",
"83 18 LINE SMOOTH"
);
},
{
closed = 1;
nodes = (
"493 108 LINE SMOOTH",
"491 64 OFFCURVE",
"432 75 OFFCURVE",
"437 114 CURVE SMOOTH",
"453 248 LINE",
"500 236 LINE"
);
},
{
closed = 1;
nodes = (
"386 196 LINE SMOOTH",
"376 159 OFFCURVE",
"310 186 OFFCURVE",
"326 222 CURVE SMOOTH",
"349 273 LINE",
"403 259 LINE"
);
},
{
closed = 1;
nodes = (
"457 324 OFFCURVE",
"482 349 OFFCURVE",
"482 380 CURVE SMOOTH",
"482 410 OFFCURVE",
"457 435 OFFCURVE",
"427 435 CURVE SMOOTH",
"396 435 OFFCURVE",
"371 410 OFFCURVE",
"371 380 CURVE SMOOTH",
"371 349 OFFCURVE",
"396 324 OFFCURVE",
"427 324 CURVE SMOOTH"
);
},
{
closed = 1;
nodes = (
"335 678 OFFCURVE",
"303 629 OFFCURVE",
"333 603 CURVE SMOOTH",
"458 494 LINE SMOOTH",
"492 465 OFFCURVE",
"543 526 OFFCURVE",
"499 558 CURVE SMOOTH",
"370 652 LINE SMOOTH"
);
},
{
closed = 1;
nodes = (
"226 630 OFFCURVE",
"176 562 OFFCURVE",
"224 533 CURVE SMOOTH",
"320 474 LINE SMOOTH",
"340 462 OFFCURVE",
"375 504 OFFCURVE",
"347 527 CURVE SMOOTH",
"266 596 LINE SMOOTH"
);
}
);
width = 614;
},
{
associatedMasterId = "B4EA0C51-6804-4423-9CCC-BF57B26265D1";
layerId = "D5107389-53CD-4225-8C6E-E142FC6ED3AE";
name = "Feb 6 20, 16:23";
paths = (
{
closed = 1;
nodes = (
"114 199 LINE",
"463 3 LINE SMOOTH",
"535 -37 OFFCURVE",
"571 -36 OFFCURVE",
"571 37 CURVE SMOOTH",
"571 124 OFFCURVE",
"557 241 OFFCURVE",
"503 243 CURVE SMOOTH",
"128 254 LINE"
);
},
{
closed = 1;
nodes = (
"142 676 LINE SMOOTH",
"142 713 OFFCURVE",
"67 713 OFFCURVE",
"67 678 CURVE SMOOTH",
"65 23 LINE SMOOTH",
"65 -15 OFFCURVE",
"139 -18 OFFCURVE",
"139 20 CURVE SMOOTH"
);
},
{
closed = 1;
nodes = (
"181 205 LINE",
"509 646 LINE SMOOTH",
"541 682 OFFCURVE",
"480 736 OFFCURVE",
"449 698 CURVE SMOOTH",
"127 241 LINE"
);
},
{
closed = 1;
nodes = (
"479 244 LINE SMOOTH",
"479 244 OFFCURVE",
"424 245 OFFCURVE",
"424 245 CURVE SMOOTH",
"424 245 LINE",
"479 244 LINE"
);
},
{
closed = 1;
nodes = (
"374 247 LINE",
"374 247 OFFCURVE",
"319 248 OFFCURVE",
"319 248 CURVE",
"319 248 LINE",
"374 247 LINE"
);
},
{
closed = 1;
nodes = (
"435 371 OFFCURVE",
"435 371 OFFCURVE",
"435 371 CURVE SMOOTH",
"435 371 OFFCURVE",
"435 371 OFFCURVE",
"435 371 CURVE SMOOTH",
"435 371 OFFCURVE",
"435 371 OFFCURVE",
"435 371 CURVE SMOOTH",
"435 371 OFFCURVE",
"435 371 OFFCURVE",
"435 371 CURVE SMOOTH"
);
}
);
width = 589;
},
{
associatedMasterId = "7390BA8A-CD54-46A0-980C-73781B2212BF";
layerId = "27C79AA4-2835-4E08-AD7A-5BC10B25604D";
name = "Feb 7 20, 15:21";
paths = (
{
closed = 1;
nodes = (
"114 199 LINE",
"463 3 LINE SMOOTH",
"529 -47 OFFCURVE",
"571 -36 OFFCURVE",
"571 37 CURVE SMOOTH",
"571 124 OFFCURVE",
"557 241 OFFCURVE",
"503 243 CURVE SMOOTH",
"128 254 LINE"
);
},
{
closed = 1;
nodes = (
"142 676 LINE SMOOTH",
"142 713 OFFCURVE",
"67 713 OFFCURVE",
"67 678 CURVE SMOOTH",
"65 23 LINE SMOOTH",
"65 -15 OFFCURVE",
"139 -18 OFFCURVE",
"139 20 CURVE SMOOTH"
);
},
{
closed = 1;
nodes = (
"181 205 LINE",
"509 646 LINE SMOOTH",
"541 682 OFFCURVE",
"480 736 OFFCURVE",
"449 698 CURVE SMOOTH",
"127 241 LINE"
);
},
{
closed = 1;
nodes = (
"479 129 LINE SMOOTH",
"479 106 OFFCURVE",
"424 106 OFFCURVE",
"424 129 CURVE SMOOTH",
"424 245 LINE",
"479 244 LINE"
);
},
{
closed = 1;
nodes = (
"374 172 LINE SMOOTH",
"374 149 OFFCURVE",
"319 149 OFFCURVE",
"319 172 CURVE SMOOTH",
"319 248 LINE",
"374 247 LINE"
);
},
{
closed = 1;
nodes = (
"465 315 OFFCURVE",
"490 340 OFFCURVE",
"490 371 CURVE SMOOTH",
"490 401 OFFCURVE",
"465 426 OFFCURVE",
"435 426 CURVE SMOOTH",
"404 426 OFFCURVE",
"379 401 OFFCURVE",
"379 371 CURVE SMOOTH",
"379 340 OFFCURVE",
"404 315 OFFCURVE",
"435 315 CURVE SMOOTH"
);
}
);
width = 589;
},
{
associatedMasterId = "7390BA8A-CD54-46A0-980C-73781B2212BF";
layerId = "E08CCFB9-F6DE-49E7-BC56-095B4C3D1949";
name = "Feb 10 20, 16:40";
paths = (
{
closed = 1;
nodes = (
"60 -18 OFFCURVE",
"134 -18 OFFCURVE",
"134 20 CURVE SMOOTH",
"135 173 LINE SMOOTH",
"135 199 OFFCURVE",
"148 199 OFFCURVE",
"169 183 CURVE SMOOTH",
"399 7 LINE SMOOTH",
"483 -57 OFFCURVE",
"562 12 OFFCURVE",
"562 86 CURVE SMOOTH",
"562 117 OFFCURVE",
"547 148 OFFCURVE",
"512 171 CURVE SMOOTH",
"286 318 LINE SMOOTH",
"268 330 OFFCURVE",
"264 344 OFFCURVE",
"281 365 CURVE SMOOTH",
"504 646 LINE SMOOTH",
"534 683 OFFCURVE",
"474 737 OFFCURVE",
"444 698 CURVE SMOOTH",
"169 333 LINE SMOOTH",
"153 312 OFFCURVE",
"135 316 OFFCURVE",
"135 338 CURVE SMOOTH",
"137 683 LINE SMOOTH",
"137 720 OFFCURVE",
"62 720 OFFCURVE",
"62 685 CURVE SMOOTH",
"60 21 LINE SMOOTH"
);
},
{
closed = 1;
nodes = (
"497 114 LINE SMOOTH",
"497 91 OFFCURVE",
"442 91 OFFCURVE",
"442 114 CURVE SMOOTH",
"442 217 LINE",
"497 181 LINE"
);
},
{
closed = 1;
nodes = (
"389 177 LINE SMOOTH",
"389 154 OFFCURVE",
"334 154 OFFCURVE",
"334 177 CURVE SMOOTH",
"334 288 LINE",
"389 251 LINE"
);
},
{
closed = 1;
nodes = (
"460 310 OFFCURVE",
"485 335 OFFCURVE",
"485 366 CURVE SMOOTH",
"485 396 OFFCURVE",
"460 421 OFFCURVE",
"430 421 CURVE SMOOTH",
"399 421 OFFCURVE",
"374 396 OFFCURVE",
"374 366 CURVE SMOOTH",
"374 335 OFFCURVE",
"399 310 OFFCURVE",
"430 310 CURVE SMOOTH"
);
},
{
closed = 1;
nodes = (
"384 626 OFFCURVE",
"350 573 OFFCURVE",
"375 558 CURVE SMOOTH",
"398 544 LINE SMOOTH",
"419 531 OFFCURVE",
"456 581 OFFCURVE",
"427 599 CURVE SMOOTH",
"406 612 LINE SMOOTH"
);
},
{
closed = 1;
nodes = (
"325 550 OFFCURVE",
"291 497 OFFCURVE",
"316 482 CURVE SMOOTH",
"339 468 LINE SMOOTH",
"360 455 OFFCURVE",
"397 505 OFFCURVE",
"368 523 CURVE SMOOTH",
"347 536 LINE SMOOTH"
);
}
);
width = 574;
}
);
unicode = 004B;
},
{
glyphname = L;
lastChange = "2020-02-14 20:52:22 +0000";
layers = (
{
layerId = "B4EA0C51-6804-4423-9CCC-BF57B26265D1";
paths = (
{
closed = 1;
nodes = (
"60 35 OFFCURVE",
"101 0 OFFCURVE",
"161 0 CURVE SMOOTH",
"353 0 LINE SMOOTH",
"475 0 OFFCURVE",
"469 199 OFFCURVE",
"353 200 CURVE SMOOTH",
"169 201 LINE SMOOTH",
"144 201 OFFCURVE",
"132 213 OFFCURVE",
"132 245 CURVE SMOOTH",
"133 681 LINE SMOOTH",
"133 724 OFFCURVE",
"63 724 OFFCURVE",
"63 681 CURVE SMOOTH",
"60 103 LINE SMOOTH"
);
},
{
closed = 1;
nodes = (
"118 635 LINE",
"102 635 LINE SMOOTH",
"78 635 OFFCURVE",
"71 581 OFFCURVE",
"105 578 CURVE SMOOTH",
"115 577 LINE"
);
},
{
closed = 1;
nodes = (
"119 437 LINE",
"95 440 LINE SMOOTH",
"72 443 OFFCURVE",
"58 377 OFFCURVE",
"96 373 CURVE SMOOTH",
"113 371 LINE"
);
},
{
closed = 1;
nodes = (
"330 200 LINE",
"314 200 OFFCURVE",
"299 200 OFFCURVE",
"283 200 CURVE",
"283 200 LINE",
"330 200 LINE"
);
},
{
closed = 1;
nodes = (
"254 201 LINE",
"238 201 OFFCURVE",
"222 201 OFFCURVE",
"206 201 CURVE",
"206 201 LINE",
"254 201 LINE"
);
}
);
width = 461;
},
{
layerId = "7390BA8A-CD54-46A0-980C-73781B2212BF";
paths = (
{
closed = 1;
nodes = (
"62 34 OFFCURVE",
"98 -6 OFFCURVE",
"165 -4 CURVE SMOOTH",
"391 4 LINE SMOOTH",
"571 10 OFFCURVE",
"481 325 OFFCURVE",
"336 215 CURVE SMOOTH",
"180 96 LINE SMOOTH",
"160 81 OFFCURVE",
"135 90 OFFCURVE",
"140 123 CURVE SMOOTH",
"223 681 LINE SMOOTH",
"231 733 OFFCURVE",
"146 744 OFFCURVE",
"140 691 CURVE SMOOTH",
"72 120 LINE SMOOTH"
);
},
{
closed = 1;
nodes = (
"135 512 LINE",
"37 511 LINE SMOOTH",
"-8 511 OFFCURVE",
"-7 429 OFFCURVE",
"47 439 CURVE SMOOTH",
"132 454 LINE"
);
},
{
closed = 1;
nodes = (
"171 640 LINE",
"70 643 LINE SMOOTH",
"37 644 OFFCURVE",
"26 581 OFFCURVE",
"71 576 CURVE SMOOTH",
"165 565 LINE"
);
},
{
closed = 1;
nodes = (
"379 146 LINE SMOOTH",
"407 113 OFFCURVE",
"356 73 OFFCURVE",
"330 109 CURVE SMOOTH",
"283 175 LINE",
"327 208 LINE"
);
},
{
closed = 1;
nodes = (
"276 96 LINE SMOOTH",
"289 63 OFFCURVE",
"244 44 OFFCURVE",
"229 77 CURVE SMOOTH",
"210 119 LINE",
"254 152 LINE"
);
}
);
width = 541;
}
);
unicode = 004C;
},
{
glyphname = M;
lastChange = "2020-02-18 01:46:59 +0000";
layers = (
{
layerId = "7390BA8A-CD54-46A0-980C-73781B2212BF";
paths = (
{
closed = 1;
nodes = (
"24 71 OFFCURVE",
"105 80 OFFCURVE",
"108 124 CURVE SMOOTH",
"120 317 LINE SMOOTH",
"123 361 OFFCURVE",
"155 367 OFFCURVE",
"185 335 CURVE SMOOTH",
"317 191 LINE SMOOTH",
"353 152 OFFCURVE",
"405 151 OFFCURVE",
"437 190 CURVE SMOOTH",
"562 341 LINE SMOOTH",
"591 376 OFFCURVE",
"630 360 OFFCURVE",
"637 311 CURVE SMOOTH",
"658 166 LINE SMOOTH",
"666 111 OFFCURVE",
"749 125 OFFCURVE",
"738 177 CURVE SMOOTH",
"639 650 LINE SMOOTH",
"624 720 OFFCURVE",
"519 728 OFFCURVE",
"497 652 CURVE SMOOTH",
"393 289 LINE SMOOTH",
"380 243 OFFCURVE",
"359 245 OFFCURVE",
"347 288 CURVE SMOOTH",
"237 676 LINE SMOOTH",
"213 761 OFFCURVE",
"97 749 OFFCURVE",
"89 675 CURVE SMOOTH",
"31 135 LINE SMOOTH"
);
},
{
closed = 1;
nodes = (
"41 26 OFFCURVE",
"41 -32 OFFCURVE",
"84 -30 CURVE SMOOTH",
"683 -7 LINE SMOOTH",
"723 -5 OFFCURVE",
"722 60 OFFCURVE",
"678 58 CURVE SMOOTH",
"84 28 LINE SMOOTH"
);
},
{
closed = 1;
nodes = (
"267 570 LINE",
"182 551 LINE SMOOTH",
"149 544 OFFCURVE",
"135 595 OFFCURVE",
"168 606 CURVE SMOOTH",
"249 633 LINE"
);
},
{
closed = 1;
nodes = (
"293 477 LINE",
"190 442 LINE SMOOTH",
"141 425 OFFCURVE",
"119 499 OFFCURVE",
"172 508 CURVE SMOOTH",
"279 526 LINE"
);
},
{
closed = 1;
nodes = (
"533 471 OFFCURVE",
"513 491 OFFCURVE",
"513 517 CURVE SMOOTH",
"513 542 OFFCURVE",
"533 562 OFFCURVE",
"559 562 CURVE SMOOTH",
"584 562 OFFCURVE",
"604 542 OFFCURVE",
"604 517 CURVE SMOOTH",
"604 491 OFFCURVE",
"584 471 OFFCURVE",
"559 471 CURVE SMOOTH"
);
}
);
width = 750;
},
{
associatedMasterId = "B4EA0C51-6804-4423-9CCC-BF57B26265D1";
layerId = "81240800-3FAA-4F11-9066-224776F2693C";
name = "Feb 14 20, 13:43";
paths = (
{
closed = 1;
nodes = (
"29 -42 OFFCURVE",
"97 -34 OFFCURVE",
"101 2 CURVE SMOOTH",
"135 291 LINE SMOOTH",
"141 338 OFFCURVE",
"167 342 OFFCURVE",
"198 309 CURVE SMOOTH",
"310 189 LINE SMOOTH",
"346 152 OFFCURVE",
"395 154 OFFCURVE",
"430 188 CURVE SMOOTH",
"554 309 LINE SMOOTH",
"586 339 OFFCURVE",
"614 327 OFFCURVE",
"621 277 CURVE SMOOTH",
"660 12 LINE SMOOTH",
"666 -31 OFFCURVE",
"733 -16 OFFCURVE",
"728 23 CURVE SMOOTH",
"632 648 LINE SMOOTH",
"621 718 OFFCURVE",
"508 729 OFFCURVE",
"488 650 CURVE SMOOTH",
"395 264 LINE SMOOTH",
"383 218 OFFCURVE",
"359 220 OFFCURVE",
"349 263 CURVE SMOOTH",
"251 655 LINE SMOOTH",
"231 736 OFFCURVE",
"109 721 OFFCURVE",
"103 654 CURVE SMOOTH",
"35 14 LINE SMOOTH"
);
}
);
width = 763;
},
{
associatedMasterId = "B4EA0C51-6804-4423-9CCC-BF57B26265D1";
layerId = "9A11F950-2B7D-42FF-BD91-B68E5CF022DB";
name = "Feb 14 20, 13:45";
paths = (
{
closed = 1;
nodes = (
"29 -42 OFFCURVE",
"96 -46 OFFCURVE",
"101 4 CURVE SMOOTH",
"136 340 LINE SMOOTH",
"141 387 OFFCURVE",
"172 391 OFFCURVE",
"198 353 CURVE SMOOTH",
"310 189 LINE SMOOTH",
"339 146 OFFCURVE",
"400 148 OFFCURVE",
"430 188 CURVE SMOOTH",
"554 353 LINE SMOOTH",
"581 389 OFFCURVE",
"608 382 OFFCURVE",
"615 332 CURVE SMOOTH",
"659 18 LINE SMOOTH",
"667 -41 OFFCURVE",
"735 -26 OFFCURVE",
"727 25 CURVE SMOOTH",
"632 648 LINE SMOOTH",
"621 718 OFFCURVE",
"528 724 OFFCURVE",
"498 668 CURVE SMOOTH",
"395 473 LINE SMOOTH",
"382 448 OFFCURVE",
"362 448 OFFCURVE",
"349 472 CURVE SMOOTH",
"241 673 LINE SMOOTH",
"208 735 OFFCURVE",
"109 721 OFFCURVE",
"103 654 CURVE SMOOTH",
"35 14 LINE SMOOTH"
);
}
);
width = 763;
},
{
associatedMasterId = "B4EA0C51-6804-4423-9CCC-BF57B26265D1";
layerId = "DA9880D9-9A99-4BDB-AF11-7E6DB239210A";
name = "Feb 14 20, 13:53";
paths = (
{
closed = 1;
nodes = (
"15 -28 OFFCURVE",
"82 -32 OFFCURVE",
"87 14 CURVE SMOOTH",
"117 302 LINE SMOOTH",
"121 342 OFFCURVE",
"159 347 OFFCURVE",
"178 308 CURVE SMOOTH",
"299 62 LINE SMOOTH",
"326 8 OFFCURVE",
"385 4 OFFCURVE",
"406 64 CURVE SMOOTH",
"485 291 LINE SMOOTH",
"497 326 OFFCURVE",
"534 328 OFFCURVE",
"542 286 CURVE SMOOTH",
"584 53 LINE SMOOTH",
"603 -54 OFFCURVE",
"784 -34 OFFCURVE",
"763 77 CURVE SMOOTH",
"649 673 LINE SMOOTH",
"640 721 OFFCURVE",
"565 727 OFFCURVE",
"550 678 CURVE SMOOTH",
"424 279 LINE SMOOTH",
"415 249 OFFCURVE",
"388 251 OFFCURVE",
"378 278 CURVE SMOOTH",
"227 669 LINE SMOOTH",
"199 741 OFFCURVE",
"95 728 OFFCURVE",
"87 654 CURVE SMOOTH",
"20 20 LINE SMOOTH"
);
}
);
width = 785;
},
{
associatedMasterId = "B4EA0C51-6804-4423-9CCC-BF57B26265D1";
layerId = "37C38C84-9D94-427A-9734-29F6B5366418";
name = "Feb 14 20, 14:02";
paths = (
{
closed = 1;
nodes = (
"29 -42 OFFCURVE",
"96 -46 OFFCURVE",
"101 4 CURVE SMOOTH",
"132 295 LINE SMOOTH",
"137 342 OFFCURVE",
"175 347 OFFCURVE",
"194 308 CURVE SMOOTH",
"315 62 LINE SMOOTH",
"342 8 OFFCURVE",
"397 10 OFFCURVE",
"424 61 CURVE SMOOTH",
"557 314 LINE SMOOTH",
"576 351 OFFCURVE",
"611 343 OFFCURVE",
"618 293 CURVE SMOOTH",
"659 18 LINE SMOOTH",
"668 -41 OFFCURVE",
"735 -26 OFFCURVE",
"727 25 CURVE SMOOTH",
"632 648 LINE SMOOTH",
"620 726 OFFCURVE",
"523 734 OFFCURVE",
"498 668 CURVE SMOOTH",
"395 393 LINE SMOOTH",
"385 365 OFFCURVE",
"359 365 OFFCURVE",
"349 392 CURVE SMOOTH",
"243 669 LINE SMOOTH",
"216 738 OFFCURVE",
"111 728 OFFCURVE",
"103 654 CURVE SMOOTH",
"35 14 LINE SMOOTH"
);
}
);
width = 763;
},
{
associatedMasterId = "B4EA0C51-6804-4423-9CCC-BF57B26265D1";
layerId = "7102D098-05D6-4E6C-9463-6E824602A2FE";
name = "Feb 14 20, 14:08";
paths = (
{
closed = 1;
nodes = (
"8 -44 OFFCURVE",
"194 -47 OFFCURVE",
"210 60 CURVE SMOOTH",
"243 283 LINE SMOOTH",
"249 323 OFFCURVE",
"289 327 OFFCURVE",
"304 289 CURVE SMOOTH",
"362 146 LINE SMOOTH",
"389 78 OFFCURVE",
"455 84 OFFCURVE",
"477 143 CURVE SMOOTH",
"530 287 LINE SMOOTH",
"543 322 OFFCURVE",
"580 324 OFFCURVE",
"587 282 CURVE SMOOTH",
"625 53 LINE SMOOTH",
"643 -55 OFFCURVE",
"824 -34 OFFCURVE",
"804 77 CURVE SMOOTH",
"696 673 LINE SMOOTH",
"687 721 OFFCURVE",
"605 727 OFFCURVE",
"589 678 CURVE SMOOTH",
"444 225 LINE SMOOTH",
"434 195 OFFCURVE",
"408 196 OFFCURVE",
"398 224 CURVE SMOOTH",
"251 654 LINE SMOOTH",
"226 727 OFFCURVE",
"125 728 OFFCURVE",
"114 654 CURVE SMOOTH",
"28 85 LINE SMOOTH"
);
}
);
width = 832;
},
{
associatedMasterId = "B4EA0C51-6804-4423-9CCC-BF57B26265D1";
layerId = "F40A7612-1E3D-439B-A931-FD2A9E4918F4";
name = "Feb 17 20, 17:45";
paths = (
{
closed = 1;
nodes = (
"14 -25 OFFCURVE",
"84 -29 OFFCURVE",
"89 21 CURVE SMOOTH",
"116 290 LINE SMOOTH",
"121 335 OFFCURVE",
"158 339 OFFCURVE",
"180 301 CURVE SMOOTH",
"307 82 LINE SMOOTH",
"337 30 OFFCURVE",
"388 31 OFFCURVE",
"419 81 CURVE SMOOTH",
"555 305 LINE SMOOTH",
"577 341 OFFCURVE",
"610 334 OFFCURVE",
"616 294 CURVE SMOOTH",
"659 26 LINE SMOOTH",
"668 -33 OFFCURVE",
"737 -18 OFFCURVE",
"729 33 CURVE SMOOTH",
"633 648 LINE SMOOTH",
"621 726 OFFCURVE",
"531 732 OFFCURVE",
"502 668 CURVE SMOOTH",
"395 430 LINE SMOOTH",
"381 398 OFFCURVE",
"351 398 OFFCURVE",
"337 429 CURVE SMOOTH",
"227 669 LINE SMOOTH",
"196 737 OFFCURVE",
"96 728 OFFCURVE",
"88 654 CURVE SMOOTH",
"20 31 LINE SMOOTH"
);
},
{
closed = 1;
nodes = (
"334 116 OFFCURVE",
"333 52 OFFCURVE",
"360 52 CURVE SMOOTH",
"369 52 LINE SMOOTH",
"395 52 OFFCURVE",
"399 116 OFFCURVE",
"368 116 CURVE SMOOTH",
"360 116 LINE SMOOTH"
);
},
{
closed = 1;
nodes = (
"269 577 LINE",
"269 577 LINE",
"261 595 OFFCURVE",
"252 613 OFFCURVE",
"244 631 CURVE",
"244 631 LINE"
);
},
{
closed = 1;
nodes = (
"307 495 LINE",
"307 495 LINE",
"299 511 OFFCURVE",
"292 528 OFFCURVE",
"284 544 CURVE",
"284 544 LINE"
);
},
{
closed = 1;
nodes = (
"445 277 OFFCURVE",
"445 277 OFFCURVE",
"445 277 CURVE SMOOTH",
"445 277 OFFCURVE",
"445 277 OFFCURVE",
"445 277 CURVE SMOOTH",
"445 277 OFFCURVE",
"445 277 OFFCURVE",
"445 277 CURVE SMOOTH",
"445 277 OFFCURVE",
"445 277 OFFCURVE",
"445 277 CURVE SMOOTH"
);
}
);
width = 750;
},
{
layerId = "B4EA0C51-6804-4423-9CCC-BF57B26265D1";
paths = (
{
closed = 1;
nodes = (
"15 -28 OFFCURVE",
"88 -32 OFFCURVE",
"93 14 CURVE SMOOTH",
"123 302 LINE SMOOTH",
"127 342 OFFCURVE",
"165 347 OFFCURVE",
"184 308 CURVE SMOOTH",
"305 62 LINE SMOOTH",
"332 8 OFFCURVE",
"399 4 OFFCURVE",
"420 64 CURVE SMOOTH",
"497 287 LINE SMOOTH",
"509 322 OFFCURVE",
"548 320 OFFCURVE",
"554 282 CURVE SMOOTH",
"592 53 LINE SMOOTH",
"610 -55 OFFCURVE",
"791 -34 OFFCURVE",
"771 77 CURVE SMOOTH",
"663 673 LINE SMOOTH",
"654 721 OFFCURVE",
"571 727 OFFCURVE",
"556 678 CURVE SMOOTH",
"430 279 LINE SMOOTH",
"421 249 OFFCURVE",
"394 251 OFFCURVE",
"384 278 CURVE SMOOTH",
"233 669 LINE SMOOTH",
"205 741 OFFCURVE",
"95 728 OFFCURVE",
"87 654 CURVE SMOOTH",
"20 20 LINE SMOOTH"
);
},
{
closed = 1;
nodes = (
"334 116 OFFCURVE",
"333 52 OFFCURVE",
"360 52 CURVE SMOOTH",
"369 52 LINE SMOOTH",
"395 52 OFFCURVE",
"399 116 OFFCURVE",
"368 116 CURVE SMOOTH",
"360 116 LINE SMOOTH"
);
},
{
closed = 1;
nodes = (
"269 574 LINE",
"269 574 LINE",
"262 592 OFFCURVE",
"255 610 OFFCURVE",
"248 628 CURVE",
"248 628 LINE"
);
},
{
closed = 1;
nodes = (
"300 495 LINE",
"300 495 LINE",
"294 511 OFFCURVE",
"287 528 OFFCURVE",
"281 544 CURVE",
"281 544 LINE"
);
},
{
closed = 1;
nodes = (
"433 188 OFFCURVE",
"433 188 OFFCURVE",
"433 188 CURVE SMOOTH",
"433 188 OFFCURVE",
"433 188 OFFCURVE",
"433 188 CURVE SMOOTH",
"433 188 OFFCURVE",
"433 188 OFFCURVE",
"433 188 CURVE SMOOTH",
"433 188 OFFCURVE",
"433 188 OFFCURVE",
"433 188 CURVE SMOOTH"
);
}
);
width = 799;
}
);
unicode = 004D;
},
{
glyphname = N;
lastChange = "2020-02-14 21:55:40 +0000";
layers = (
{
layerId = "B4EA0C51-6804-4423-9CCC-BF57B26265D1";
paths = (
{
closed = 1;
nodes = (
"59 -50 OFFCURVE",
"260 -40 OFFCURVE",
"260 69 CURVE SMOOTH",
"261 352 LINE SMOOTH",
"261 406 OFFCURVE",
"306 410 OFFCURVE",
"321 370 CURVE SMOOTH",
"445 48 LINE SMOOTH",
"482 -49 OFFCURVE",
"575 -26 OFFCURVE",
"575 60 CURVE SMOOTH",
"575 677 LINE SMOOTH",
"575 723 OFFCURVE",
"498 726 OFFCURVE",
"498 678 CURVE SMOOTH",
"498 272 LINE SMOOTH",
"498 234 OFFCURVE",
"465 231 OFFCURVE",
"451 269 CURVE SMOOTH",
"324 618 LINE SMOOTH",
"269 770 OFFCURVE",
"63 727 OFFCURVE",
"62 610 CURVE SMOOTH",
"60 70 LINE SMOOTH"
);
},
{
closed = 1;
nodes = (
"495 626 OFFCURVE",
"495 565 OFFCURVE",
"524 565 CURVE SMOOTH",
"549 565 LINE SMOOTH",
"579 565 OFFCURVE",
"579 626 OFFCURVE",
"549 626 CURVE SMOOTH",
"524 626 LINE SMOOTH"
);
},
{
closed = 1;
nodes = (
"498 509 OFFCURVE",
"498 448 OFFCURVE",
"524 448 CURVE SMOOTH",
"549 448 LINE SMOOTH",
"579 448 OFFCURVE",
"579 509 OFFCURVE",
"549 509 CURVE SMOOTH",
"524 509 LINE SMOOTH"
);
},
{
closed = 1;
nodes = (
"61 321 LINE",
"61 298 OFFCURVE",
"61 274 OFFCURVE",
"61 251 CURVE",
"61 251 LINE",
"61 321 LINE"
);
},
{
closed = 1;
nodes = (
"61 194 LINE",
"61 171 OFFCURVE",
"61 147 OFFCURVE",
"61 124 CURVE",
"61 124 LINE",
"61 194 LINE"
);
},
{
closed = 1;
nodes = (
"197 541 OFFCURVE",
"197 541 OFFCURVE",
"197 541 CURVE SMOOTH",
"197 541 OFFCURVE",
"197 541 OFFCURVE",
"197 541 CURVE SMOOTH",
"197 541 OFFCURVE",
"197 541 OFFCURVE",
"197 541 CURVE SMOOTH",
"197 541 OFFCURVE",
"197 541 OFFCURVE",
"197 541 CURVE SMOOTH"
);
},
{
closed = 1;
nodes = (
"330 149 OFFCURVE",
"330 149 OFFCURVE",
"330 149 CURVE SMOOTH",
"330 149 OFFCURVE",
"330 149 OFFCURVE",
"330 149 CURVE SMOOTH",
"330 149 OFFCURVE",
"330 149 OFFCURVE",
"330 149 CURVE SMOOTH",
"330 149 OFFCURVE",
"330 149 OFFCURVE",
"330 149 CURVE SMOOTH"
);
},
{
closed = 1;
nodes = (
"259 133 OFFCURVE",
"61 133 OFFCURVE",
"61 85 CURVE SMOOTH",
"61 67 LINE SMOOTH",
"61 1 OFFCURVE",
"259 1 OFFCURVE",
"259 67 CURVE SMOOTH",
"259 85 LINE SMOOTH"
);
},
{
closed = 1;
nodes = (
"192 96 OFFCURVE",
"128 96 OFFCURVE",
"61 96 CURVE",
"61 74 LINE SMOOTH",
"61 -36 OFFCURVE",
"259 -35 OFFCURVE",
"259 74 CURVE SMOOTH",
"259 96 LINE"
);
}
);
width = 635;
},
{
associatedMasterId = "7390BA8A-CD54-46A0-980C-73781B2212BF";
layerId = "8859B7FE-A7C8-46A9-8EF2-202CBBB06C9B";
name = "Feb 10 20, 16:21";
paths = (
{
closed = 1;
nodes = (
"59 -50 OFFCURVE",
"260 -40 OFFCURVE",
"260 69 CURVE SMOOTH",
"261 352 LINE SMOOTH",
"261 406 OFFCURVE",
"306 410 OFFCURVE",
"321 370 CURVE SMOOTH",
"445 48 LINE SMOOTH",
"482 -49 OFFCURVE",
"575 -26 OFFCURVE",
"575 60 CURVE SMOOTH",
"575 679 LINE SMOOTH",
"575 715 OFFCURVE",
"498 718 OFFCURVE",
"498 680 CURVE SMOOTH",
"498 272 LINE SMOOTH",
"498 234 OFFCURVE",
"465 231 OFFCURVE",
"451 269 CURVE SMOOTH",
"324 618 LINE SMOOTH",
"269 770 OFFCURVE",
"63 727 OFFCURVE",
"62 610 CURVE SMOOTH",
"60 70 LINE SMOOTH"
);
},
{
closed = 1;
nodes = (
"421 626 OFFCURVE",
"421 565 OFFCURVE",
"460 565 CURVE SMOOTH",
"610 565 LINE SMOOTH",
"650 565 OFFCURVE",
"650 626 OFFCURVE",
"610 626 CURVE SMOOTH",
"460 626 LINE SMOOTH"
);
},
{
closed = 1;
nodes = (
"424 509 OFFCURVE",
"424 448 OFFCURVE",
"460 448 CURVE SMOOTH",
"610 448 LINE SMOOTH",
"650 448 OFFCURVE",
"650 509 OFFCURVE",
"610 509 CURVE SMOOTH",
"460 509 LINE SMOOTH"
);
},
{
closed = 1;
nodes = (
"143 321 LINE SMOOTH",
"185 321 OFFCURVE",
"185 251 OFFCURVE",
"143 251 CURVE SMOOTH",
"61 251 LINE",
"61 321 LINE"
);
},
{
closed = 1;
nodes = (
"143 194 LINE SMOOTH",
"185 194 OFFCURVE",
"185 124 OFFCURVE",
"143 124 CURVE SMOOTH",
"61 124 LINE",
"61 194 LINE"
);
},
{
closed = 1;
nodes = (
"167 487 OFFCURVE",
"143 511 OFFCURVE",
"143 541 CURVE SMOOTH",
"143 570 OFFCURVE",
"167 594 OFFCURVE",
"197 594 CURVE SMOOTH",
"226 594 OFFCURVE",
"250 570 OFFCURVE",
"250 541 CURVE SMOOTH",
"250 511 OFFCURVE",
"226 487 OFFCURVE",
"197 487 CURVE SMOOTH"
);
},
{
closed = 1;
nodes = (
"330 149 OFFCURVE",
"330 149 OFFCURVE",
"330 149 CURVE SMOOTH",
"330 149 OFFCURVE",
"330 149 OFFCURVE",
"330 149 CURVE SMOOTH",
"330 149 OFFCURVE",
"330 149 OFFCURVE",
"330 149 CURVE SMOOTH",
"330 149 OFFCURVE",
"330 149 OFFCURVE",
"330 149 CURVE SMOOTH"
);
},
{
closed = 1;
nodes = (
"259 133 OFFCURVE",
"61 133 OFFCURVE",
"61 85 CURVE SMOOTH",
"61 67 LINE SMOOTH",
"61 1 OFFCURVE",
"259 1 OFFCURVE",
"259 67 CURVE SMOOTH",
"259 85 LINE SMOOTH"
);
},
{
closed = 1;
nodes = (
"192 96 OFFCURVE",
"128 96 OFFCURVE",
"61 96 CURVE",
"61 74 LINE SMOOTH",
"61 -36 OFFCURVE",
"259 -35 OFFCURVE",
"259 74 CURVE SMOOTH",
"259 96 LINE"
);
}
);
width = 660;
},
{
layerId = "7390BA8A-CD54-46A0-980C-73781B2212BF";
paths = (
{
closed = 1;
nodes = (
"34 -68 OFFCURVE",
"317 -57 OFFCURVE",
"276 112 CURVE SMOOTH",
"184 488 LINE SMOOTH",
"166 561 OFFCURVE",
"244 575 OFFCURVE",
"264 526 CURVE SMOOTH",
"430 123 LINE SMOOTH",
"463 43 OFFCURVE",
"557 70 OFFCURVE",
"562 157 CURVE SMOOTH",
"595 719 LINE SMOOTH",
"598 763 OFFCURVE",
"520 766 OFFCURVE",
"518 720 CURVE SMOOTH",
"496 268 LINE SMOOTH",
"494 230 OFFCURVE",
"460 222 OFFCURVE",
"446 261 CURVE SMOOTH",
"313 630 LINE SMOOTH",
"262 771 OFFCURVE",
"68 733 OFFCURVE",
"61 572 CURVE SMOOTH",
"40 80 LINE SMOOTH"
);
},
{
closed = 1;
nodes = (
"391 663 OFFCURVE",
"391 577 OFFCURVE",
"445 579 CURVE SMOOTH",
"630 585 LINE SMOOTH",
"670 586 OFFCURVE",
"670 644 OFFCURVE",
"630 647 CURVE SMOOTH",
"445 659 LINE SMOOTH"
);
},
{
closed = 1;
nodes = (
"413 505 OFFCURVE",
"413 452 OFFCURVE",
"449 450 CURVE SMOOTH",
"621 441 LINE SMOOTH",
"661 439 OFFCURVE",
"663 514 OFFCURVE",
"619 512 CURVE SMOOTH",
"449 506 LINE SMOOTH"
);
},
{
closed = 1;
nodes = (
"136 336 LINE SMOOTH",
"171 341 OFFCURVE",
"188 274 OFFCURVE",
"137 270 CURVE SMOOTH",
"48 263 LINE",
"51 323 LINE"
);
},
{
closed = 1;
nodes = (
"129 218 LINE SMOOTH",
"182 223 OFFCURVE",
"187 133 OFFCURVE",
"132 135 CURVE SMOOTH",
"43 139 LINE",
"45 210 LINE"
);
},
{
closed = 1;
nodes = (
"182 622 OFFCURVE",
"182 622 OFFCURVE",
"182 622 CURVE SMOOTH",
"182 622 OFFCURVE",
"182 622 OFFCURVE",
"182 622 CURVE SMOOTH",
"182 622 OFFCURVE",
"182 622 OFFCURVE",
"182 622 CURVE SMOOTH",
"182 622 OFFCURVE",
"182 622 OFFCURVE",
"182 622 CURVE SMOOTH"
);
},
{
closed = 1;
nodes = (
"330 189 OFFCURVE",
"330 189 OFFCURVE",
"330 189 CURVE SMOOTH",
"330 189 OFFCURVE",
"330 189 OFFCURVE",
"330 189 CURVE SMOOTH",
"330 189 OFFCURVE",
"330 189 OFFCURVE",
"330 189 CURVE SMOOTH",
"330 189 OFFCURVE",
"330 189 OFFCURVE",
"330 189 CURVE SMOOTH"
);
},
{
closed = 1;
nodes = (
"275 141 OFFCURVE",
"47 131 OFFCURVE",
"47 82 CURVE SMOOTH",
"47 64 LINE SMOOTH",
"47 -4 OFFCURVE",
"275 6 OFFCURVE",
"275 74 CURVE SMOOTH",
"275 92 LINE SMOOTH"
);
},
{
closed = 1;
nodes = (
"201 103 OFFCURVE",
"120 93 OFFCURVE",
"47 93 CURVE",
"47 71 LINE SMOOTH",
"47 -42 OFFCURVE",
"275 -31 OFFCURVE",
"275 81 CURVE SMOOTH",
"275 103 LINE"
);
}
);
width = 665;
},
{
associatedMasterId = "7390BA8A-CD54-46A0-980C-73781B2212BF";
layerId = "7D1BF5D7-7A90-4605-9D1C-FB2DD580939B";
name = "Feb 10 20, 16:52";
paths = (
{
closed = 1;
nodes = (
"24 -68 OFFCURVE",
"308 -59 OFFCURVE",
"276 112 CURVE SMOOTH",
"204 498 LINE SMOOTH",
"194 552 OFFCURVE",
"243 554 OFFCURVE",
"264 516 CURVE SMOOTH",
"486 123 LINE SMOOTH",
"528 49 OFFCURVE",
"607 70 OFFCURVE",
"612 157 CURVE SMOOTH",
"645 719 LINE SMOOTH",
"648 763 OFFCURVE",
"570 766 OFFCURVE",
"568 720 CURVE SMOOTH",
"546 268 LINE SMOOTH",
"544 230 OFFCURVE",
"516 222 OFFCURVE",
"496 261 CURVE SMOOTH",
"303 630 LINE SMOOTH",
"233 763 OFFCURVE",
"58 733 OFFCURVE",
"51 572 CURVE SMOOTH",
"30 80 LINE SMOOTH"
);
},
{
closed = 1;
nodes = (
"441 638 OFFCURVE",
"441 577 OFFCURVE",
"480 578 CURVE SMOOTH",
"680 585 LINE SMOOTH",
"720 586 OFFCURVE",
"720 647 OFFCURVE",
"680 646 CURVE SMOOTH",
"480 639 LINE SMOOTH"
);
},
{
closed = 1;
nodes = (
"463 518 OFFCURVE",
"463 457 OFFCURVE",
"499 455 CURVE SMOOTH",
"671 446 LINE SMOOTH",
"711 444 OFFCURVE",
"711 505 OFFCURVE",
"671 507 CURVE SMOOTH",
"499 516 LINE SMOOTH"
);
},
{
closed = 1;
nodes = (
"116 358 LINE SMOOTH",
"158 361 OFFCURVE",
"158 291 OFFCURVE",
"116 288 CURVE SMOOTH",
"39 282 LINE",
"42 352 LINE"
);
},
{
closed = 1;
nodes = (
"121 205 LINE SMOOTH",
"163 203 OFFCURVE",
"163 133 OFFCURVE",
"121 135 CURVE SMOOTH",
"33 139 LINE",
"36 209 LINE"
);
},
{
closed = 1;
nodes = (
"172 622 OFFCURVE",
"172 622 OFFCURVE",
"172 622 CURVE SMOOTH",
"172 622 OFFCURVE",
"172 622 OFFCURVE",
"172 622 CURVE SMOOTH",
"172 622 OFFCURVE",
"172 622 OFFCURVE",
"172 622 CURVE SMOOTH",
"172 622 OFFCURVE",
"172 622 OFFCURVE",
"172 622 CURVE SMOOTH"
);
},
{
closed = 1;
nodes = (
"351 180 OFFCURVE",
"351 180 OFFCURVE",
"351 180 CURVE SMOOTH",
"351 180 OFFCURVE",
"351 180 OFFCURVE",
"351 180 CURVE SMOOTH",
"351 180 OFFCURVE",
"351 180 OFFCURVE",
"351 180 CURVE SMOOTH",
"351 180 OFFCURVE",
"351 180 OFFCURVE",
"351 180 CURVE SMOOTH"
);
},
{
closed = 1;
nodes = (
"274 141 OFFCURVE",
"37 131 OFFCURVE",
"37 82 CURVE SMOOTH",
"37 64 LINE SMOOTH",
"37 -4 OFFCURVE",
"274 6 OFFCURVE",
"274 74 CURVE SMOOTH",
"274 92 LINE SMOOTH"
);
},
{
closed = 1;
nodes = (
"197 103 OFFCURVE",
"113 93 OFFCURVE",
"37 93 CURVE",
"37 71 LINE SMOOTH",
"37 -42 OFFCURVE",
"274 -31 OFFCURVE",
"274 81 CURVE SMOOTH",
"274 103 LINE"
);
}
);
width = 715;
}
);
unicode = 004E;
},
{
glyphname = O;
lastChange = "2020-02-18 21:46:32 +0000";
layers = (
{
layerId = "B4EA0C51-6804-4423-9CCC-BF57B26265D1";
paths = (
{
closed = 1;
nodes = (
"444 -12 OFFCURVE",
"556 99 OFFCURVE",
"556 347 CURVE SMOOTH",
"556 599 OFFCURVE",
"444 712 OFFCURVE",
"299 712 CURVE SMOOTH",
"129 712 OFFCURVE",
"25 586 OFFCURVE",
"25 347 CURVE SMOOTH",
"25 112 OFFCURVE",
"129 -12 OFFCURVE",
"299 -12 CURVE SMOOTH"
);
},
{
closed = 1;
nodes = (
"271 64 OFFCURVE",
"228 159 OFFCURVE",
"228 347 CURVE SMOOTH",
"228 539 OFFCURVE",
"271 636 OFFCURVE",
"357 636 CURVE SMOOTH",
"424 636 OFFCURVE",
"492 556 OFFCURVE",
"492 347 CURVE SMOOTH",
"492 142 OFFCURVE",
"424 64 OFFCURVE",
"357 64 CURVE SMOOTH"
);
},
{
closed = 1;
nodes = (
"174 49 OFFCURVE",
"174 49 OFFCURVE",
"174 49 CURVE SMOOTH",
"174 49 OFFCURVE",
"174 49 OFFCURVE",
"174 49 CURVE SMOOTH",
"174 49 OFFCURVE",
"174 49 OFFCURVE",
"174 49 CURVE SMOOTH",
"174 49 OFFCURVE",
"174 49 OFFCURVE",
"174 49 CURVE SMOOTH"
);
},
{
closed = 1;
nodes = (
"246 22 OFFCURVE",
"246 22 OFFCURVE",
"246 22 CURVE SMOOTH",
"246 22 OFFCURVE",
"246 22 OFFCURVE",
"246 22 CURVE SMOOTH",
"246 22 OFFCURVE",
"246 22 OFFCURVE",
"246 22 CURVE SMOOTH",
"246 22 OFFCURVE",
"246 22 OFFCURVE",
"246 22 CURVE SMOOTH"
);
},
{
closed = 1;
nodes = (
"148 94 OFFCURVE",
"148 94 OFFCURVE",
"148 94 CURVE SMOOTH",
"148 94 OFFCURVE",
"148 94 OFFCURVE",
"148 94 CURVE SMOOTH",
"148 94 OFFCURVE",
"148 94 OFFCURVE",
"148 94 CURVE SMOOTH",
"148 94 OFFCURVE",
"148 94 OFFCURVE",
"148 94 CURVE SMOOTH"
);
},
{
closed = 1;
nodes = (
"263 108 OFFCURVE",
"221 114 OFFCURVE",
"215 85 CURVE SMOOTH",
"214 80 LINE SMOOTH",
"209 55 OFFCURVE",
"253 47 OFFCURVE",
"257 72 CURVE SMOOTH",
"258 78 LINE SMOOTH"
);
},
{
closed = 1;
nodes = (
"490 213 OFFCURVE",
"459 165 OFFCURVE",
"482 146 CURVE SMOOTH",
"487 142 LINE SMOOTH",
"506 127 OFFCURVE",
"535 168 OFFCURVE",
"518 185 CURVE SMOOTH",
"514 189 LINE SMOOTH"
);
},
{
closed = 1;
nodes = (
"495 392 OFFCURVE",
"484 340 OFFCURVE",
"518 335 CURVE SMOOTH",
"525 334 LINE SMOOTH",
"550 330 OFFCURVE",
"562 382 OFFCURVE",
"536 386 CURVE SMOOTH",
"529 387 LINE SMOOTH"
);
},
{
closed = 1;
nodes = (
"468 522 OFFCURVE",
"479 473 OFFCURVE",
"504 483 CURVE SMOOTH",
"514 487 LINE SMOOTH",
"537 496 OFFCURVE",
"529 543 OFFCURVE",
"503 534 CURVE SMOOTH",
"494 531 LINE SMOOTH"
);
}
);
width = 581;
},
{
layerId = "7390BA8A-CD54-46A0-980C-73781B2212BF";
paths = (
{
closed = 1;
nodes = (
"492 -12 OFFCURVE",
"597 165 OFFCURVE",
"597 379 CURVE SMOOTH",
"598 570 OFFCURVE",
"491 718 OFFCURVE",
"316 718 CURVE SMOOTH",
"137 718 OFFCURVE",
"24 536 OFFCURVE",
"24 333 CURVE SMOOTH",
"24 141 OFFCURVE",
"121 -12 OFFCURVE",
"297 -12 CURVE SMOOTH"
);
},
{
closed = 1;
nodes = (
"161 218 OFFCURVE",
"100 293 OFFCURVE",
"100 412 CURVE SMOOTH",
"100 531 OFFCURVE",
"188 661 OFFCURVE",
"320 661 CURVE SMOOTH",
"439 661 OFFCURVE",
"513 577 OFFCURVE",
"513 472 CURVE SMOOTH",
"513 347 OFFCURVE",
"387 218 OFFCURVE",
"273 218 CURVE SMOOTH"
);
},
{
closed = 1;
nodes = (
"468 208 OFFCURVE",
"483 193 OFFCURVE",
"483 172 CURVE SMOOTH",
"483 152 OFFCURVE",
"468 137 OFFCURVE",
"447 137 CURVE SMOOTH",
"427 137 OFFCURVE",
"412 152 OFFCURVE",
"412 172 CURVE SMOOTH",
"412 193 OFFCURVE",
"427 208 OFFCURVE",
"447 208 CURVE SMOOTH"
);
},
{
closed = 1;
nodes = (
"364 159 OFFCURVE",
"383 140 OFFCURVE",
"383 114 CURVE SMOOTH",
"383 90 OFFCURVE",
"364 71 OFFCURVE",
"340 71 CURVE SMOOTH",
"314 71 OFFCURVE",
"295 90 OFFCURVE",
"295 114 CURVE SMOOTH",
"295 140 OFFCURVE",
"314 159 OFFCURVE",
"340 159 CURVE SMOOTH"
);
},
{
closed = 1;
nodes = (
"240 152 OFFCURVE",
"255 137 OFFCURVE",
"255 116 CURVE SMOOTH",
"255 96 OFFCURVE",
"240 81 OFFCURVE",
"219 81 CURVE SMOOTH",
"199 81 OFFCURVE",
"184 96 OFFCURVE",
"184 116 CURVE SMOOTH",
"184 137 OFFCURVE",
"199 152 OFFCURVE",
"219 152 CURVE SMOOTH"
);
},
{
closed = 1;
nodes = (
"437 681 OFFCURVE",
"388 701 OFFCURVE",
"378 670 CURVE SMOOTH",
"354 593 LINE SMOOTH",
"339 545 OFFCURVE",
"394 528 OFFCURVE",
"406 571 CURVE SMOOTH",
"429 654 LINE SMOOTH"
);
},
{
closed = 1;
nodes = (
"183 670 OFFCURVE",
"148 625 OFFCURVE",
"167 605 CURVE SMOOTH",
"240 531 LINE SMOOTH",
"271 500 OFFCURVE",
"319 547 OFFCURVE",
"283 579 CURVE SMOOTH",
"215 641 LINE SMOOTH"
);
},
{
closed = 1;
nodes = (
"77 521 OFFCURVE",
"63 464 OFFCURVE",
"93 459 CURVE SMOOTH",
"239 434 LINE SMOOTH",
"267 429 OFFCURVE",
"279 472 OFFCURVE",
"246 480 CURVE SMOOTH",
"106 514 LINE SMOOTH"
);
},
{
closed = 1;
nodes = (
"75 288 OFFCURVE",
"95 243 OFFCURVE",
"129 259 CURVE SMOOTH",
"193 289 LINE SMOOTH",
"231 307 OFFCURVE",
"205 364 OFFCURVE",
"167 342 CURVE SMOOTH",
"108 307 LINE SMOOTH"
);
}
);
width = 621;
},
{
associatedMasterId = "B4EA0C51-6804-4423-9CCC-BF57B26265D1";
layerId = "027A15F9-B949-4542-BC77-C6352A5EF3AF";
name = "Feb 4 20, 11:20";
paths = (
{
closed = 1;
nodes = (
"510 -12 OFFCURVE",
"656 118 OFFCURVE",
"656 353 CURVE SMOOTH",
"656 588 OFFCURVE",
"510 718 OFFCURVE",
"348 718 CURVE SMOOTH",
"186 718 OFFCURVE",
"40 588 OFFCURVE",
"40 353 CURVE SMOOTH",
"40 118 OFFCURVE",
"186 -12 OFFCURVE",
"348 -12 CURVE SMOOTH"
);
},
{
closed = 1;
nodes = (
"539 561 OFFCURVE",
"595 491 OFFCURVE",
"595 379 CURVE SMOOTH",
"595 222 OFFCURVE",
"489 51 OFFCURVE",
"332 51 CURVE SMOOTH",
"226 51 OFFCURVE",
"161 119 OFFCURVE",
"161 228 CURVE SMOOTH",
"161 370 OFFCURVE",
"307 561 OFFCURVE",
"450 561 CURVE SMOOTH"
);
},
{
closed = 1;
nodes = (
"138 438 OFFCURVE",
"138 438 OFFCURVE",
"138 438 CURVE SMOOTH",
"138 438 OFFCURVE",
"138 438 OFFCURVE",
"138 438 CURVE SMOOTH",
"138 438 OFFCURVE",
"138 438 OFFCURVE",
"138 438 CURVE SMOOTH",
"138 438 OFFCURVE",
"138 438 OFFCURVE",
"138 438 CURVE SMOOTH"
);
},
{
closed = 1;
nodes = (
"204 544 OFFCURVE",
"204 544 OFFCURVE",
"204 544 CURVE SMOOTH",
"204 544 OFFCURVE",
"204 544 OFFCURVE",
"204 544 CURVE SMOOTH",
"204 544 OFFCURVE",
"204 544 OFFCURVE",
"204 544 CURVE SMOOTH",
"204 544 OFFCURVE",
"204 544 OFFCURVE",
"204 544 CURVE SMOOTH"
);
},
{
closed = 1;
nodes = (
"301 615 OFFCURVE",
"301 615 OFFCURVE",
"301 615 CURVE SMOOTH",
"301 615 OFFCURVE",
"301 615 OFFCURVE",
"301 615 CURVE SMOOTH",
"301 615 OFFCURVE",
"301 615 OFFCURVE",
"301 615 CURVE SMOOTH",
"301 615 OFFCURVE",
"301 615 OFFCURVE",
"301 615 CURVE SMOOTH"
);
},
{
closed = 1;
nodes = (
"448 38 LINE",
"444 44 LINE SMOOTH",
"429 66 OFFCURVE",
"384 40 OFFCURVE",
"397 17 CURVE SMOOTH",
"401 10 LINE"
);
},
{
closed = 1;
nodes = (
"567 133 LINE",
"558 140 LINE SMOOTH",
"538 155 OFFCURVE",
"505 117 OFFCURVE",
"523 99 CURVE SMOOTH",
"532 90 LINE"
);
},
{
closed = 1;
nodes = (
"629 283 LINE",
"618 285 LINE SMOOTH",
"592 290 OFFCURVE",
"579 243 OFFCURVE",
"604 233 CURVE SMOOTH",
"616 228 LINE"
);
},
{
closed = 1;
nodes = (
"631 443 LINE",
"620 441 LINE SMOOTH",
"594 436 OFFCURVE",
"598 388 OFFCURVE",
"624 388 CURVE SMOOTH",
"638 388 LINE"
);
}
);
width = 696;
},
{
associatedMasterId = "B4EA0C51-6804-4423-9CCC-BF57B26265D1";
layerId = "BB17A00F-F9CC-4F10-852C-4584FC337B04";
name = "Feb 17 20, 15:19";
paths = (
{
closed = 1;
nodes = (
"460 -12 OFFCURVE",
"596 118 OFFCURVE",
"596 353 CURVE SMOOTH",
"596 588 OFFCURVE",
"474 718 OFFCURVE",
"310 718 CURVE SMOOTH",
"152 718 OFFCURVE",
"25 588 OFFCURVE",
"25 353 CURVE SMOOTH",
"25 113 OFFCURVE",
"160 -12 OFFCURVE",
"310 -12 CURVE SMOOTH"
);
},
{
closed = 1;
nodes = (
"207 51 OFFCURVE",
"153 107 OFFCURVE",
"153 198 CURVE SMOOTH",
"153 343 OFFCURVE",
"295 539 OFFCURVE",
"425 539 CURVE SMOOTH",
"494 539 OFFCURVE",
"532 471 OFFCURVE",
"532 363 CURVE SMOOTH",
"532 214 OFFCURVE",
"437 51 OFFCURVE",
"295 51 CURVE SMOOTH"
);
},
{
closed = 1;
nodes = (
"167 430 OFFCURVE",
"167 430 OFFCURVE",
"167 430 CURVE SMOOTH",
"167 430 OFFCURVE",
"167 430 OFFCURVE",
"167 430 CURVE SMOOTH",
"167 430 OFFCURVE",
"167 430 OFFCURVE",
"167 430 CURVE SMOOTH",
"167 430 OFFCURVE",
"167 430 OFFCURVE",
"167 430 CURVE SMOOTH"
);
},
{
closed = 1;
nodes = (
"179 632 OFFCURVE",
"179 632 OFFCURVE",
"179 632 CURVE SMOOTH",
"179 632 OFFCURVE",
"179 632 OFFCURVE",
"179 632 CURVE SMOOTH",
"179 632 OFFCURVE",
"179 632 OFFCURVE",
"179 632 CURVE SMOOTH",
"179 632 OFFCURVE",
"179 632 OFFCURVE",
"179 632 CURVE SMOOTH"
);
},
{
closed = 1;
nodes = (
"250 562 OFFCURVE",
"250 562 OFFCURVE",
"250 562 CURVE SMOOTH",
"250 562 OFFCURVE",
"250 562 OFFCURVE",
"250 562 CURVE SMOOTH",
"250 562 OFFCURVE",
"250 562 OFFCURVE",
"250 562 CURVE SMOOTH",
"250 562 OFFCURVE",
"250 562 OFFCURVE",
"250 562 CURVE SMOOTH"
);
},
{
closed = 1;
nodes = (
"283 529 LINE",
"290 517 LINE SMOOTH",
"304 494 OFFCURVE",
"350 520 OFFCURVE",
"337 544 CURVE SMOOTH",
"330 557 LINE"
);
},
{
closed = 1;
nodes = (
"193 439 LINE",
"206 428 LINE SMOOTH",
"225 412 OFFCURVE",
"259 451 OFFCURVE",
"241 469 CURVE SMOOTH",
"228 482 LINE"
);
},
{
closed = 1;
nodes = (
"146 364 LINE",
"162 356 LINE SMOOTH",
"185 344 OFFCURVE",
"210 387 OFFCURVE",
"189 402 CURVE SMOOTH",
"172 414 LINE"
);
},
{
closed = 1;
nodes = (
"113 266 LINE",
"131 262 LINE SMOOTH",
"157 256 OFFCURVE",
"170 305 OFFCURVE",
"145 314 CURVE SMOOTH",
"126 321 LINE"
);
},
{
closed = 1;
nodes = (
"117 137 LINE",
"127 138 LINE SMOOTH",
"153 141 OFFCURVE",
"149 189 OFFCURVE",
"123 191 CURVE SMOOTH",
"110 192 LINE"
);
},
{
closed = 1;
nodes = (
"324 535 OFFCURVE",
"374 532 OFFCURVE",
"379 565 CURVE SMOOTH",
"380 571 LINE SMOOTH",
"385 597 OFFCURVE",
"334 602 OFFCURVE",
"330 575 CURVE SMOOTH",
"329 568 LINE SMOOTH"
);
},
{
closed = 1;
nodes = (
"145 354 OFFCURVE",
"175 402 OFFCURVE",
"153 421 CURVE SMOOTH",
"145 428 LINE SMOOTH",
"127 444 OFFCURVE",
"95 404 OFFCURVE",
"112 387 CURVE SMOOTH",
"121 378 LINE SMOOTH"
);
},
{
closed = 1;
nodes = (
"125 265 OFFCURVE",
"140 327 OFFCURVE",
"107 333 CURVE SMOOTH",
"96 335 LINE SMOOTH",
"72 339 OFFCURVE",
"60 293 OFFCURVE",
"83 283 CURVE SMOOTH",
"95 278 LINE SMOOTH"
);
},
{
closed = 1;
nodes = (
"157 212 OFFCURVE",
"146 263 OFFCURVE",
"123 252 CURVE SMOOTH",
"106 244 LINE SMOOTH",
"84 234 OFFCURVE",
"94 188 OFFCURVE",
"117 197 CURVE SMOOTH",
"133 203 LINE SMOOTH"
);
},
{
closed = 1;
nodes = (
"482 591 LINE",
"469 574 LINE SMOOTH",
"453 553 OFFCURVE",
"487 512 OFFCURVE",
"504 533 CURVE SMOOTH",
"518 550 LINE"
);
},
{
closed = 1;
nodes = (
"360 302 OFFCURVE",
"360 302 OFFCURVE",
"360 302 CURVE SMOOTH",
"360 302 OFFCURVE",
"360 302 OFFCURVE",
"360 302 CURVE SMOOTH",
"360 302 OFFCURVE",
"360 302 OFFCURVE",
"360 302 CURVE SMOOTH",
"360 302 OFFCURVE",
"360 302 OFFCURVE",
"360 302 CURVE SMOOTH"
);
}
);
width = 621;
},
{
associatedMasterId = "B4EA0C51-6804-4423-9CCC-BF57B26265D1";
layerId = "09FD0D2F-11B7-4E6B-B27E-1BC5778F89A7";
name = "Feb 18 20, 12:52";
paths = (
{
closed = 1;
nodes = (
"455 -12 OFFCURVE",
"576 66 OFFCURVE",
"576 353 CURVE SMOOTH",
"576 633 OFFCURVE",
"467 718 OFFCURVE",
"316 718 CURVE SMOOTH",
"154 718 OFFCURVE",
"25 638 OFFCURVE",
"25 353 CURVE SMOOTH",
"25 63 OFFCURVE",
"159 -12 OFFCURVE",
"307 -12 CURVE SMOOTH"
);
},
{
closed = 1;
nodes = (
"267 51 OFFCURVE",
"228 87 OFFCURVE",
"228 353 CURVE SMOOTH",
"228 591 OFFCURVE",
"254 654 OFFCURVE",
"345 654 CURVE SMOOTH",
"437 654 OFFCURVE",
"512 589 OFFCURVE",
"512 353 CURVE SMOOTH",
"512 95 OFFCURVE",
"427 51 OFFCURVE",
"344 51 CURVE SMOOTH"
);
}
);
width = 601;
},
{
associatedMasterId = "B4EA0C51-6804-4423-9CCC-BF57B26265D1";
layerId = "C51FBC44-DBEE-4732-8D0F-7300287A87C0";
name = "Feb 18 20, 12:56";
paths = (
{
closed = 1;
nodes = (
"460 -12 OFFCURVE",
"596 118 OFFCURVE",
"596 353 CURVE SMOOTH",
"596 588 OFFCURVE",
"474 718 OFFCURVE",
"310 718 CURVE SMOOTH",
"152 718 OFFCURVE",
"25 588 OFFCURVE",
"25 353 CURVE SMOOTH",
"25 113 OFFCURVE",
"160 -12 OFFCURVE",
"310 -12 CURVE SMOOTH"
);
},
{
closed = 1;
nodes = (
"267 51 OFFCURVE",
"228 87 OFFCURVE",
"228 353 CURVE SMOOTH",
"228 591 OFFCURVE",
"255 654 OFFCURVE",
"350 654 CURVE SMOOTH",
"457 654 OFFCURVE",
"532 523 OFFCURVE",
"532 363 CURVE SMOOTH",
"532 182 OFFCURVE",
"437 51 OFFCURVE",
"345 51 CURVE SMOOTH"
);
},
{
closed = 1;
nodes = (
"174 49 OFFCURVE",
"174 49 OFFCURVE",
"174 49 CURVE SMOOTH",
"174 49 OFFCURVE",
"174 49 OFFCURVE",
"174 49 CURVE SMOOTH",
"174 49 OFFCURVE",
"174 49 OFFCURVE",
"174 49 CURVE SMOOTH",
"174 49 OFFCURVE",
"174 49 OFFCURVE",
"174 49 CURVE SMOOTH"
);
},
{
closed = 1;
nodes = (
"246 22 OFFCURVE",
"246 22 OFFCURVE",
"246 22 CURVE SMOOTH",
"246 22 OFFCURVE",
"246 22 OFFCURVE",
"246 22 CURVE SMOOTH",
"246 22 OFFCURVE",
"246 22 OFFCURVE",
"246 22 CURVE SMOOTH",
"246 22 OFFCURVE",
"246 22 OFFCURVE",
"246 22 CURVE SMOOTH"
);
},
{
closed = 1;
nodes = (
"148 94 OFFCURVE",
"148 94 OFFCURVE",
"148 94 CURVE SMOOTH",
"148 94 OFFCURVE",
"148 94 OFFCURVE",
"148 94 CURVE SMOOTH",
"148 94 OFFCURVE",
"148 94 OFFCURVE",
"148 94 CURVE SMOOTH",
"148 94 OFFCURVE",
"148 94 OFFCURVE",
"148 94 CURVE SMOOTH"
);
},
{
closed = 1;
nodes = (
"263 108 OFFCURVE",
"221 114 OFFCURVE",
"215 85 CURVE SMOOTH",
"214 80 LINE SMOOTH",
"209 55 OFFCURVE",
"253 47 OFFCURVE",
"257 72 CURVE SMOOTH",
"258 78 LINE SMOOTH"
);
},
{
closed = 1;
nodes = (
"508 200 OFFCURVE",
"478 152 OFFCURVE",
"500 133 CURVE SMOOTH",
"508 126 LINE SMOOTH",
"526 110 OFFCURVE",
"558 150 OFFCURVE",
"541 167 CURVE SMOOTH",
"532 176 LINE SMOOTH"
);
},
{
closed = 1;
nodes = (
"537 403 OFFCURVE",
"522 341 OFFCURVE",
"555 335 CURVE SMOOTH",
"566 333 LINE SMOOTH",
"590 329 OFFCURVE",
"603 375 OFFCURVE",
"579 385 CURVE SMOOTH",
"567 390 LINE SMOOTH"
);
},
{
closed = 1;
nodes = (
"500 529 OFFCURVE",
"511 479 OFFCURVE",
"534 489 CURVE SMOOTH",
"551 497 LINE SMOOTH",
"573 508 OFFCURVE",
"563 553 OFFCURVE",
"540 544 CURVE SMOOTH",
"524 538 LINE SMOOTH"
);
}
);
width = 621;
},
{
associatedMasterId = "B4EA0C51-6804-4423-9CCC-BF57B26265D1";
layerId = "CC9FA0B0-910D-4783-87AE-FDD7A892AFE9";
name = "Feb 18 20, 12:58";
paths = (
{
closed = 1;
nodes = (
"556 599 OFFCURVE",
"444 712 OFFCURVE",
"299 712 CURVE SMOOTH",
"129 712 OFFCURVE",
"25 586 OFFCURVE",
"25 347 CURVE SMOOTH",
"25 112 OFFCURVE",
"129 -12 OFFCURVE",
"299 -12 CURVE SMOOTH",
"444 -12 OFFCURVE",
"556 99 OFFCURVE",
"556 347 CURVE SMOOTH"
);
},
{
closed = 1;
nodes = (
"228 539 OFFCURVE",
"271 636 OFFCURVE",
"357 636 CURVE SMOOTH",
"424 636 OFFCURVE",
"492 556 OFFCURVE",
"492 347 CURVE SMOOTH",
"492 142 OFFCURVE",
"424 64 OFFCURVE",
"357 64 CURVE SMOOTH",
"271 64 OFFCURVE",
"228 159 OFFCURVE",
"228 347 CURVE SMOOTH"
);
}
);
width = 581;
}
);
unicode = 004F;
},
{
glyphname = P;
lastChange = "2020-02-15 00:00:18 +0000";
layers = (
{
layerId = "B4EA0C51-6804-4423-9CCC-BF57B26265D1";
paths = (
{
closed = 1;
nodes = (
"244 643 OFFCURVE",
"276 643 CURVE SMOOTH",
"283 643 LINE SMOOTH",
"372 643 OFFCURVE",
"417 580 OFFCURVE",
"417 489 CURVE SMOOTH",
"418 378 OFFCURVE",
"353 322 OFFCURVE",
"279 322 CURVE SMOOTH",
"267 322 LINE SMOOTH",
"240 322 OFFCURVE",
"226 343 OFFCURVE",
"226 376 CURVE SMOOTH",
"226 589 LINE SMOOTH",
"226 625 OFFCURVE"
);
},
{
closed = 1;
nodes = (
"67 -18 OFFCURVE",
"136 -19 OFFCURVE",
"136 24 CURVE SMOOTH",
"135 214 LINE SMOOTH",
"135 241 OFFCURVE",
"144 256 OFFCURVE",
"170 256 CURVE SMOOTH",
"246 256 LINE SMOOTH",
"384 256 OFFCURVE",
"488 325 OFFCURVE",
"488 485 CURVE SMOOTH",
"488 647 OFFCURVE",
"384 705 OFFCURVE",
"254 705 CURVE SMOOTH",
"143 705 LINE SMOOTH",
"100 705 OFFCURVE",
"68 676 OFFCURVE",
"68 623 CURVE SMOOTH",
"67 24 LINE SMOOTH"
);
},
{
closed = 1;
nodes = (
"160 601 LINE SMOOTH",
"138 623 OFFCURVE",
"101 585 OFFCURVE",
"124 562 CURVE SMOOTH",
"136 550 LINE SMOOTH",
"157 529 OFFCURVE",
"192 569 OFFCURVE",
"171 590 CURVE SMOOTH"
);
},
{
closed = 1;
nodes = (
"153 488 LINE SMOOTH",
"123 493 OFFCURVE",
"114 441 OFFCURVE",
"146 435 CURVE SMOOTH",
"162 432 LINE SMOOTH",
"192 427 OFFCURVE",
"198 480 OFFCURVE",
"168 485 CURVE SMOOTH"
);
},
{
closed = 1;
nodes = (
"102 214 OFFCURVE",
"102 214 OFFCURVE",
"102 214 CURVE SMOOTH",
"102 214 OFFCURVE",
"102 214 OFFCURVE",
"102 214 CURVE SMOOTH",
"102 214 OFFCURVE",
"102 214 OFFCURVE",
"102 214 CURVE SMOOTH",
"102 214 OFFCURVE",
"102 214 OFFCURVE",
"102 214 CURVE SMOOTH"
);
}
);
width = 503;
},
{
layerId = "7390BA8A-CD54-46A0-980C-73781B2212BF";
paths = (
{
closed = 1;
nodes = (
"174 604 OFFCURVE",
"217 606 CURVE SMOOTH",
"326 612 LINE SMOOTH",
"400 616 OFFCURVE",
"430 550 OFFCURVE",
"431 463 CURVE SMOOTH",
"432 366 OFFCURVE",
"359 313 OFFCURVE",
"272 313 CURVE SMOOTH",
"177 313 LINE SMOOTH",
"144 313 OFFCURVE",
"124 332 OFFCURVE",
"128 368 CURVE SMOOTH",
"144 518 LINE SMOOTH",
"150 578 OFFCURVE"
);
},
{
closed = 1;
nodes = (
"43 -58 OFFCURVE",
"202 -55 OFFCURVE",
"225 34 CURVE SMOOTH",
"275 230 LINE SMOOTH",
"281 253 OFFCURVE",
"294 265 OFFCURVE",
"312 265 CURVE SMOOTH",
"324 265 LINE SMOOTH",
"412 265 OFFCURVE",
"495 327 OFFCURVE",
"495 465 CURVE SMOOTH",
"495 620 OFFCURVE",
"419 684 OFFCURVE",
"311 695 CURVE SMOOTH",
"173 709 LINE SMOOTH",
"117 715 OFFCURVE",
"78 682 OFFCURVE",
"75 629 CURVE SMOOTH",
"48 56 LINE SMOOTH"
);
},
{
closed = 1;
nodes = (
"306 399 LINE SMOOTH",
"277 427 OFFCURVE",
"248 391 OFFCURVE",
"272 365 CURVE SMOOTH",
"417 207 LINE SMOOTH",
"450 171 OFFCURVE",
"497 217 OFFCURVE",
"462 251 CURVE SMOOTH"
);
},
{
closed = 1;
nodes = (
"382 471 LINE SMOOTH",
"346 475 OFFCURVE",
"335 411 OFFCURVE",
"377 410 CURVE SMOOTH",
"521 407 LINE SMOOTH",
"562 406 OFFCURVE",
"561 453 OFFCURVE",
"523 457 CURVE SMOOTH"
);
},
{
closed = 1;
nodes = (
"118 45 OFFCURVE",
"97 66 OFFCURVE",
"97 92 CURVE SMOOTH",
"97 117 OFFCURVE",
"118 138 OFFCURVE",
"144 138 CURVE SMOOTH",
"169 138 OFFCURVE",
"190 117 OFFCURVE",
"190 92 CURVE SMOOTH",
"190 66 OFFCURVE",
"169 45 OFFCURVE",
"144 45 CURVE SMOOTH"
);
}
);
width = 550;
},
{
associatedMasterId = "7390BA8A-CD54-46A0-980C-73781B2212BF";
layerId = "179C3549-5B95-457B-ACFF-90DF97F08522";
name = "Feb 14 20, 14:49";
paths = (
{
closed = 1;
nodes = (
"211 644 OFFCURVE",
"248 644 CURVE SMOOTH",
"276 644 LINE SMOOTH",
"366 644 OFFCURVE",
"416 578 OFFCURVE",
"417 485 CURVE SMOOTH",
"418 372 OFFCURVE",
"349 321 OFFCURVE",
"272 321 CURVE SMOOTH",
"178 321 LINE SMOOTH",
"149 321 OFFCURVE",
"133 338 OFFCURVE",
"138 365 CURVE SMOOTH",
"184 589 LINE SMOOTH",
"191 621 OFFCURVE"
);
},
{
closed = 1;
nodes = (
"29 -54 OFFCURVE",
"255 -37 OFFCURVE",
"209 81 CURVE SMOOTH",
"155 218 LINE SMOOTH",
"146 242 OFFCURVE",
"160 256 OFFCURVE",
"180 256 CURVE SMOOTH",
"279 256 LINE SMOOTH",
"384 256 OFFCURVE",
"488 325 OFFCURVE",
"488 485 CURVE SMOOTH",
"488 645 OFFCURVE",
"390 705 OFFCURVE",
"274 705 CURVE SMOOTH",
"172 705 LINE SMOOTH",
"119 705 OFFCURVE",
"81 676 OFFCURVE",
"77 623 CURVE SMOOTH",
"37 61 LINE SMOOTH"
);
}
);
width = 600;
},
{
associatedMasterId = "7390BA8A-CD54-46A0-980C-73781B2212BF";
layerId = "51096218-1F56-4A28-A971-25409270607A";
name = "Feb 14 20, 14:54";
paths = (
{
closed = 1;
nodes = (
"149 644 OFFCURVE",
"186 644 CURVE SMOOTH",
"276 644 LINE SMOOTH",
"366 644 OFFCURVE",
"416 578 OFFCURVE",
"417 485 CURVE SMOOTH",
"418 372 OFFCURVE",
"349 321 OFFCURVE",
"272 321 CURVE SMOOTH",
"176 321 LINE SMOOTH",
"147 321 OFFCURVE",
"135 340 OFFCURVE",
"135 369 CURVE SMOOTH",
"135 589 LINE SMOOTH",
"135 621 OFFCURVE"
);
},
{
closed = 1;
nodes = (
"67 -38 OFFCURVE",
"248 -39 OFFCURVE",
"247 61 CURVE SMOOTH",
"246 221 LINE SMOOTH",
"246 244 OFFCURVE",
"254 256 OFFCURVE",
"272 256 CURVE SMOOTH",
"284 256 LINE SMOOTH",
"386 256 OFFCURVE",
"488 325 OFFCURVE",
"488 485 CURVE SMOOTH",
"488 645 OFFCURVE",
"390 705 OFFCURVE",
"274 705 CURVE SMOOTH",
"143 705 LINE SMOOTH",
"100 705 OFFCURVE",
"68 676 OFFCURVE",
"68 623 CURVE SMOOTH",
"67 61 LINE SMOOTH"
);
}
);
width = 600;
}
);
unicode = 0050;
},
{
glyphname = Q;
lastChange = "2020-02-18 01:42:31 +0000";
layers = (
{
layerId = "B4EA0C51-6804-4423-9CCC-BF57B26265D1";
paths = (
{
closed = 1;
nodes = (
"554 60 OFFCURVE",
"619 191 OFFCURVE",
"619 359 CURVE SMOOTH",
"619 595 OFFCURVE",
"483 718 OFFCURVE",
"317 718 CURVE SMOOTH",
"175 718 OFFCURVE",
"48 595 OFFCURVE",
"48 359 CURVE SMOOTH",
"48 167 OFFCURVE",
"132 77 OFFCURVE",
"266 -6 CURVE SMOOTH",
"526 -166 LINE SMOOTH",
"568 -192 OFFCURVE",
"599 -129 OFFCURVE",
"555 -104 CURVE SMOOTH",
"379 -4 LINE SMOOTH",
"355 10 OFFCURVE",
"360 26 OFFCURVE",
"377 29 CURVE SMOOTH"
);
},
{
closed = 1;
nodes = (
"369 646 OFFCURVE",
"404 610 OFFCURVE",
"404 359 CURVE SMOOTH",
"404 110 OFFCURVE",
"364 76 OFFCURVE",
"290 76 CURVE SMOOTH",
"214 76 OFFCURVE",
"115 189 OFFCURVE",
"115 359 CURVE SMOOTH",
"115 530 OFFCURVE",
"206 646 OFFCURVE",
"287 646 CURVE SMOOTH"
);
},
{
closed = 1;
nodes = (
"132 555 OFFCURVE",
"132 555 OFFCURVE",
"132 555 CURVE SMOOTH",
"132 555 OFFCURVE",
"132 555 OFFCURVE",
"132 555 CURVE SMOOTH",
"132 555 OFFCURVE",
"132 555 OFFCURVE",
"132 555 CURVE SMOOTH",
"132 555 OFFCURVE",
"132 555 OFFCURVE",
"132 555 CURVE SMOOTH"
);
},
{
closed = 1;
nodes = (
"402 659 OFFCURVE",
"402 659 OFFCURVE",
"402 659 CURVE SMOOTH",
"402 659 OFFCURVE",
"402 659 OFFCURVE",
"402 659 CURVE SMOOTH",
"402 659 OFFCURVE",
"402 659 OFFCURVE",
"402 659 CURVE SMOOTH",
"402 659 OFFCURVE",
"402 659 OFFCURVE",
"402 659 CURVE SMOOTH"
);
},
{
closed = 1;
nodes = (
"514 492 OFFCURVE",
"514 492 OFFCURVE",
"514 492 CURVE SMOOTH",
"514 492 OFFCURVE",
"514 492 OFFCURVE",
"514 492 CURVE SMOOTH",
"514 492 OFFCURVE",
"514 492 OFFCURVE",
"514 492 CURVE SMOOTH",
"514 492 OFFCURVE",
"514 492 OFFCURVE",
"514 492 CURVE SMOOTH"
);
},
{
closed = 1;
nodes = (
"211 657 LINE SMOOTH",
"200 683 OFFCURVE",
"157 660 OFFCURVE",
"167 638 CURVE SMOOTH",
"173 625 LINE SMOOTH",
"180 609 OFFCURVE",
"224 625 OFFCURVE",
"218 640 CURVE SMOOTH"
);
},
{
closed = 1;
nodes = (
"115 532 LINE SMOOTH",
"87 552 OFFCURVE",
"61 507 OFFCURVE",
"86 488 CURVE SMOOTH",
"98 479 LINE SMOOTH",
"118 464 OFFCURVE",
"146 510 OFFCURVE",
"128 523 CURVE SMOOTH"
);
}
);
width = 659;
},
{
layerId = "7390BA8A-CD54-46A0-980C-73781B2212BF";
paths = (
{
closed = 1;
nodes = (
"556 53 OFFCURVE",
"619 175 OFFCURVE",
"619 361 CURVE SMOOTH",
"619 596 OFFCURVE",
"483 718 OFFCURVE",
"332 718 CURVE SMOOTH",
"115 718 OFFCURVE",
"40 584 OFFCURVE",
"40 337 CURVE SMOOTH",
"40 151 OFFCURVE",
"96 81 OFFCURVE",
"198 0 CURVE SMOOTH",
"499 -192 LINE SMOOTH",
"573 -251 OFFCURVE",
"623 -130 OFFCURVE",
"569 -97 CURVE SMOOTH",
"382 -15 LINE SMOOTH",
"358 -1 OFFCURVE",
"363 15 OFFCURVE",
"380 18 CURVE SMOOTH"
);
},
{
closed = 1;
nodes = (
"489 492 OFFCURVE",
"548 380 OFFCURVE",
"548 256 CURVE SMOOTH",
"548 151 OFFCURVE",
"435 66 OFFCURVE",
"291 66 CURVE SMOOTH",
"191 66 OFFCURVE",
"107 172 OFFCURVE",
"107 275 CURVE SMOOTH",
"107 394 OFFCURVE",
"156 454 OFFCURVE",
"332 474 CURVE SMOOTH"
);
},
{
closed = 1;
nodes = (
"200 530 OFFCURVE",
"183 547 OFFCURVE",
"183 568 CURVE SMOOTH",
"183 587 OFFCURVE",
"200 604 OFFCURVE",
"221 604 CURVE SMOOTH",
"240 604 OFFCURVE",
"257 587 OFFCURVE",
"257 568 CURVE SMOOTH",
"257 547 OFFCURVE",
"240 530 OFFCURVE",
"221 530 CURVE SMOOTH"
);
},
{
closed = 1;
nodes = (
"312 549 OFFCURVE",
"291 570 OFFCURVE",
"291 596 CURVE SMOOTH",
"291 622 OFFCURVE",
"312 643 OFFCURVE",
"338 643 CURVE SMOOTH",
"364 643 OFFCURVE",
"385 622 OFFCURVE",
"385 596 CURVE SMOOTH",
"385 570 OFFCURVE",
"364 549 OFFCURVE",
"338 549 CURVE SMOOTH"
);
},
{
closed = 1;
nodes = (
"431 516 OFFCURVE",
"414 533 OFFCURVE",
"414 555 CURVE SMOOTH",
"414 576 OFFCURVE",
"431 593 OFFCURVE",
"453 593 CURVE SMOOTH",
"474 593 OFFCURVE",
"491 576 OFFCURVE",
"491 555 CURVE SMOOTH",
"491 533 OFFCURVE",
"474 516 OFFCURVE",
"453 516 CURVE SMOOTH"
);
},
{
closed = 1;
nodes = (
"363 180 LINE SMOOTH",
"344 224 OFFCURVE",
"294 195 OFFCURVE",
"310 155 CURVE SMOOTH",
"346 62 LINE SMOOTH",
"363 19 OFFCURVE",
"420 50 OFFCURVE",
"401 93 CURVE SMOOTH"
);
},
{
closed = 1;
nodes = (
"421 285 LINE SMOOTH",
"384 317 OFFCURVE",
"350 269 OFFCURVE",
"384 239 CURVE SMOOTH",
"507 130 LINE SMOOTH",
"542 99 OFFCURVE",
"581 150 OFFCURVE",
"544 181 CURVE SMOOTH"
);
}
);
width = 659;
},
{
associatedMasterId = "B4EA0C51-6804-4423-9CCC-BF57B26265D1";
layerId = "87B72C14-80F1-4460-AC00-D10F4B402138";
name = "Feb 17 20, 15:27";
paths = (
{
closed = 1;
nodes = (
"561 46 OFFCURVE",
"619 187 OFFCURVE",
"619 361 CURVE SMOOTH",
"619 596 OFFCURVE",
"483 718 OFFCURVE",
"332 718 CURVE SMOOTH",
"179 718 OFFCURVE",
"40 595 OFFCURVE",
"40 367 CURVE SMOOTH",
"40 188 OFFCURVE",
"131 86 OFFCURVE",
"269 -5 CURVE SMOOTH",
"526 -175 LINE SMOOTH",
"557 -196 OFFCURVE",
"602 -133 OFFCURVE",
"561 -108 CURVE SMOOTH",
"406 -15 LINE SMOOTH",
"382 -1 OFFCURVE",
"387 15 OFFCURVE",
"404 18 CURVE SMOOTH"
);
},
{
closed = 1;
nodes = (
"331 536 OFFCURVE",
"489 412 OFFCURVE",
"489 241 CURVE SMOOTH",
"489 145 OFFCURVE",
"424 66 OFFCURVE",
"342 66 CURVE SMOOTH",
"214 66 OFFCURVE",
"107 216 OFFCURVE",
"107 361 CURVE SMOOTH",
"107 465 OFFCURVE",
"152 536 OFFCURVE",
"233 536 CURVE SMOOTH"
);
},
{
closed = 1;
nodes = (
"132 555 OFFCURVE",
"132 555 OFFCURVE",
"132 555 CURVE SMOOTH",
"132 555 OFFCURVE",
"132 555 OFFCURVE",
"132 555 CURVE SMOOTH",
"132 555 OFFCURVE",
"132 555 OFFCURVE",
"132 555 CURVE SMOOTH",
"132 555 OFFCURVE",
"132 555 OFFCURVE",
"132 555 CURVE SMOOTH"
);
},
{
closed = 1;
nodes = (
"402 659 OFFCURVE",
"402 659 OFFCURVE",
"402 659 CURVE SMOOTH",
"402 659 OFFCURVE",
"402 659 OFFCURVE",
"402 659 CURVE SMOOTH",
"402 659 OFFCURVE",
"402 659 OFFCURVE",
"402 659 CURVE SMOOTH",
"402 659 OFFCURVE",
"402 659 OFFCURVE",
"402 659 CURVE SMOOTH"
);
},
{
closed = 1;
nodes = (
"414 492 OFFCURVE",
"414 492 OFFCURVE",
"414 492 CURVE SMOOTH",
"414 492 OFFCURVE",
"414 492 OFFCURVE",
"414 492 CURVE SMOOTH",
"414 492 OFFCURVE",
"414 492 OFFCURVE",
"414 492 CURVE SMOOTH",
"414 492 OFFCURVE",
"414 492 OFFCURVE",
"414 492 CURVE SMOOTH"
);
},
{
closed = 1;
nodes = (
"208 590 LINE SMOOTH",
"194 623 OFFCURVE",
"143 595 OFFCURVE",
"155 565 CURVE SMOOTH",
"161 550 LINE SMOOTH",
"170 527 OFFCURVE",
"225 550 OFFCURVE",
"217 569 CURVE SMOOTH"
);
},
{
closed = 1;
nodes = (
"115 527 LINE SMOOTH",
"85 551 OFFCURVE",
"49 504 OFFCURVE",
"77 482 CURVE SMOOTH",
"90 472 LINE SMOOTH",
"113 455 OFFCURVE",
"149 500 OFFCURVE",
"129 516 CURVE SMOOTH"
);
}
);
width = 659;
}
);
unicode = 0051;
},
{
glyphname = R;
lastChange = "2020-02-18 22:15:47 +0000";
layers = (
{
layerId = "B4EA0C51-6804-4423-9CCC-BF57B26265D1";
paths = (
{
closed = 1;
nodes = (
"167 715 OFFCURVE",
"63 659 OFFCURVE",
"62 504 CURVE SMOOTH",
"60 25 LINE SMOOTH",
"60 -24 OFFCURVE",
"134 -20 OFFCURVE",
"134 22 CURVE SMOOTH",
"133 481 LINE SMOOTH",
"133 540 OFFCURVE",
"193 577 OFFCURVE",
"290 577 CURVE SMOOTH",
"384 577 OFFCURVE",
"449 544 OFFCURVE",
"449 474 CURVE SMOOTH",
"449 406 OFFCURVE",
"400 369 OFFCURVE",
"296 369 CURVE SMOOTH",
"213 369 OFFCURVE",
"133 399 OFFCURVE",
"133 481 CURVE SMOOTH",
"133 579 OFFCURVE",
"167 627 OFFCURVE",
"290 627 CURVE SMOOTH",
"406 627 OFFCURVE",
"455 577 OFFCURVE",
"455 477 CURVE SMOOTH",
"455 401 OFFCURVE",
"431 377 OFFCURVE",
"353 364 CURVE SMOOTH",
"331 360 OFFCURVE",
"338 339 OFFCURVE",
"361 339 CURVE SMOOTH",
"460 339 OFFCURVE",
"494 411 OFFCURVE",
"494 476 CURVE SMOOTH",
"494 615 OFFCURVE",
"403 679 OFFCURVE",
"274 679 CURVE SMOOTH",
"167 679 OFFCURVE",
"80 598 OFFCURVE",
"80 500 CURVE SMOOTH",
"80 347 OFFCURVE",
"215 311 OFFCURVE",
"296 311 CURVE SMOOTH",
"432 311 OFFCURVE",
"513 372 OFFCURVE",
"513 493 CURVE SMOOTH",
"513 639 OFFCURVE",
"433 715 OFFCURVE",
"297 715 CURVE SMOOTH"
);
},
{
closed = 1;
nodes = (
"412 2 LINE SMOOTH",
"478 -34 OFFCURVE",
"535 18 OFFCURVE",
"535 76 CURVE SMOOTH",
"535 107 OFFCURVE",
"523 139 OFFCURVE",
"488 155 CURVE SMOOTH",
"146 311 LINE SMOOTH",
"125 321 OFFCURVE",
"137 358 OFFCURVE",
"168 342 CURVE",
"183 374 LINE",
"102 403 LINE",
"91 174 LINE"
);
},
{
closed = 1;
nodes = (
"421 185 LINE",
"406 192 OFFCURVE",
"392 198 OFFCURVE",
"377 205 CURVE",
"377 205 LINE",
"421 185 LINE"
);
},
{
closed = 1;
nodes = (
"339 222 LINE",
"322 230 OFFCURVE",
"304 238 OFFCURVE",
"287 246 CURVE",
"287 246 LINE",
"339 222 LINE"
);
}
);
width = 564;
},
{
layerId = "7390BA8A-CD54-46A0-980C-73781B2212BF";
paths = (
{
closed = 1;
nodes = (
"175 715 OFFCURVE",
"52 660 OFFCURVE",
"56 507 CURVE SMOOTH",
"69 21 LINE SMOOTH",
"71 -38 OFFCURVE",
"161 -34 OFFCURVE",
"158 18 CURVE SMOOTH",
"127 501 LINE SMOOTH",
"121 594 OFFCURVE",
"196 652 OFFCURVE",
"297 652 CURVE SMOOTH",
"397 652 OFFCURVE",
"467 605 OFFCURVE",
"467 506 CURVE SMOOTH",
"467 416 OFFCURVE",
"421 367 OFFCURVE",
"352 367 CURVE SMOOTH",
"288 367 OFFCURVE",
"247 405 OFFCURVE",
"247 463 CURVE SMOOTH",
"247 520 OFFCURVE",
"275 537 OFFCURVE",
"303 537 CURVE SMOOTH",
"332 537 OFFCURVE",
"351 526 OFFCURVE",
"351 501 CURVE SMOOTH",
"351 481 OFFCURVE",
"347 474 OFFCURVE",
"325 465 CURVE SMOOTH",
"308 458 OFFCURVE",
"313 430 OFFCURVE",
"342 430 CURVE SMOOTH",
"378 430 OFFCURVE",
"405 461 OFFCURVE",
"405 502 CURVE SMOOTH",
"405 553 OFFCURVE",
"363 587 OFFCURVE",
"304 587 CURVE SMOOTH",
"244 587 OFFCURVE",
"192 543 OFFCURVE",
"192 464 CURVE SMOOTH",
"192 371 OFFCURVE",
"268 314 OFFCURVE",
"351 314 CURVE SMOOTH",
"450 314 OFFCURVE",
"536 384 OFFCURVE",
"536 505 CURVE SMOOTH",
"536 634 OFFCURVE",
"435 715 OFFCURVE",
"297 715 CURVE SMOOTH"
);
},
{
closed = 1;
nodes = (
"438 0 LINE SMOOTH",
"496 -40 OFFCURVE",
"573 -16 OFFCURVE",
"573 91 CURVE SMOOTH",
"573 177 OFFCURVE",
"529 211 OFFCURVE",
"476 219 CURVE SMOOTH",
"114 276 LINE SMOOTH",
"102 278 OFFCURVE",
"101 301 OFFCURVE",
"121 296 CURVE",
"101 318 LINE",
"75 281 LINE",
"100 234 LINE"
);
},
{
closed = 1;
nodes = (
"453 120 LINE SMOOTH",
"454 89 OFFCURVE",
"405 85 OFFCURVE",
"402 125 CURVE SMOOTH",
"395 231 LINE",
"450 222 LINE"
);
},
{
closed = 1;
nodes = (
"344 190 LINE SMOOTH",
"344 152 OFFCURVE",
"275 164 OFFCURVE",
"281 203 CURVE SMOOTH",
"289 248 LINE",
"344 239 LINE"
);
}
);
width = 602;
},
{
associatedMasterId = "B4EA0C51-6804-4423-9CCC-BF57B26265D1";
layerId = "D7D2D3A0-E1E6-4FC4-A071-970DFCA3EF89";
name = "Feb 16 20, 15:18";
paths = (
{
closed = 1;
nodes = (
"62 -30 OFFCURVE",
"134 -30 OFFCURVE",
"134 8 CURVE SMOOTH",
"132 181 LINE",
"412 -1 LINE SMOOTH",
"509 -64 OFFCURVE",
"592 102 OFFCURVE",
"488 155 CURVE SMOOTH",
"217 293 LINE SMOOTH",
"187 308 OFFCURVE",
"201 329 OFFCURVE",
"219 323 CURVE SMOOTH",
"238 317 OFFCURVE",
"259 313 OFFCURVE",
"300 313 CURVE SMOOTH",
"440 313 OFFCURVE",
"512 357 OFFCURVE",
"512 482 CURVE SMOOTH",
"512 639 OFFCURVE",
"411 715 OFFCURVE",
"292 715 CURVE SMOOTH",
"183 715 OFFCURVE",
"65 652 OFFCURVE",
"64 507 CURVE SMOOTH",
"62 9 LINE SMOOTH"
);
},
{
closed = 1;
nodes = (
"134 552 OFFCURVE",
"167 579 OFFCURVE",
"235 579 CURVE SMOOTH",
"345 579 OFFCURVE",
"434 513 OFFCURVE",
"434 453 CURVE SMOOTH",
"434 400 OFFCURVE",
"379 371 OFFCURVE",
"297 371 CURVE SMOOTH",
"201 371 OFFCURVE",
"134 403 OFFCURVE",
"134 505 CURVE SMOOTH"
);
}
);
width = 564;
},
{
associatedMasterId = "B4EA0C51-6804-4423-9CCC-BF57B26265D1";
layerId = "53A94F01-D101-4829-ADF7-C2CF45F63AB4";
name = "Feb 17 20, 15:32";
paths = (
{
closed = 1;
nodes = (
"175 715 OFFCURVE",
"63 650 OFFCURVE",
"62 507 CURVE SMOOTH",
"60 19 LINE SMOOTH",
"60 -30 OFFCURVE",
"134 -26 OFFCURVE",
"134 16 CURVE SMOOTH",
"133 501 LINE SMOOTH",
"133 594 OFFCURVE",
"196 652 OFFCURVE",
"297 652 CURVE SMOOTH",
"397 652 OFFCURVE",
"467 605 OFFCURVE",
"467 506 CURVE SMOOTH",
"467 417 OFFCURVE",
"420 369 OFFCURVE",
"296 369 CURVE SMOOTH",
"214 369 OFFCURVE",
"135 403 OFFCURVE",
"135 498 CURVE SMOOTH",
"135 549 OFFCURVE",
"171 577 OFFCURVE",
"234 577 CURVE SMOOTH",
"350 577 OFFCURVE",
"431 521 OFFCURVE",
"431 455 CURVE SMOOTH",
"431 400 OFFCURVE",
"416 385 OFFCURVE",
"347 370 CURVE",
"319 355 OFFCURVE",
"339 330 OFFCURVE",
"367 330 CURVE SMOOTH",
"436 330 OFFCURVE",
"488 407 OFFCURVE",
"488 519 CURVE SMOOTH",
"488 615 OFFCURVE",
"399 679 OFFCURVE",
"274 679 CURVE SMOOTH",
"167 679 OFFCURVE",
"80 598 OFFCURVE",
"80 500 CURVE SMOOTH",
"80 366 OFFCURVE",
"185 313 OFFCURVE",
"308 313 CURVE SMOOTH",
"437 313 OFFCURVE",
"513 359 OFFCURVE",
"513 493 CURVE SMOOTH",
"513 629 OFFCURVE",
"423 715 OFFCURVE",
"297 715 CURVE SMOOTH"
);
},
{
closed = 1;
nodes = (
"412 -1 LINE SMOOTH",
"475 -43 OFFCURVE",
"535 18 OFFCURVE",
"535 76 CURVE SMOOTH",
"535 107 OFFCURVE",
"523 137 OFFCURVE",
"488 155 CURVE SMOOTH",
"214 296 LINE SMOOTH",
"196 305 OFFCURVE",
"195 333 OFFCURVE",
"225 322 CURVE",
"183 374 LINE",
"102 403 LINE",
"91 208 LINE"
);
},
{
closed = 1;
nodes = (
"421 189 LINE",
"406 197 OFFCURVE",
"392 204 OFFCURVE",
"377 212 CURVE",
"377 212 LINE",
"421 189 LINE"
);
},
{
closed = 1;
nodes = (
"339 233 LINE",
"322 241 OFFCURVE",
"304 250 OFFCURVE",
"287 258 CURVE",
"287 258 LINE",
"339 233 LINE"
);
}
);
width = 564;
},
{
associatedMasterId = "B4EA0C51-6804-4423-9CCC-BF57B26265D1";
layerId = "9FEA6135-7294-477F-ABA6-B545B6C9F807";
name = "Feb 17 20, 17:36";
paths = (
{
closed = 1;
nodes = (
"175 715 OFFCURVE",
"63 650 OFFCURVE",
"62 507 CURVE SMOOTH",
"60 19 LINE SMOOTH",
"60 -30 OFFCURVE",
"134 -26 OFFCURVE",
"134 16 CURVE SMOOTH",
"133 481 LINE SMOOTH",
"133 540 OFFCURVE",
"193 577 OFFCURVE",
"290 577 CURVE SMOOTH",
"384 577 OFFCURVE",
"449 544 OFFCURVE",
"449 474 CURVE SMOOTH",
"449 406 OFFCURVE",
"400 369 OFFCURVE",
"296 369 CURVE SMOOTH",
"213 369 OFFCURVE",
"133 399 OFFCURVE",
"133 481 CURVE SMOOTH",
"133 579 OFFCURVE",
"167 627 OFFCURVE",
"290 627 CURVE SMOOTH",
"406 627 OFFCURVE",
"455 577 OFFCURVE",
"455 477 CURVE SMOOTH",
"455 401 OFFCURVE",
"431 377 OFFCURVE",
"353 364 CURVE SMOOTH",
"331 360 OFFCURVE",
"338 339 OFFCURVE",
"361 339 CURVE SMOOTH",
"460 339 OFFCURVE",
"494 411 OFFCURVE",
"494 476 CURVE SMOOTH",
"494 615 OFFCURVE",
"403 679 OFFCURVE",
"274 679 CURVE SMOOTH",
"167 679 OFFCURVE",
"80 598 OFFCURVE",
"80 500 CURVE SMOOTH",
"80 366 OFFCURVE",
"185 313 OFFCURVE",
"308 313 CURVE SMOOTH",
"437 313 OFFCURVE",
"513 359 OFFCURVE",
"513 493 CURVE SMOOTH",
"513 629 OFFCURVE",
"423 715 OFFCURVE",
"297 715 CURVE SMOOTH"
);
},
{
closed = 1;
nodes = (
"412 -1 LINE SMOOTH",
"475 -43 OFFCURVE",
"535 18 OFFCURVE",
"535 76 CURVE SMOOTH",
"535 107 OFFCURVE",
"523 137 OFFCURVE",
"488 155 CURVE SMOOTH",
"214 296 LINE SMOOTH",
"196 305 OFFCURVE",
"195 333 OFFCURVE",
"225 322 CURVE",
"183 374 LINE",
"102 403 LINE",
"91 208 LINE"
);
},
{
closed = 1;
nodes = (
"421 189 LINE",
"406 197 OFFCURVE",
"392 204 OFFCURVE",
"377 212 CURVE",
"377 212 LINE",
"421 189 LINE"
);
},
{
closed = 1;
nodes = (
"339 233 LINE",
"322 241 OFFCURVE",
"304 250 OFFCURVE",
"287 258 CURVE",
"287 258 LINE",
"339 233 LINE"
);
}
);
width = 564;
}
);
unicode = 0052;
},
{
glyphname = S;
lastChange = "2020-02-18 22:12:36 +0000";
layers = (
{
layerId = "B4EA0C51-6804-4423-9CCC-BF57B26265D1";
paths = (
{
closed = 1;
nodes = (
"115 -15 OFFCURVE",
"45 11 OFFCURVE",
"45 97 CURVE SMOOTH",
"45 141 OFFCURVE",
"71 183 OFFCURVE",
"120 183 CURVE SMOOTH",
"163 183 OFFCURVE",
"177 168 OFFCURVE",
"247 168 CURVE SMOOTH",
"324 168 OFFCURVE",
"387 193 OFFCURVE",
"387 242 CURVE SMOOTH",
"387 271 OFFCURVE",
"366 296 OFFCURVE",
"273 312 CURVE SMOOTH",
"205 324 LINE SMOOTH",
"103 342 OFFCURVE",
"43 405 OFFCURVE",
"43 509 CURVE SMOOTH",
"43 621 OFFCURVE",
"112 705 OFFCURVE",
"261 705 CURVE SMOOTH",
"369 705 OFFCURVE",
"432 683 OFFCURVE",
"432 588 CURVE SMOOTH",
"432 543 OFFCURVE",
"408 499 OFFCURVE",
"360 499 CURVE SMOOTH",
"323 499 OFFCURVE",
"290 512 OFFCURVE",
"226 512 CURVE SMOOTH",
"155 512 OFFCURVE",
"117 495 OFFCURVE",
"117 460 CURVE SMOOTH",
"117 431 OFFCURVE",
"139 404 OFFCURVE",
"214 389 CURVE SMOOTH",
"292 373 LINE SMOOTH",
"412 348 OFFCURVE",
"459 294 OFFCURVE",
"459 198 CURVE SMOOTH",
"459 60 OFFCURVE",
"385 -15 OFFCURVE",
"230 -15 CURVE SMOOTH"
);
},
{
closed = 1;
nodes = (
"203 131 OFFCURVE",
"203 131 OFFCURVE",
"203 131 CURVE SMOOTH",
"203 131 OFFCURVE",
"203 131 OFFCURVE",
"203 131 CURVE SMOOTH",
"203 131 OFFCURVE",
"203 131 OFFCURVE",
"203 131 CURVE SMOOTH",
"203 131 OFFCURVE",
"203 131 OFFCURVE",
"203 131 CURVE SMOOTH"
);
},
{
closed = 1;
nodes = (
"155 47 OFFCURVE",
"155 47 OFFCURVE",
"155 47 CURVE SMOOTH",
"155 47 OFFCURVE",
"155 47 OFFCURVE",
"155 47 CURVE SMOOTH",
"155 47 OFFCURVE",
"155 47 OFFCURVE",
"155 47 CURVE SMOOTH",
"155 47 OFFCURVE",
"155 47 OFFCURVE",
"155 47 CURVE SMOOTH"
);
},
{
closed = 1;
nodes = (
"387 133 OFFCURVE",
"387 133 OFFCURVE",
"387 133 CURVE SMOOTH",
"387 133 OFFCURVE",
"387 133 OFFCURVE",
"387 133 CURVE SMOOTH",
"387 133 OFFCURVE",
"387 133 OFFCURVE",
"387 133 CURVE SMOOTH",
"387 133 OFFCURVE",
"387 133 OFFCURVE",
"387 133 CURVE SMOOTH"
);
},
{
closed = 1;
nodes = (
"164 593 OFFCURVE",
"164 593 OFFCURVE",
"164 593 CURVE SMOOTH",
"164 593 OFFCURVE",
"164 593 OFFCURVE",
"164 593 CURVE SMOOTH",
"164 593 OFFCURVE",
"164 593 OFFCURVE",
"164 593 CURVE SMOOTH",
"164 593 OFFCURVE",
"164 593 OFFCURVE",
"164 593 CURVE SMOOTH"
);
}
);
width = 490;
},
{
layerId = "7390BA8A-CD54-46A0-980C-73781B2212BF";
paths = (
{
closed = 1;
nodes = (
"153 -15 OFFCURVE",
"79 14 OFFCURVE",
"49 78 CURVE SMOOTH",
"18 144 OFFCURVE",
"51 204 OFFCURVE",
"107 204 CURVE SMOOTH",
"185 204 OFFCURVE",
"250 164 OFFCURVE",
"336 163 CURVE SMOOTH",
"384 163 OFFCURVE",
"398 189 OFFCURVE",
"398 240 CURVE SMOOTH",
"398 267 OFFCURVE",
"382 311 OFFCURVE",
"318 329 CURVE SMOOTH",
"180 369 LINE SMOOTH",
"114 388 OFFCURVE",
"65 448 OFFCURVE",
"65 530 CURVE SMOOTH",
"65 678 OFFCURVE",
"169 731 OFFCURVE",
"259 731 CURVE SMOOTH",
"325 731 OFFCURVE",
"373 709 OFFCURVE",
"390 687 CURVE SMOOTH",
"408 663 OFFCURVE",
"393 625 OFFCURVE",
"378 625 CURVE SMOOTH",
"352 625 OFFCURVE",
"321 640 OFFCURVE",
"271 640 CURVE SMOOTH",
"202 640 OFFCURVE",
"135 587 OFFCURVE",
"135 511 CURVE SMOOTH",
"135 471 OFFCURVE",
"160 438 OFFCURVE",
"220 421 CURVE SMOOTH",
"326 392 LINE SMOOTH",
"418 367 OFFCURVE",
"460 307 OFFCURVE",
"460 232 CURVE SMOOTH",
"460 72 OFFCURVE",
"387 -15 OFFCURVE",
"237 -15 CURVE SMOOTH"
);
},
{
closed = 1;
nodes = (
"151 81 OFFCURVE",
"164 94 OFFCURVE",
"164 112 CURVE SMOOTH",
"164 129 OFFCURVE",
"151 142 OFFCURVE",
"134 142 CURVE SMOOTH",
"116 142 OFFCURVE",
"103 129 OFFCURVE",
"103 112 CURVE SMOOTH",
"103 94 OFFCURVE",
"116 81 OFFCURVE",
"134 81 CURVE SMOOTH"
);
},
{
closed = 1;
nodes = (
"250 42 OFFCURVE",
"266 58 OFFCURVE",
"266 80 CURVE SMOOTH",
"266 101 OFFCURVE",
"250 117 OFFCURVE",
"229 117 CURVE SMOOTH",
"207 117 OFFCURVE",
"191 101 OFFCURVE",
"191 80 CURVE SMOOTH",
"191 58 OFFCURVE",
"207 42 OFFCURVE",
"229 42 CURVE SMOOTH"
);
},
{
closed = 1;
nodes = (
"345 59 OFFCURVE",
"357 72 OFFCURVE",
"357 89 CURVE SMOOTH",
"357 106 OFFCURVE",
"345 118 OFFCURVE",
"328 118 CURVE SMOOTH",
"311 118 OFFCURVE",
"298 106 OFFCURVE",
"298 89 CURVE SMOOTH",
"298 72 OFFCURVE",
"311 59 OFFCURVE",
"328 59 CURVE SMOOTH"
);
},
{
closed = 1;
nodes = (
"246 475 OFFCURVE",
"224 497 OFFCURVE",
"224 523 CURVE SMOOTH",
"224 551 OFFCURVE",
"246 572 OFFCURVE",
"273 572 CURVE SMOOTH",
"300 572 OFFCURVE",
"321 551 OFFCURVE",
"321 523 CURVE SMOOTH",
"321 497 OFFCURVE",
"300 475 OFFCURVE",
"273 475 CURVE SMOOTH"
);
}
);
width = 486;
},
{
associatedMasterId = "B4EA0C51-6804-4423-9CCC-BF57B26265D1";
layerId = "F447698D-86F9-4FCA-87CF-B31524AD5757";
name = "Feb 13 20, 17:59";
paths = (
{
closed = 1;
nodes = (
"433 499 OFFCURVE",
"407 485 OFFCURVE",
"378 494 CURVE SMOOTH",
"354 501 OFFCURVE",
"310 511 OFFCURVE",
"238 512 CURVE SMOOTH",
"146 511 OFFCURVE",
"108 495 OFFCURVE",
"108 460 CURVE SMOOTH",
"108 431 OFFCURVE",
"133 406 OFFCURVE",
"215 389 CURVE SMOOTH",
"293 373 LINE SMOOTH",
"413 349 OFFCURVE",
"460 294 OFFCURVE",
"460 198 CURVE SMOOTH",
"460 60 OFFCURVE",
"366 -15 OFFCURVE",
"234 -15 CURVE SMOOTH",
"101 -15 OFFCURVE",
"30 62 OFFCURVE",
"30 137 CURVE SMOOTH",
"30 169 OFFCURVE",
"46 204 OFFCURVE",
"90 190 CURVE SMOOTH",
"119 181 OFFCURVE",
"176 168 OFFCURVE",
"243 168 CURVE SMOOTH",
"328 168 OFFCURVE",
"388 193 OFFCURVE",
"388 242 CURVE SMOOTH",
"388 271 OFFCURVE",
"367 296 OFFCURVE",
"274 312 CURVE SMOOTH",
"206 324 LINE SMOOTH",
"98 343 OFFCURVE",
"34 407 OFFCURVE",
"34 509 CURVE SMOOTH",
"34 621 OFFCURVE",
"106 705 OFFCURVE",
"240 705 CURVE SMOOTH",
"371 705 OFFCURVE",
"433 623 OFFCURVE",
"433 532 CURVE SMOOTH"
);
}
);
width = 490;
},
{
associatedMasterId = "7390BA8A-CD54-46A0-980C-73781B2212BF";
layerId = "F9E411A5-58CE-4F9A-8E19-893322079610";
name = "Feb 14 20, 16:05";
paths = (
{
closed = 1;
nodes = (
"443 633 OFFCURVE",
"413 633 CURVE SMOOTH",
"361 633 OFFCURVE",
"286 619 OFFCURVE",
"220 611 CURVE SMOOTH",
"165 604 OFFCURVE",
"153 580 OFFCURVE",
"153 552 CURVE SMOOTH",
"153 483 OFFCURVE",
"225 413 OFFCURVE",
"294 383 CURVE SMOOTH",
"329 368 LINE SMOOTH",
"401 336 OFFCURVE",
"448 295 OFFCURVE",
"448 215 CURVE SMOOTH",
"448 66 OFFCURVE",
"370 -27 OFFCURVE",
"203 -27 CURVE SMOOTH",
"124 -27 OFFCURVE",
"70 -10 OFFCURVE",
"33 25 CURVE SMOOTH",
"-13 69 OFFCURVE",
"2 174 OFFCURVE",
"78 174 CURVE SMOOTH",
"139 174 OFFCURVE",
"158 156 OFFCURVE",
"243 156 CURVE SMOOTH",
"328 156 OFFCURVE",
"377 183 OFFCURVE",
"377 225 CURVE SMOOTH",
"377 258 OFFCURVE",
"369 296 OFFCURVE",
"300 312 CURVE SMOOTH",
"254 323 LINE SMOOTH",
"63 367 OFFCURVE",
"8 422 OFFCURVE",
"8 523 CURVE SMOOTH",
"8 634 OFFCURVE",
"81 686 OFFCURVE",
"243 700 CURVE SMOOTH",
"312 706 OFFCURVE",
"405 712 OFFCURVE",
"432 694 CURVE SMOOTH",
"452 681 OFFCURVE"
);
}
);
width = 496;
},
{
associatedMasterId = "7390BA8A-CD54-46A0-980C-73781B2212BF";
layerId = "B967EC68-E891-43BC-AA5B-4C403792DA36";
name = "Feb 14 20, 16:07";
paths = (
{
closed = 1;
nodes = (
"411 615 OFFCURVE",
"381 615 CURVE SMOOTH",
"341 615 OFFCURVE",
"311 629 OFFCURVE",
"255 629 CURVE SMOOTH",
"169 629 OFFCURVE",
"118 598 OFFCURVE",
"118 560 CURVE SMOOTH",
"118 527 OFFCURVE",
"142 496 OFFCURVE",
"225 479 CURVE SMOOTH",
"303 463 LINE SMOOTH",
"418 440 OFFCURVE",
"460 343 OFFCURVE",
"460 242 CURVE SMOOTH",
"460 60 OFFCURVE",
"387 -15 OFFCURVE",
"230 -15 CURVE SMOOTH",
"144 -15 OFFCURVE",
"103 -5 OFFCURVE",
"87 7 CURVE SMOOTH",
"57 29 OFFCURVE",
"75 54 OFFCURVE",
"93 54 CURVE SMOOTH",
"143 54 OFFCURVE",
"158 36 OFFCURVE",
"227 36 CURVE SMOOTH",
"320 36 OFFCURVE",
"388 106 OFFCURVE",
"388 242 CURVE SMOOTH",
"388 279 OFFCURVE",
"362 312 OFFCURVE",
"244 332 CURVE SMOOTH",
"176 344 LINE SMOOTH",
"87 360 OFFCURVE",
"34 416 OFFCURVE",
"34 509 CURVE SMOOTH",
"34 621 OFFCURVE",
"106 705 OFFCURVE",
"262 705 CURVE SMOOTH",
"341 705 OFFCURVE",
"377 690 OFFCURVE",
"396 671 CURVE SMOOTH",
"417 650 OFFCURVE"
);
}
);
width = 496;
},
{
associatedMasterId = "7390BA8A-CD54-46A0-980C-73781B2212BF";
layerId = "7388A0E0-2928-4840-AEFA-C6A34FC4CC71";
name = "Feb 14 20, 17:08";
paths = (
{
closed = 1;
nodes = (
"386 604 OFFCURVE",
"353 648 OFFCURVE",
"268 648 CURVE SMOOTH",
"143 648 OFFCURVE",
"90 587 OFFCURVE",
"90 513 CURVE SMOOTH",
"90 426 OFFCURVE",
"136 389 OFFCURVE",
"226 369 CURVE SMOOTH",
"299 353 LINE SMOOTH",
"411 328 OFFCURVE",
"456 277 OFFCURVE",
"456 185 CURVE SMOOTH",
"456 56 OFFCURVE",
"358 -15 OFFCURVE",
"236 -15 CURVE SMOOTH",
"153 -15 OFFCURVE",
"102 4 OFFCURVE",
"63 43 CURVE SMOOTH",
"22 85 OFFCURVE",
"39 186 OFFCURVE",
"111 186 CURVE SMOOTH",
"161 186 OFFCURVE",
"176 168 OFFCURVE",
"254 168 CURVE SMOOTH",
"325 168 OFFCURVE",
"384 186 OFFCURVE",
"384 222 CURVE SMOOTH",
"384 251 OFFCURVE",
"365 273 OFFCURVE",
"280 292 CURVE SMOOTH",
"208 308 LINE SMOOTH",
"95 333 OFFCURVE",
"30 399 OFFCURVE",
"30 514 CURVE SMOOTH",
"30 634 OFFCURVE",
"131 705 OFFCURVE",
"266 705 CURVE SMOOTH",
"351 705 OFFCURVE",
"435 667 OFFCURVE",
"435 555 CURVE SMOOTH",
"435 476 OFFCURVE",
"372 431 OFFCURVE",
"285 431 CURVE SMOOTH",
"217 431 OFFCURVE",
"164 461 OFFCURVE",
"164 516 CURVE SMOOTH",
"164 569 OFFCURVE",
"210 593 OFFCURVE",
"251 593 CURVE SMOOTH",
"287 593 OFFCURVE",
"318 576 OFFCURVE",
"328 548 CURVE SMOOTH",
"337 524 OFFCURVE",
"309 509 OFFCURVE",
"297 531 CURVE SMOOTH",
"288 547 OFFCURVE",
"272 556 OFFCURVE",
"250 556 CURVE SMOOTH",
"231 556 OFFCURVE",
"205 544 OFFCURVE",
"205 517 CURVE SMOOTH",
"205 487 OFFCURVE",
"236 475 OFFCURVE",
"287 475 CURVE SMOOTH",
"367 475 OFFCURVE",
"386 519 OFFCURVE",
"386 556 CURVE SMOOTH"
);
},
{
closed = 1;
nodes = (
"165 62 OFFCURVE",
"178 75 OFFCURVE",
"178 93 CURVE SMOOTH",
"178 110 OFFCURVE",
"165 123 OFFCURVE",
"148 123 CURVE SMOOTH",
"130 123 OFFCURVE",
"117 110 OFFCURVE",
"117 93 CURVE SMOOTH",
"117 75 OFFCURVE",
"130 62 OFFCURVE",
"148 62 CURVE SMOOTH"
);
},
{
closed = 1;
nodes = (
"264 42 OFFCURVE",
"279 57 OFFCURVE",
"279 77 CURVE SMOOTH",
"279 96 OFFCURVE",
"264 111 OFFCURVE",
"245 111 CURVE SMOOTH",
"225 111 OFFCURVE",
"210 96 OFFCURVE",
"210 77 CURVE SMOOTH",
"210 57 OFFCURVE",
"225 42 OFFCURVE",
"245 42 CURVE SMOOTH"
);
},
{
closed = 1;
nodes = (
"360 65 OFFCURVE",
"373 79 OFFCURVE",
"373 97 CURVE SMOOTH",
"373 114 OFFCURVE",
"360 127 OFFCURVE",
"343 127 CURVE SMOOTH",
"325 127 OFFCURVE",
"311 114 OFFCURVE",
"311 97 CURVE SMOOTH",
"311 79 OFFCURVE",
"325 65 OFFCURVE",
"343 65 CURVE SMOOTH"
);
}
);
width = 486;
},
{
associatedMasterId = "7390BA8A-CD54-46A0-980C-73781B2212BF";
layerId = "1B358FBB-9556-4D67-846C-5CC45C71E013";
name = "Feb 14 20, 17:13";
paths = (
{
closed = 1;
nodes = (
"387 599 OFFCURVE",
"365 618 CURVE SMOOTH",
"341 639 OFFCURVE",
"319 656 OFFCURVE",
"288 656 CURVE SMOOTH",
"213 656 OFFCURVE",
"105 514 OFFCURVE",
"105 450 CURVE SMOOTH",
"105 425 OFFCURVE",
"131 406 OFFCURVE",
"215 389 CURVE SMOOTH",
"293 373 LINE SMOOTH",
"413 349 OFFCURVE",
"460 294 OFFCURVE",
"460 198 CURVE SMOOTH",
"460 60 OFFCURVE",
"387 -15 OFFCURVE",
"230 -15 CURVE SMOOTH",
"144 -15 OFFCURVE",
"97 2 OFFCURVE",
"60 37 CURVE SMOOTH",
"14 81 OFFCURVE",
"29 186 OFFCURVE",
"105 186 CURVE SMOOTH",
"155 186 OFFCURVE",
"170 168 OFFCURVE",
"239 168 CURVE SMOOTH",
"325 168 OFFCURVE",
"388 193 OFFCURVE",
"388 242 CURVE SMOOTH",
"388 271 OFFCURVE",
"367 292 OFFCURVE",
"274 312 CURVE SMOOTH",
"176 333 LINE SMOOTH",
"58 358 OFFCURVE",
"14 413 OFFCURVE",
"14 496 CURVE SMOOTH",
"14 630 OFFCURVE",
"106 705 OFFCURVE",
"264 705 CURVE SMOOTH",
"326 705 OFFCURVE",
"372 689 OFFCURVE",
"405 649 CURVE SMOOTH",
"420 631 OFFCURVE"
);
},
{
closed = 1;
nodes = (
"165 62 OFFCURVE",
"178 75 OFFCURVE",
"178 93 CURVE SMOOTH",
"178 110 OFFCURVE",
"165 123 OFFCURVE",
"148 123 CURVE SMOOTH",
"130 123 OFFCURVE",
"117 110 OFFCURVE",
"117 93 CURVE SMOOTH",
"117 75 OFFCURVE",
"130 62 OFFCURVE",
"148 62 CURVE SMOOTH"
);
},
{
closed = 1;
nodes = (
"264 42 OFFCURVE",
"279 57 OFFCURVE",
"279 77 CURVE SMOOTH",
"279 96 OFFCURVE",
"264 111 OFFCURVE",
"245 111 CURVE SMOOTH",
"225 111 OFFCURVE",
"210 96 OFFCURVE",
"210 77 CURVE SMOOTH",
"210 57 OFFCURVE",
"225 42 OFFCURVE",
"245 42 CURVE SMOOTH"
);
},
{
closed = 1;
nodes = (
"360 65 OFFCURVE",
"373 79 OFFCURVE",
"373 97 CURVE SMOOTH",
"373 114 OFFCURVE",
"360 127 OFFCURVE",
"343 127 CURVE SMOOTH",
"325 127 OFFCURVE",
"311 114 OFFCURVE",
"311 97 CURVE SMOOTH",
"311 79 OFFCURVE",
"325 65 OFFCURVE",
"343 65 CURVE SMOOTH"
);
},
{
closed = 1;
nodes = (
"302 460 OFFCURVE",
"325 483 OFFCURVE",
"325 511 CURVE SMOOTH",
"325 540 OFFCURVE",
"302 563 OFFCURVE",
"274 563 CURVE SMOOTH",
"245 563 OFFCURVE",
"222 540 OFFCURVE",
"222 511 CURVE SMOOTH",
"222 483 OFFCURVE",
"245 460 OFFCURVE",
"274 460 CURVE SMOOTH"
);
}
);
width = 486;
},
{
associatedMasterId = "7390BA8A-CD54-46A0-980C-73781B2212BF";
layerId = "93A23A66-A1CD-4358-ACB7-D013FAA21C7D";
name = "Feb 14 20, 17:15";
paths = (
{
closed = 1;
nodes = (
"312 488 OFFCURVE",
"278 556 CURVE SMOOTH",
"244 624 OFFCURVE",
"227 639 OFFCURVE",
"196 639 CURVE SMOOTH",
"110 639 OFFCURVE",
"77 569 OFFCURVE",
"77 530 CURVE SMOOTH",
"77 473 OFFCURVE",
"106 412 OFFCURVE",
"215 389 CURVE SMOOTH",
"293 373 LINE SMOOTH",
"413 349 OFFCURVE",
"460 294 OFFCURVE",
"460 198 CURVE SMOOTH",
"460 60 OFFCURVE",
"387 -15 OFFCURVE",
"230 -15 CURVE SMOOTH",
"144 -15 OFFCURVE",
"97 2 OFFCURVE",
"60 37 CURVE SMOOTH",
"14 81 OFFCURVE",
"29 186 OFFCURVE",
"105 186 CURVE SMOOTH",
"155 186 OFFCURVE",
"170 168 OFFCURVE",
"239 168 CURVE SMOOTH",
"325 168 OFFCURVE",
"388 193 OFFCURVE",
"388 242 CURVE SMOOTH",
"388 271 OFFCURVE",
"367 292 OFFCURVE",
"274 312 CURVE SMOOTH",
"176 333 LINE SMOOTH",
"58 358 OFFCURVE",
"14 413 OFFCURVE",
"14 496 CURVE SMOOTH",
"14 630 OFFCURVE",
"106 705 OFFCURVE",
"264 705 CURVE SMOOTH",
"339 705 OFFCURVE",
"417 689 OFFCURVE",
"449 638 CURVE SMOOTH",
"503 551 OFFCURVE"
);
},
{
closed = 1;
nodes = (
"165 62 OFFCURVE",
"178 75 OFFCURVE",
"178 93 CURVE SMOOTH",
"178 110 OFFCURVE",
"165 123 OFFCURVE",
"148 123 CURVE SMOOTH",
"130 123 OFFCURVE",
"117 110 OFFCURVE",
"117 93 CURVE SMOOTH",
"117 75 OFFCURVE",
"130 62 OFFCURVE",
"148 62 CURVE SMOOTH"
);
},
{
closed = 1;
nodes = (
"264 42 OFFCURVE",
"279 57 OFFCURVE",
"279 77 CURVE SMOOTH",
"279 96 OFFCURVE",
"264 111 OFFCURVE",
"245 111 CURVE SMOOTH",
"225 111 OFFCURVE",
"210 96 OFFCURVE",
"210 77 CURVE SMOOTH",
"210 57 OFFCURVE",
"225 42 OFFCURVE",
"245 42 CURVE SMOOTH"
);
},
{
closed = 1;
nodes = (
"360 65 OFFCURVE",
"373 79 OFFCURVE",
"373 97 CURVE SMOOTH",
"373 114 OFFCURVE",
"360 127 OFFCURVE",
"343 127 CURVE SMOOTH",
"325 127 OFFCURVE",
"311 114 OFFCURVE",
"311 97 CURVE SMOOTH",
"311 79 OFFCURVE",
"325 65 OFFCURVE",
"343 65 CURVE SMOOTH"
);
},
{
closed = 1;
nodes = (
"213 453 OFFCURVE",
"236 476 OFFCURVE",
"236 504 CURVE SMOOTH",
"236 533 OFFCURVE",
"213 556 OFFCURVE",
"185 556 CURVE SMOOTH",
"156 556 OFFCURVE",
"133 533 OFFCURVE",
"133 504 CURVE SMOOTH",
"133 476 OFFCURVE",
"156 453 OFFCURVE",
"185 453 CURVE SMOOTH"
);
}
);
width = 486;
},
{
associatedMasterId = "7390BA8A-CD54-46A0-980C-73781B2212BF";
layerId = "4C72BBB3-152D-45AF-AD68-91DCD1255431";
name = "Feb 14 20, 17:21";
paths = (
{
closed = 1;
nodes = (
"405 606 OFFCURVE",
"365 621 CURVE SMOOTH",
"329 635 OFFCURVE",
"296 645 OFFCURVE",
"252 645 CURVE SMOOTH",
"163 645 OFFCURVE",
"97 594 OFFCURVE",
"97 517 CURVE SMOOTH",
"97 456 OFFCURVE",
"134 411 OFFCURVE",
"193 395 CURVE SMOOTH",
"313 363 LINE SMOOTH",
"418 335 OFFCURVE",
"460 289 OFFCURVE",
"460 198 CURVE SMOOTH",
"460 60 OFFCURVE",
"387 -15 OFFCURVE",
"230 -15 CURVE SMOOTH",
"144 -15 OFFCURVE",
"97 2 OFFCURVE",
"60 37 CURVE SMOOTH",
"14 81 OFFCURVE",
"29 186 OFFCURVE",
"105 186 CURVE SMOOTH",
"155 186 OFFCURVE",
"170 168 OFFCURVE",
"239 168 CURVE SMOOTH",
"325 168 OFFCURVE",
"388 193 OFFCURVE",
"388 242 CURVE SMOOTH",
"388 267 OFFCURVE",
"370 285 OFFCURVE",
"294 305 CURVE SMOOTH",
"180 335 LINE SMOOTH",
"90 359 OFFCURVE",
"35 420 OFFCURVE",
"35 511 CURVE SMOOTH",
"35 649 OFFCURVE",
"153 705 OFFCURVE",
"252 705 CURVE SMOOTH",
"305 705 OFFCURVE",
"363 694 OFFCURVE",
"390 679 CURVE SMOOTH",
"424 660 OFFCURVE"
);
},
{
closed = 1;
nodes = (
"165 62 OFFCURVE",
"178 75 OFFCURVE",
"178 93 CURVE SMOOTH",
"178 110 OFFCURVE",
"165 123 OFFCURVE",
"148 123 CURVE SMOOTH",
"130 123 OFFCURVE",
"117 110 OFFCURVE",
"117 93 CURVE SMOOTH",
"117 75 OFFCURVE",
"130 62 OFFCURVE",
"148 62 CURVE SMOOTH"
);
},
{
closed = 1;
nodes = (
"264 42 OFFCURVE",
"279 57 OFFCURVE",
"279 77 CURVE SMOOTH",
"279 96 OFFCURVE",
"264 111 OFFCURVE",
"245 111 CURVE SMOOTH",
"225 111 OFFCURVE",
"210 96 OFFCURVE",
"210 77 CURVE SMOOTH",
"210 57 OFFCURVE",
"225 42 OFFCURVE",
"245 42 CURVE SMOOTH"
);
},
{
closed = 1;
nodes = (
"360 65 OFFCURVE",
"373 79 OFFCURVE",
"373 97 CURVE SMOOTH",
"373 114 OFFCURVE",
"360 127 OFFCURVE",
"343 127 CURVE SMOOTH",
"325 127 OFFCURVE",
"311 114 OFFCURVE",
"311 97 CURVE SMOOTH",
"311 79 OFFCURVE",
"325 65 OFFCURVE",
"343 65 CURVE SMOOTH"
);
},
{
closed = 1;
nodes = (
"292 463 OFFCURVE",
"315 486 OFFCURVE",
"315 514 CURVE SMOOTH",
"315 543 OFFCURVE",
"292 566 OFFCURVE",
"264 566 CURVE SMOOTH",
"235 566 OFFCURVE",
"212 543 OFFCURVE",
"212 514 CURVE SMOOTH",
"212 486 OFFCURVE",
"235 463 OFFCURVE",
"264 463 CURVE SMOOTH"
);
}
);
width = 486;
},
{
associatedMasterId = "7390BA8A-CD54-46A0-980C-73781B2212BF";
layerId = "90DD181B-7B00-4D3B-880E-7BB9376EEC34";
name = "Feb 14 20, 17:27";
paths = (
{
closed = 1;
nodes = (
"384 635 OFFCURVE",
"358 635 CURVE SMOOTH",
"336 635 OFFCURVE",
"309 670 OFFCURVE",
"261 670 CURVE SMOOTH",
"177 670 OFFCURVE",
"107 586 OFFCURVE",
"107 487 CURVE SMOOTH",
"107 441 OFFCURVE",
"141 411 OFFCURVE",
"201 395 CURVE SMOOTH",
"326 362 LINE SMOOTH",
"418 337 OFFCURVE",
"460 292 OFFCURVE",
"460 204 CURVE SMOOTH",
"460 62 OFFCURVE",
"387 -15 OFFCURVE",
"231 -15 CURVE SMOOTH",
"153 -15 OFFCURVE",
"79 14 OFFCURVE",
"49 78 CURVE SMOOTH",
"18 144 OFFCURVE",
"51 204 OFFCURVE",
"107 204 CURVE SMOOTH",
"176 204 OFFCURVE",
"245 158 OFFCURVE",
"309 158 CURVE SMOOTH",
"360 158 OFFCURVE",
"398 176 OFFCURVE",
"398 212 CURVE SMOOTH",
"398 249 OFFCURVE",
"380 282 OFFCURVE",
"294 305 CURVE SMOOTH",
"178 335 LINE SMOOTH",
"96 357 OFFCURVE",
"44 405 OFFCURVE",
"44 486 CURVE SMOOTH",
"44 645 OFFCURVE",
"159 731 OFFCURVE",
"259 731 CURVE SMOOTH",
"325 731 OFFCURVE",
"373 704 OFFCURVE",
"390 679 CURVE SMOOTH",
"403 659 OFFCURVE"
);
},
{
closed = 1;
nodes = (
"145 84 OFFCURVE",
"158 97 OFFCURVE",
"158 115 CURVE SMOOTH",
"158 132 OFFCURVE",
"145 145 OFFCURVE",
"128 145 CURVE SMOOTH",
"110 145 OFFCURVE",
"97 132 OFFCURVE",
"97 115 CURVE SMOOTH",
"97 97 OFFCURVE",
"110 84 OFFCURVE",
"128 84 CURVE SMOOTH"
);
},
{
closed = 1;
nodes = (
"234 37 OFFCURVE",
"250 53 OFFCURVE",
"250 75 CURVE SMOOTH",
"250 96 OFFCURVE",
"234 112 OFFCURVE",
"213 112 CURVE SMOOTH",
"191 112 OFFCURVE",
"175 96 OFFCURVE",
"175 75 CURVE SMOOTH",
"175 53 OFFCURVE",
"191 37 OFFCURVE",
"213 37 CURVE SMOOTH"
);
},
{
closed = 1;
nodes = (
"330 58 OFFCURVE",
"343 72 OFFCURVE",
"343 90 CURVE SMOOTH",
"343 107 OFFCURVE",
"330 120 OFFCURVE",
"313 120 CURVE SMOOTH",
"295 120 OFFCURVE",
"281 107 OFFCURVE",
"281 90 CURVE SMOOTH",
"281 72 OFFCURVE",
"295 58 OFFCURVE",
"313 58 CURVE SMOOTH"
);
},
{
closed = 1;
nodes = (
"236 471 OFFCURVE",
"213 494 OFFCURVE",
"213 522 CURVE SMOOTH",
"213 551 OFFCURVE",
"236 574 OFFCURVE",
"265 574 CURVE SMOOTH",
"293 574 OFFCURVE",
"316 551 OFFCURVE",
"316 522 CURVE SMOOTH",
"316 494 OFFCURVE",
"293 471 OFFCURVE",
"265 471 CURVE SMOOTH"
);
}
);
width = 486;
},
{
associatedMasterId = "7390BA8A-CD54-46A0-980C-73781B2212BF";
layerId = "17833927-D189-4065-AE25-FFDEBD6E0DEE";
name = "Feb 14 20, 17:34";
paths = (
{
closed = 1;
nodes = (
"403 659 OFFCURVE",
"384 635 OFFCURVE",
"358 635 CURVE SMOOTH",
"336 635 OFFCURVE",
"309 670 OFFCURVE",
"261 670 CURVE SMOOTH",
"191 670 OFFCURVE",
"135 609 OFFCURVE",
"135 521 CURVE SMOOTH",
"135 477 OFFCURVE",
"159 438 OFFCURVE",
"220 421 CURVE SMOOTH",
"326 392 LINE SMOOTH",
"418 367 OFFCURVE",
"460 307 OFFCURVE",
"460 232 CURVE SMOOTH",
"460 72 OFFCURVE",
"387 -15 OFFCURVE",
"237 -15 CURVE SMOOTH",
"153 -15 OFFCURVE",
"79 14 OFFCURVE",
"49 78 CURVE SMOOTH",
"18 144 OFFCURVE",
"51 204 OFFCURVE",
"107 204 CURVE SMOOTH",
"185 204 OFFCURVE",
"250 164 OFFCURVE",
"336 163 CURVE SMOOTH",
"384 163 OFFCURVE",
"398 189 OFFCURVE",
"398 240 CURVE SMOOTH",
"398 267 OFFCURVE",
"382 311 OFFCURVE",
"318 329 CURVE SMOOTH",
"180 369 LINE SMOOTH",
"119 386 OFFCURVE",
"72 443 OFFCURVE",
"72 520 CURVE SMOOTH",
"72 665 OFFCURVE",
"171 731 OFFCURVE",
"259 731 CURVE SMOOTH",
"325 731 OFFCURVE",
"373 704 OFFCURVE",
"390 679 CURVE SMOOTH"
);
},
{
closed = 1;
nodes = (
"151 81 OFFCURVE",
"164 94 OFFCURVE",
"164 112 CURVE SMOOTH",
"164 129 OFFCURVE",
"151 142 OFFCURVE",
"134 142 CURVE SMOOTH",
"116 142 OFFCURVE",
"103 129 OFFCURVE",
"103 112 CURVE SMOOTH",
"103 94 OFFCURVE",
"116 81 OFFCURVE",
"134 81 CURVE SMOOTH"
);
},
{
closed = 1;
nodes = (
"250 42 OFFCURVE",
"266 58 OFFCURVE",
"266 80 CURVE SMOOTH",
"266 101 OFFCURVE",
"250 117 OFFCURVE",
"229 117 CURVE SMOOTH",
"207 117 OFFCURVE",
"191 101 OFFCURVE",
"191 80 CURVE SMOOTH",
"191 58 OFFCURVE",
"207 42 OFFCURVE",
"229 42 CURVE SMOOTH"
);
},
{
closed = 1;
nodes = (
"345 59 OFFCURVE",
"357 72 OFFCURVE",
"357 89 CURVE SMOOTH",
"357 106 OFFCURVE",
"345 118 OFFCURVE",
"328 118 CURVE SMOOTH",
"311 118 OFFCURVE",
"298 106 OFFCURVE",
"298 89 CURVE SMOOTH",
"298 72 OFFCURVE",
"311 59 OFFCURVE",
"328 59 CURVE SMOOTH"
);
},
{
closed = 1;
nodes = (
"218 691 LINE",
"259 691 LINE",
"267 590 LINE SMOOTH",
"271 536 OFFCURVE",
"215 536 OFFCURVE",
"216 590 CURVE SMOOTH"
);
}
);
width = 486;
},
{
associatedMasterId = "B4EA0C51-6804-4423-9CCC-BF57B26265D1";
layerId = "63B8E114-74B3-4BB5-A4EB-0B890070B5ED";
name = "Feb 18 20, 13:59";
paths = (
{
closed = 1;
nodes = (
"459 498 OFFCURVE",
"381 498 CURVE SMOOTH",
"338 498 OFFCURVE",
"305 512 OFFCURVE",
"245 512 CURVE SMOOTH",
"149 512 OFFCURVE",
"108 495 OFFCURVE",
"108 460 CURVE SMOOTH",
"108 431 OFFCURVE",
"133 406 OFFCURVE",
"215 389 CURVE SMOOTH",
"293 373 LINE SMOOTH",
"413 349 OFFCURVE",
"460 294 OFFCURVE",
"460 198 CURVE SMOOTH",
"460 60 OFFCURVE",
"387 -15 OFFCURVE",
"230 -15 CURVE SMOOTH",
"144 -15 OFFCURVE",
"97 2 OFFCURVE",
"60 37 CURVE SMOOTH",
"14 81 OFFCURVE",
"29 186 OFFCURVE",
"105 186 CURVE SMOOTH",
"155 186 OFFCURVE",
"170 168 OFFCURVE",
"239 168 CURVE SMOOTH",
"325 168 OFFCURVE",
"388 193 OFFCURVE",
"388 242 CURVE SMOOTH",
"388 271 OFFCURVE",
"367 296 OFFCURVE",
"274 312 CURVE SMOOTH",
"206 324 LINE SMOOTH",
"98 343 OFFCURVE",
"34 405 OFFCURVE",
"34 509 CURVE SMOOTH",
"34 621 OFFCURVE",
"106 705 OFFCURVE",
"262 705 CURVE SMOOTH",
"341 705 OFFCURVE",
"386 693 OFFCURVE",
"423 656 CURVE SMOOTH",
"464 616 OFFCURVE"
);
},
{
closed = 1;
nodes = (
"204 131 OFFCURVE",
"204 131 OFFCURVE",
"204 131 CURVE SMOOTH",
"204 131 OFFCURVE",
"204 131 OFFCURVE",
"204 131 CURVE SMOOTH",
"204 131 OFFCURVE",
"204 131 OFFCURVE",
"204 131 CURVE SMOOTH",
"204 131 OFFCURVE",
"204 131 OFFCURVE",
"204 131 CURVE SMOOTH"
);
},
{
closed = 1;
nodes = (
"151 47 OFFCURVE",
"151 47 OFFCURVE",
"151 47 CURVE SMOOTH",
"151 47 OFFCURVE",
"151 47 OFFCURVE",
"151 47 CURVE SMOOTH",
"151 47 OFFCURVE",
"151 47 OFFCURVE",
"151 47 CURVE SMOOTH",
"151 47 OFFCURVE",
"151 47 OFFCURVE",
"151 47 CURVE SMOOTH"
);
},
{
closed = 1;
nodes = (
"388 133 OFFCURVE",
"388 133 OFFCURVE",
"388 133 CURVE SMOOTH",
"388 133 OFFCURVE",
"388 133 OFFCURVE",
"388 133 CURVE SMOOTH",
"388 133 OFFCURVE",
"388 133 OFFCURVE",
"388 133 CURVE SMOOTH",
"388 133 OFFCURVE",
"388 133 OFFCURVE",
"388 133 CURVE SMOOTH"
);
},
{
closed = 1;
nodes = (
"165 593 OFFCURVE",
"165 593 OFFCURVE",
"165 593 CURVE SMOOTH",
"165 593 OFFCURVE",
"165 593 OFFCURVE",
"165 593 CURVE SMOOTH",
"165 593 OFFCURVE",
"165 593 OFFCURVE",
"165 593 CURVE SMOOTH",
"165 593 OFFCURVE",
"165 593 OFFCURVE",
"165 593 CURVE SMOOTH"
);
}
);
width = 490;
}
);
unicode = 0053;
},
{
glyphname = T;
lastChange = "2020-02-18 22:24:49 +0000";
layers = (
{
layerId = "B4EA0C51-6804-4423-9CCC-BF57B26265D1";
paths = (
{
closed = 1;
nodes = (
"202 288 LINE",
"202 262 OFFCURVE",
"201 236 OFFCURVE",
"201 210 CURVE",
"201 210 LINE",
"202 288 LINE"
);
},
{
closed = 1;
nodes = (
"202 147 LINE",
"201 127 OFFCURVE",
"201 106 OFFCURVE",
"200 86 CURVE",
"200 86 LINE",
"202 147 LINE"
);
},
{
closed = 1;
nodes = (
"20 516 OFFCURVE",
"43 451 OFFCURVE",
"140 451 CURVE SMOOTH",
"184 451 LINE SMOOTH",
"199 451 OFFCURVE",
"203 444 OFFCURVE",
"203 429 CURVE SMOOTH",
"200 17 LINE SMOOTH",
"200 -23 OFFCURVE",
"272 -24 OFFCURVE",
"272 16 CURVE SMOOTH",
"273 429 LINE SMOOTH",
"273 444 OFFCURVE",
"280 451 OFFCURVE",
"297 451 CURVE SMOOTH",
"334 451 LINE SMOOTH",
"431 451 OFFCURVE",
"454 514 OFFCURVE",
"454 576 CURVE SMOOTH",
"454 640 OFFCURVE",
"429 700 OFFCURVE",
"333 700 CURVE SMOOTH",
"141 700 LINE SMOOTH",
"45 700 OFFCURVE",
"20 642 OFFCURVE",
"20 578 CURVE SMOOTH"
);
}
);
width = 474;
},
{
associatedMasterId = "7390BA8A-CD54-46A0-980C-73781B2212BF";
layerId = "00FAAB6C-1C0D-4E06-A195-BD97E0125B9B";
name = "Feb 15 20, 17:13";
paths = (
{
closed = 1;
nodes = (
"196 270 OFFCURVE",
"291 270 OFFCURVE",
"287 327 CURVE SMOOTH",
"272 544 LINE",
"202 524 LINE",
"197 327 LINE SMOOTH"
);
},
{
closed = 1;
nodes = (
"432 572 OFFCURVE",
"457 594 OFFCURVE",
"457 628 CURVE SMOOTH",
"457 675 OFFCURVE",
"433 704 OFFCURVE",
"382 702 CURVE SMOOTH",
"121 692 LINE SMOOTH",
"43 689 OFFCURVE",
"14 630 OFFCURVE",
"14 554 CURVE SMOOTH",
"14 475 OFFCURVE",
"74 412 OFFCURVE",
"157 449 CURVE SMOOTH",
"388 552 LINE SMOOTH"
);
},
{
closed = 1;
nodes = (
"313 615 LINE SMOOTH",
"319 582 OFFCURVE",
"249 559 OFFCURVE",
"245 608 CURVE SMOOTH",
"238 697 LINE",
"298 699 LINE"
);
},
{
closed = 1;
nodes = (
"199 596 LINE SMOOTH",
"198 551 OFFCURVE",
"120 547 OFFCURVE",
"126 593 CURVE SMOOTH",
"140 692 LINE",
"201 694 LINE"
);
},
{
closed = 1;
nodes = (
"272 146 OFFCURVE",
"294 168 OFFCURVE",
"294 195 CURVE SMOOTH",
"294 223 OFFCURVE",
"272 245 OFFCURVE",
"244 245 CURVE SMOOTH",
"217 245 OFFCURVE",
"195 223 OFFCURVE",
"195 195 CURVE SMOOTH",
"195 168 OFFCURVE",
"217 146 OFFCURVE",
"244 146 CURVE SMOOTH"
);
},
{
closed = 1;
nodes = (
"281 -15 OFFCURVE",
"309 13 OFFCURVE",
"309 48 CURVE SMOOTH",
"309 83 OFFCURVE",
"281 111 OFFCURVE",
"246 111 CURVE SMOOTH",
"211 111 OFFCURVE",
"183 83 OFFCURVE",
"183 48 CURVE SMOOTH",
"183 13 OFFCURVE",
"211 -15 OFFCURVE",
"246 -15 CURVE SMOOTH"
);
}
);
width = 474;
},
{
associatedMasterId = "7390BA8A-CD54-46A0-980C-73781B2212BF";
layerId = "0F700003-67F1-4288-8C35-AC325E5AAFF3";
name = "Feb 15 20, 17:15";
paths = (
{
closed = 1;
nodes = (
"196 180 OFFCURVE",
"290 180 OFFCURVE",
"287 237 CURVE SMOOTH",
"272 544 LINE",
"202 524 LINE",
"197 237 LINE SMOOTH"
);
},
{
closed = 1;
nodes = (
"432 572 OFFCURVE",
"457 594 OFFCURVE",
"457 628 CURVE SMOOTH",
"457 675 OFFCURVE",
"433 704 OFFCURVE",
"382 702 CURVE SMOOTH",
"121 692 LINE SMOOTH",
"43 689 OFFCURVE",
"14 630 OFFCURVE",
"14 554 CURVE SMOOTH",
"14 475 OFFCURVE",
"74 412 OFFCURVE",
"157 449 CURVE SMOOTH",
"388 552 LINE SMOOTH"
);
},
{
closed = 1;
nodes = (
"313 615 LINE SMOOTH",
"319 582 OFFCURVE",
"249 559 OFFCURVE",
"245 608 CURVE SMOOTH",
"238 697 LINE",
"298 699 LINE"
);
},
{
closed = 1;
nodes = (
"199 596 LINE SMOOTH",
"198 551 OFFCURVE",
"120 547 OFFCURVE",
"126 593 CURVE SMOOTH",
"140 692 LINE",
"201 694 LINE"
);
},
{
closed = 1;
nodes = (
"181 -50 OFFCURVE",
"315 -49 OFFCURVE",
"308 34 CURVE SMOOTH",
"300 91 LINE SMOOTH",
"293 154 OFFCURVE",
"191 155 OFFCURVE",
"188 91 CURVE SMOOTH",
"184 34 LINE SMOOTH"
);
}
);
width = 474;
},
{
associatedMasterId = "7390BA8A-CD54-46A0-980C-73781B2212BF";
layerId = "E3C2B218-DD4C-40B4-9DDE-76FF23E7293D";
name = "Feb 15 20, 17:16";
paths = (
{
closed = 1;
nodes = (
"196 180 OFFCURVE",
"290 180 OFFCURVE",
"287 237 CURVE SMOOTH",
"272 544 LINE",
"202 524 LINE",
"197 237 LINE SMOOTH"
);
},
{
closed = 1;
nodes = (
"432 572 OFFCURVE",
"457 594 OFFCURVE",
"457 628 CURVE SMOOTH",
"457 675 OFFCURVE",
"433 704 OFFCURVE",
"382 702 CURVE SMOOTH",
"121 692 LINE SMOOTH",
"43 689 OFFCURVE",
"14 630 OFFCURVE",
"14 554 CURVE SMOOTH",
"14 475 OFFCURVE",
"74 412 OFFCURVE",
"157 449 CURVE SMOOTH",
"388 552 LINE SMOOTH"
);
},
{
closed = 1;
nodes = (
"181 -50 OFFCURVE",
"315 -49 OFFCURVE",
"308 34 CURVE SMOOTH",
"300 91 LINE SMOOTH",
"293 154 OFFCURVE",
"191 155 OFFCURVE",
"188 91 CURVE SMOOTH",
"184 34 LINE SMOOTH"
);
}
);
width = 474;
},
{
layerId = "7390BA8A-CD54-46A0-980C-73781B2212BF";
paths = (
{
closed = 1;
nodes = (
"263 334 LINE SMOOTH",
"298 338 OFFCURVE",
"316 251 OFFCURVE",
"265 250 CURVE SMOOTH",
"195 249 LINE",
"200 327 LINE"
);
},
{
closed = 1;
nodes = (
"271 182 LINE SMOOTH",
"331 179 OFFCURVE",
"319 94 OFFCURVE",
"261 108 CURVE SMOOTH",
"188 125 LINE",
"191 186 LINE"
);
},
{
closed = 1;
nodes = (
"20 594 OFFCURVE",
"43 579 OFFCURVE",
"89 586 CURVE SMOOTH",
"190 601 LINE SMOOTH",
"209 604 OFFCURVE",
"215 595 OFFCURVE",
"214 574 CURVE SMOOTH",
"185 77 LINE SMOOTH",
"178 -50 OFFCURVE",
"407 -31 OFFCURVE",
"390 85 CURVE SMOOTH",
"316 593 LINE SMOOTH",
"313 611 OFFCURVE",
"321 621 OFFCURVE",
"341 624 CURVE SMOOTH",
"466 643 LINE SMOOTH",
"500 648 OFFCURVE",
"515 663 OFFCURVE",
"515 679 CURVE SMOOTH",
"515 707 OFFCURVE",
"497 725 OFFCURVE",
"460 723 CURVE SMOOTH",
"87 701 LINE SMOOTH",
"38 698 OFFCURVE",
"20 672 OFFCURVE",
"20 633 CURVE SMOOTH"
);
}
);
width = 535;
},
{
associatedMasterId = "7390BA8A-CD54-46A0-980C-73781B2212BF";
layerId = "E6F7CC15-5F49-4009-941B-080FCBEC101B";
name = "Feb 15 20, 17:16";
paths = (
{
closed = 1;
nodes = (
"239 -40 OFFCURVE",
"322 -31 OFFCURVE",
"318 26 CURVE SMOOTH",
"278 549 LINE",
"208 529 LINE",
"236 17 LINE SMOOTH"
);
},
{
closed = 1;
nodes = (
"432 572 OFFCURVE",
"457 594 OFFCURVE",
"457 628 CURVE SMOOTH",
"457 675 OFFCURVE",
"433 704 OFFCURVE",
"382 702 CURVE SMOOTH",
"121 692 LINE SMOOTH",
"43 689 OFFCURVE",
"14 630 OFFCURVE",
"14 554 CURVE SMOOTH",
"14 475 OFFCURVE",
"74 412 OFFCURVE",
"157 449 CURVE SMOOTH",
"388 552 LINE SMOOTH"
);
},
{
closed = 1;
nodes = (
"287 292 OFFCURVE",
"284 354 OFFCURVE",
"239 354 CURVE SMOOTH",
"134 354 LINE SMOOTH",
"85 354 OFFCURVE",
"88 284 OFFCURVE",
"131 286 CURVE SMOOTH",
"242 290 LINE SMOOTH"
);
},
{
closed = 1;
nodes = (
"284 163 OFFCURVE",
"288 230 OFFCURVE",
"243 233 CURVE SMOOTH",
"153 239 LINE SMOOTH",
"107 242 OFFCURVE",
"105 167 OFFCURVE",
"150 166 CURVE SMOOTH",
"239 164 LINE SMOOTH"
);
}
);
width = 474;
},
{
associatedMasterId = "7390BA8A-CD54-46A0-980C-73781B2212BF";
layerId = "1131AEBB-1456-4EFC-91F8-C0BE2BE62E82";
name = "Feb 15 20, 18:07";
paths = (
{
closed = 1;
nodes = (
"139 -40 OFFCURVE",
"306 -41 OFFCURVE",
"301 46 CURVE SMOOTH",
"272 544 LINE",
"202 524 LINE",
"149 47 LINE SMOOTH"
);
},
{
closed = 1;
nodes = (
"432 572 OFFCURVE",
"457 594 OFFCURVE",
"457 628 CURVE SMOOTH",
"457 675 OFFCURVE",
"433 704 OFFCURVE",
"382 702 CURVE SMOOTH",
"121 692 LINE SMOOTH",
"43 689 OFFCURVE",
"14 630 OFFCURVE",
"14 554 CURVE SMOOTH",
"14 475 OFFCURVE",
"74 412 OFFCURVE",
"157 449 CURVE SMOOTH",
"388 552 LINE SMOOTH"
);
},
{
closed = 1;
nodes = (
"313 615 LINE SMOOTH",
"319 582 OFFCURVE",
"249 559 OFFCURVE",
"245 608 CURVE SMOOTH",
"238 697 LINE",
"298 699 LINE"
);
},
{
closed = 1;
nodes = (
"199 596 LINE SMOOTH",
"198 551 OFFCURVE",
"120 547 OFFCURVE",
"126 593 CURVE SMOOTH",
"140 692 LINE",
"201 694 LINE"
);
}
);
width = 474;
},
{
associatedMasterId = "B4EA0C51-6804-4423-9CCC-BF57B26265D1";
layerId = "824F1E78-C85D-41D9-8AA0-5CCD390557BE";
name = "Feb 18 20, 14:23";
paths = (
{
closed = 1;
nodes = (
"200 -23 OFFCURVE",
"272 -24 OFFCURVE",
"272 16 CURVE SMOOTH",
"273 484 LINE",
"203 484 LINE",
"200 17 LINE SMOOTH"
);
},
{
closed = 1;
nodes = (
"431 451 OFFCURVE",
"454 514 OFFCURVE",
"454 576 CURVE SMOOTH",
"454 640 OFFCURVE",
"429 700 OFFCURVE",
"333 700 CURVE SMOOTH",
"141 700 LINE SMOOTH",
"45 700 OFFCURVE",
"20 642 OFFCURVE",
"20 578 CURVE SMOOTH",
"20 516 OFFCURVE",
"43 451 OFFCURVE",
"140 451 CURVE SMOOTH",
"334 451 LINE SMOOTH"
);
},
{
closed = 1;
nodes = (
"202 288 LINE",
"202 262 OFFCURVE",
"201 236 OFFCURVE",
"201 210 CURVE",
"201 210 LINE",
"202 288 LINE"
);
},
{
closed = 1;
nodes = (
"202 147 LINE",
"201 127 OFFCURVE",
"201 106 OFFCURVE",
"200 86 CURVE",
"200 86 LINE",
"202 147 LINE"
);
}
);
width = 474;
},
{
associatedMasterId = "7390BA8A-CD54-46A0-980C-73781B2212BF";
layerId = "3C21A38F-9778-48C2-BC30-B5773FF13C79";
name = "Feb 18 20, 14:24";
paths = (
{
closed = 1;
nodes = (
"177 -50 OFFCURVE",
"407 -31 OFFCURVE",
"390 85 CURVE SMOOTH",
"308 645 LINE",
"218 635 LINE",
"185 77 LINE SMOOTH"
);
},
{
closed = 1;
nodes = (
"500 648 OFFCURVE",
"515 663 OFFCURVE",
"515 679 CURVE SMOOTH",
"515 707 OFFCURVE",
"497 725 OFFCURVE",
"460 723 CURVE SMOOTH",
"87 701 LINE SMOOTH",
"38 698 OFFCURVE",
"20 672 OFFCURVE",
"20 633 CURVE SMOOTH",
"20 594 OFFCURVE",
"43 579 OFFCURVE",
"89 586 CURVE SMOOTH",
"466 643 LINE SMOOTH"
);
},
{
closed = 1;
nodes = (
"263 334 LINE SMOOTH",
"298 338 OFFCURVE",
"316 251 OFFCURVE",
"265 250 CURVE SMOOTH",
"195 249 LINE",
"200 327 LINE"
);
},
{
closed = 1;
nodes = (
"271 182 LINE SMOOTH",
"331 179 OFFCURVE",
"319 94 OFFCURVE",
"261 108 CURVE SMOOTH",
"188 125 LINE",
"191 186 LINE"
);
}
);
width = 535;
}
);
unicode = 0054;
},
{
glyphname = U;
lastChange = "2020-02-18 01:42:56 +0000";
layers = (
{
layerId = "B4EA0C51-6804-4423-9CCC-BF57B26265D1";
paths = (
{
closed = 1;
nodes = (
"438 0 OFFCURVE",
"524 108 OFFCURVE",
"523 226 CURVE SMOOTH",
"520 627 LINE SMOOTH",
"519 732 OFFCURVE",
"340 732 OFFCURVE",
"340 629 CURVE SMOOTH",
"341 266 LINE SMOOTH",
"341 116 OFFCURVE",
"307 69 OFFCURVE",
"237 69 CURVE SMOOTH",
"164 69 OFFCURVE",
"127 123 OFFCURVE",
"127 263 CURVE SMOOTH",
"128 674 LINE SMOOTH",
"128 717 OFFCURVE",
"58 717 OFFCURVE",
"58 674 CURVE SMOOTH",
"55 253 LINE SMOOTH",
"54 84 OFFCURVE",
"128 0 OFFCURVE",
"262 0 CURVE SMOOTH"
);
},
{
closed = 1;
nodes = (
"341 500 LINE",
"341 481 OFFCURVE",
"341 462 OFFCURVE",
"341 443 CURVE",
"341 443 LINE",
"341 500 LINE"
);
},
{
closed = 1;
nodes = (
"341 427 LINE",
"341 407 OFFCURVE",
"341 386 OFFCURVE",
"341 366 CURVE",
"341 366 LINE",
"341 427 LINE"
);
},
{
closed = 1;
nodes = (
"139 73 OFFCURVE",
"151 85 OFFCURVE",
"151 100 CURVE SMOOTH",
"151 115 OFFCURVE",
"139 127 OFFCURVE",
"124 127 CURVE SMOOTH",
"109 127 OFFCURVE",
"97 115 OFFCURVE",
"97 100 CURVE SMOOTH",
"97 85 OFFCURVE",
"109 73 OFFCURVE",
"124 73 CURVE SMOOTH"
);
},
{
closed = 1;
nodes = (
"448 599 LINE SMOOTH",
"420 600 OFFCURVE",
"415 541 OFFCURVE",
"449 542 CURVE SMOOTH",
"473 543 LINE SMOOTH",
"504 544 OFFCURVE",
"503 597 OFFCURVE",
"475 598 CURVE SMOOTH"
);
},
{
closed = 1;
nodes = (
"78 490 LINE",
"79 429 LINE",
"94 427 LINE SMOOTH",
"125 423 OFFCURVE",
"124 490 OFFCURVE",
"96 490 CURVE SMOOTH"
);
}
);
width = 578;
},
{
layerId = "7390BA8A-CD54-46A0-980C-73781B2212BF";
paths = (
{
closed = 1;
nodes = (
"455 0 OFFCURVE",
"541 120 OFFCURVE",
"544 293 CURVE SMOOTH",
"550 628 LINE SMOOTH",
"552 733 OFFCURVE",
"369 745 OFFCURVE",
"379 630 CURVE SMOOTH",
"413 240 LINE SMOOTH",
"421 147 OFFCURVE",
"389 109 OFFCURVE",
"320 109 CURVE SMOOTH",
"192 109 OFFCURVE",
"133 163 OFFCURVE",
"137 303 CURVE SMOOTH",
"148 683 LINE SMOOTH",
"149 726 OFFCURVE",
"80 726 OFFCURVE",
"78 683 CURVE SMOOTH",
"34 294 LINE SMOOTH",
"12 98 OFFCURVE",
"107 0 OFFCURVE",
"251 0 CURVE SMOOTH"
);
},
{
closed = 1;
nodes = (
"449 592 LINE SMOOTH",
"479 597 OFFCURVE",
"493 534 OFFCURVE",
"449 529 CURVE SMOOTH",
"389 522 LINE",
"383 580 LINE"
);
},
{
closed = 1;
nodes = (
"451 475 LINE SMOOTH",
"495 480 OFFCURVE",
"490 397 OFFCURVE",
"458 401 CURVE SMOOTH",
"398 408 LINE",
"393 469 LINE"
);
},
{
closed = 1;
nodes = (
"273 239 OFFCURVE",
"296 262 OFFCURVE",
"296 291 CURVE SMOOTH",
"296 320 OFFCURVE",
"273 343 OFFCURVE",
"244 343 CURVE SMOOTH",
"215 343 OFFCURVE",
"192 320 OFFCURVE",
"192 291 CURVE SMOOTH",
"192 262 OFFCURVE",
"215 239 OFFCURVE",
"244 239 CURVE SMOOTH"
);
},
{
closed = 1;
nodes = (
"9 589 LINE SMOOTH",
"-27 587 OFFCURVE",
"-32 525 OFFCURVE",
"10 528 CURVE SMOOTH",
"214 544 LINE SMOOTH",
"255 547 OFFCURVE",
"250 601 OFFCURVE",
"212 599 CURVE SMOOTH"
);
},
{
closed = 1;
nodes = (
"99 490 LINE",
"100 429 LINE",
"224 420 LINE SMOOTH",
"265 417 OFFCURVE",
"264 484 OFFCURVE",
"226 485 CURVE SMOOTH"
);
}
);
width = 578;
}
);
unicode = 0055;
},
{
glyphname = V;
lastChange = "2020-02-17 00:00:14 +0000";
layers = (
{
layerId = "B4EA0C51-6804-4423-9CCC-BF57B26265D1";
paths = (
{
closed = 1;
nodes = (
"90 156 LINE SMOOTH",
"110 36 OFFCURVE",
"175 -12 OFFCURVE",
"255 -12 CURVE SMOOTH",
"341 -12 OFFCURVE",
"397 40 OFFCURVE",
"408 111 CURVE SMOOTH",
"495 657 LINE SMOOTH",
"502 701 OFFCURVE",
"435 714 OFFCURVE",
"427 666 CURVE SMOOTH",
"343 138 LINE SMOOTH",
"336 95 OFFCURVE",
"327 76 OFFCURVE",
"303 76 CURVE SMOOTH",
"283 76 OFFCURVE",
"270 90 OFFCURVE",
"264 132 CURVE SMOOTH",
"186 645 LINE SMOOTH",
"172 737 OFFCURVE",
"-5 738 OFFCURVE",
"16 608 CURVE SMOOTH"
);
},
{
closed = 1;
nodes = (
"261 13 OFFCURVE",
"277 29 OFFCURVE",
"277 49 CURVE SMOOTH",
"277 69 OFFCURVE",
"261 85 OFFCURVE",
"241 85 CURVE SMOOTH",
"221 85 OFFCURVE",
"205 69 OFFCURVE",
"205 49 CURVE SMOOTH",
"205 29 OFFCURVE",
"221 13 OFFCURVE",
"241 13 CURVE SMOOTH"
);
},
{
closed = 1;
nodes = (
"110 351 LINE SMOOTH",
"77 349 OFFCURVE",
"85 287 OFFCURVE",
"114 291 CURVE SMOOTH",
"165 298 LINE SMOOTH",
"196 302 OFFCURVE",
"191 357 OFFCURVE",
"163 355 CURVE SMOOTH"
);
},
{
closed = 1;
nodes = (
"29 529 LINE",
"32 510 OFFCURVE",
"35 491 OFFCURVE",
"38 472 CURVE",
"38 472 LINE",
"29 529 LINE"
);
},
{
closed = 1;
nodes = (
"49 409 LINE",
"52 389 OFFCURVE",
"56 369 OFFCURVE",
"59 349 CURVE",
"59 349 LINE",
"49 409 LINE"
);
}
);
width = 510;
},
{
layerId = "7390BA8A-CD54-46A0-980C-73781B2212BF";
paths = (
{
closed = 1;
nodes = (
"187 126 LINE SMOOTH",
"226 20 OFFCURVE",
"260 -22 OFFCURVE",
"330 -22 CURVE SMOOTH",
"406 -22 OFFCURVE",
"449 26 OFFCURVE",
"465 101 CURVE SMOOTH",
"586 677 LINE SMOOTH",
"597 731 OFFCURVE",
"518 744 OFFCURVE",
"508 686 CURVE SMOOTH",
"410 141 LINE SMOOTH",
"399 77 OFFCURVE",
"387 49 OFFCURVE",
"352 49 CURVE SMOOTH",
"326 49 OFFCURVE",
"308 63 OFFCURVE",
"301 105 CURVE SMOOTH",
"213 634 LINE SMOOTH",
"192 763 OFFCURVE",
"-32 719 OFFCURVE",
"22 573 CURVE SMOOTH"
);
},
{
closed = 1;
nodes = (
"395 501 OFFCURVE",
"420 526 OFFCURVE",
"420 558 CURVE SMOOTH",
"420 589 OFFCURVE",
"395 614 OFFCURVE",
"364 614 CURVE SMOOTH",
"332 614 OFFCURVE",
"307 589 OFFCURVE",
"307 558 CURVE SMOOTH",
"307 526 OFFCURVE",
"332 501 OFFCURVE",
"364 501 CURVE SMOOTH"
);
},
{
closed = 1;
nodes = (
"347 379 LINE SMOOTH",
"303 376 OFFCURVE",
"309 314 OFFCURVE",
"351 318 CURVE SMOOTH",
"583 340 LINE SMOOTH",
"624 344 OFFCURVE",
"619 400 OFFCURVE",
"581 397 CURVE SMOOTH"
);
},
{
closed = 1;
nodes = (
"122 549 LINE SMOOTH",
"160 558 OFFCURVE",
"174 492 OFFCURVE",
"130 485 CURVE SMOOTH",
"59 474 LINE",
"38 529 LINE"
);
},
{
closed = 1;
nodes = (
"158 431 LINE SMOOTH",
"200 443 OFFCURVE",
"214 385 OFFCURVE",
"176 373 CURVE SMOOTH",
"105 350 LINE",
"83 409 LINE"
);
}
);
width = 626;
}
);
unicode = 0056;
},
{
glyphname = W;
lastChange = "2020-02-17 00:30:53 +0000";
layers = (
{
layerId = "B4EA0C51-6804-4423-9CCC-BF57B26265D1";
paths = (
{
closed = 1;
nodes = (
"129 59 LINE SMOOTH",
"136 17 OFFCURVE",
"165 -12 OFFCURVE",
"200 -12 CURVE SMOOTH",
"237 -12 OFFCURVE",
"260 15 OFFCURVE",
"288 79 CURVE SMOOTH",
"408 357 LINE SMOOTH",
"417 380 OFFCURVE",
"441 380 OFFCURVE",
"447 358 CURVE SMOOTH",
"532 59 LINE SMOOTH",
"544 13 OFFCURVE",
"571 -12 OFFCURVE",
"611 -12 CURVE SMOOTH",
"652 -12 OFFCURVE",
"677 17 OFFCURVE",
"685 67 CURVE SMOOTH",
"784 670 LINE SMOOTH",
"792 714 OFFCURVE",
"727 727 OFFCURVE",
"719 679 CURVE SMOOTH",
"628 80 LINE SMOOTH",
"622 44 OFFCURVE",
"599 45 OFFCURVE",
"589 79 CURVE SMOOTH",
"449 594 LINE SMOOTH",
"427 673 OFFCURVE",
"337 689 OFFCURVE",
"298 594 CURVE SMOOTH",
"202 355 LINE SMOOTH",
"183 307 OFFCURVE",
"152 325 OFFCURVE",
"147 357 CURVE SMOOTH",
"91 679 LINE SMOOTH",
"82 727 OFFCURVE",
"18 714 OFFCURVE",
"26 670 CURVE SMOOTH"
);
},
{
closed = 1;
nodes = (
"315 557 LINE SMOOTH",
"279 554 OFFCURVE",
"290 497 OFFCURVE",
"325 502 CURVE SMOOTH",
"332 503 LINE SMOOTH",
"360 507 OFFCURVE",
"355 560 OFFCURVE",
"327 558 CURVE SMOOTH"
);
},
{
closed = 1;
nodes = (
"116 408 LINE SMOOTH",
"84 406 OFFCURVE",
"90 346 OFFCURVE",
"120 351 CURVE SMOOTH",
"138 354 LINE",
"131 409 LINE"
);
},
{
closed = 1;
nodes = (
"682 105 OFFCURVE",
"682 105 OFFCURVE",
"682 105 CURVE SMOOTH",
"682 105 OFFCURVE",
"682 105 OFFCURVE",
"682 105 CURVE SMOOTH",
"682 105 OFFCURVE",
"682 105 OFFCURVE",
"682 105 CURVE SMOOTH",
"682 105 OFFCURVE",
"682 105 OFFCURVE",
"682 105 CURVE SMOOTH"
);
},
{
closed = 1;
nodes = (
"466 530 LINE",
"461 547 OFFCURVE",
"457 565 OFFCURVE",
"452 582 CURVE",
"452 582 LINE",
"466 530 LINE"
);
},
{
closed = 1;
nodes = (
"491 439 LINE",
"486 457 OFFCURVE",
"481 475 OFFCURVE",
"476 493 CURVE",
"476 493 LINE",
"491 439 LINE"
);
}
);
width = 810;
},
{
layerId = "7390BA8A-CD54-46A0-980C-73781B2212BF";
paths = (
{
closed = 1;
nodes = (
"145 89 LINE SMOOTH",
"152 47 OFFCURVE",
"181 18 OFFCURVE",
"216 18 CURVE SMOOTH",
"253 18 OFFCURVE",
"275 45 OFFCURVE",
"310 107 CURVE SMOOTH",
"437 330 LINE SMOOTH",
"450 352 OFFCURVE",
"469 353 OFFCURVE",
"476 331 CURVE SMOOTH",
"561 59 LINE SMOOTH",
"576 13 OFFCURVE",
"600 -12 OFFCURVE",
"640 -12 CURVE SMOOTH",
"681 -12 OFFCURVE",
"709 17 OFFCURVE",
"721 67 CURVE SMOOTH",
"851 621 LINE SMOOTH",
"879 741 OFFCURVE",
"672 767 OFFCURVE",
"669 638 CURVE SMOOTH",
"656 96 LINE SMOOTH",
"655 61 OFFCURVE",
"623 61 OFFCURVE",
"614 95 CURVE SMOOTH",
"476 621 LINE SMOOTH",
"452 711 OFFCURVE",
"343 706 OFFCURVE",
"324 614 CURVE SMOOTH",
"246 232 LINE SMOOTH",
"237 188 OFFCURVE",
"198 190 OFFCURVE",
"191 234 CURVE SMOOTH",
"124 679 LINE SMOOTH",
"117 727 OFFCURVE",
"40 717 OFFCURVE",
"48 670 CURVE SMOOTH"
);
},
{
closed = 1;
nodes = (
"32 525 LINE SMOOTH",
"-12 521 OFFCURVE",
"-1 456 OFFCURVE",
"42 462 CURVE SMOOTH",
"197 483 LINE SMOOTH",
"235 488 OFFCURVE",
"230 541 OFFCURVE",
"192 538 CURVE SMOOTH"
);
},
{
closed = 1;
nodes = (
"45 403 LINE SMOOTH",
"1 400 OFFCURVE",
"7 338 OFFCURVE",
"49 343 CURVE SMOOTH",
"140 354 LINE",
"133 409 LINE"
);
},
{
closed = 1;
nodes = (
"731 555 OFFCURVE",
"711 575 OFFCURVE",
"711 601 CURVE SMOOTH",
"711 625 OFFCURVE",
"731 645 OFFCURVE",
"757 645 CURVE SMOOTH",
"781 645 OFFCURVE",
"801 625 OFFCURVE",
"801 601 CURVE SMOOTH",
"801 575 OFFCURVE",
"781 555 OFFCURVE",
"757 555 CURVE SMOOTH"
);
},
{
closed = 1;
nodes = (
"427 522 LINE SMOOTH",
"384 513 OFFCURVE",
"373 578 OFFCURVE",
"415 582 CURVE SMOOTH",
"484 589 LINE",
"498 537 LINE"
);
},
{
closed = 1;
nodes = (
"473 430 LINE SMOOTH",
"431 416 OFFCURVE",
"419 483 OFFCURVE",
"461 490 CURVE SMOOTH",
"508 498 LINE",
"522 446 LINE"
);
}
);
width = 869;
}
);
unicode = 0057;
},
